<svg width="60" height="60" viewBox="0 0 60 60" fill="none" xmlns="http://www.w3.org/2000/svg">
<path d="M24.4492 55C23.6927 55 23.0546 54.4367 22.9608 53.6861L22.2364 47.8915C22.1678 47.3426 21.7981 46.885 21.3023 46.6397C21.059 46.5193 20.8228 46.3894 20.5938 46.25C20.3536 46.1038 20.1161 45.9524 19.8812 45.7958C19.4445 45.5046 18.8919 45.4367 18.408 45.64L12.9675 47.9259C12.2715 48.2184 11.4666 47.948 11.0883 47.2946L5.53913 37.7096C5.15982 37.0545 5.32818 36.2193 5.93171 35.7623L10.6374 32.1987C11.054 31.8832 11.25 31.3663 11.25 30.8438V30.8438V29.1562V29.1562C11.25 28.6337 11.054 28.1168 10.6375 27.8013L5.93171 24.2377C5.32818 23.7807 5.15982 22.9455 5.53913 22.2904L11.0883 12.7054C11.4666 12.052 12.2715 11.7816 12.9675 12.0741L18.408 14.36C18.8919 14.5633 19.4441 14.4946 19.8836 14.2077C20.1254 14.0498 20.3726 13.8973 20.625 13.75C20.8615 13.612 21.098 13.4834 21.3345 13.3641C21.8151 13.1216 22.1662 12.6704 22.233 12.1362L22.9608 6.31395C23.0546 5.5633 23.6927 5 24.4492 5H35.5508C36.3073 5 36.9454 5.5633 37.0392 6.31395L37.7636 12.1085C37.8322 12.6574 38.2019 13.115 38.6977 13.3603C38.941 13.4807 39.1772 13.6106 39.4062 13.75C39.6464 13.8962 39.8839 14.0476 40.1188 14.2042C40.5555 14.4954 41.1081 14.5633 41.592 14.36L47.0325 12.0741C47.7285 11.7816 48.5334 12.052 48.9117 12.7054L54.4609 22.2904C54.8402 22.9455 54.6718 23.7807 54.0683 24.2377L49.3626 27.8013C48.946 28.1168 48.75 28.6337 48.75 29.1562V29.1562V30.8438V30.8438C48.75 31.3596 48.896 31.8927 49.3072 32.2041L54.0058 35.7623C54.6093 36.2193 54.7777 37.0545 54.3984 37.7096L48.8512 47.2911C48.4721 47.946 47.6646 48.2159 46.9678 47.9207L41.5938 45.6435C41.109 45.4381 40.5548 45.5062 40.1139 45.7939C39.8729 45.9512 39.6266 46.1032 39.375 46.25C39.1385 46.388 38.902 46.5166 38.6655 46.6359C38.1849 46.8784 37.8338 47.3296 37.767 47.8638L37.0392 53.6861C36.9454 54.4367 36.3073 55 35.5508 55H24.4492ZM27.3384 48.6826C27.4307 49.4348 28.0695 50 28.8273 50H31.1226C31.8751 50 32.5111 49.4424 32.6097 48.6964L33.18 44.3782C33.2601 43.7719 33.7027 43.282 34.283 43.0893C35.2094 42.7816 36.0838 42.3873 36.9062 41.9062C37.7244 41.4277 38.4911 40.8748 39.2063 40.2476C39.6624 39.8476 40.3029 39.7138 40.8634 39.946L44.9062 41.6202C45.6031 41.9089 46.406 41.635 46.7813 40.9807L47.9051 39.0212C48.2809 38.366 48.1109 37.5337 47.5084 37.0783L44.0661 34.4765C43.5432 34.0814 43.35 33.3946 43.4895 32.7542C43.5454 32.4978 43.5905 32.2359 43.625 31.9688C43.7083 31.3229 43.75 30.6667 43.75 30C43.75 29.3333 43.7083 28.6771 43.625 28.0312C43.5905 27.7641 43.5454 27.5022 43.4895 27.2458C43.35 26.6054 43.5432 25.9186 44.0661 25.5235L47.5084 22.9217C48.1109 22.4663 48.2809 21.634 47.9051 20.9788L46.787 19.0293C46.4093 18.3707 45.599 18.0982 44.9 18.3947L40.8912 20.0954C40.3172 20.3389 39.6575 20.196 39.1957 19.7771C38.4835 19.131 37.7204 18.5699 36.9062 18.0938C36.0867 17.6144 35.2155 17.2211 34.2927 16.9139C33.7076 16.7192 33.2631 16.2226 33.1881 15.6106L32.6616 11.3174C32.5693 10.5652 31.9305 10 31.1727 10H28.8774C28.1249 10 27.4889 10.5576 27.3903 11.3036L26.82 15.6218C26.7399 16.2281 26.2973 16.718 25.717 16.9107C24.7906 17.2184 23.9162 17.6127 23.0938 18.0938C22.2756 18.5723 21.5089 19.1252 20.7937 19.7524C20.3376 20.1524 19.6971 20.2862 19.1366 20.054L15.0938 18.3798C14.3969 18.0911 13.594 18.365 13.2187 19.0193L12.0998 20.9702C11.722 21.629 11.8962 22.4663 12.5055 22.9198L15.9418 25.477C16.4614 25.8637 16.6626 26.5381 16.5223 27.1704C16.461 27.4469 16.4119 27.7235 16.375 28C16.2917 28.625 16.25 29.2917 16.25 30C16.25 30.6667 16.2917 31.3125 16.375 31.9375C16.4122 32.2168 16.462 32.4961 16.5242 32.7754C16.6641 33.4036 16.4668 34.0738 15.9534 34.4618L12.4916 37.0783C11.8891 37.5337 11.7191 38.366 12.0949 39.0212L13.213 40.9707C13.5907 41.6293 14.401 41.9018 15.1 41.6053L19.1088 39.9046C19.6828 39.6611 20.3425 39.804 20.8043 40.2229C21.5165 40.869 22.2796 41.4301 23.0938 41.9062C23.9133 42.3856 24.7845 42.7789 25.7073 43.0861C26.2924 43.2808 26.7369 43.7774 26.8119 44.3894L27.3384 48.6826ZM30.125 38.75C32.5417 38.75 34.6042 37.8958 36.3125 36.1875C38.0208 34.4792 38.875 32.4167 38.875 30C38.875 27.5833 38.0208 25.5208 36.3125 23.8125C34.6042 22.1042 32.5417 21.25 30.125 21.25C27.6667 21.25 25.5938 22.1042 23.9062 23.8125C22.2188 25.5208 21.375 27.5833 21.375 30C21.375 32.4167 22.2188 34.4792 23.9062 36.1875C25.5938 37.8958 27.6667 38.75 30.125 38.75Z" fill="#6D6D6D"/>
</svg>
