<svg width="328" height="328" viewBox="0 0 328 328" fill="none" xmlns="http://www.w3.org/2000/svg">
<path d="M191.509 37.4332C194.836 35.503 199.097 36.6189 201.051 39.932L219.29 70.8579C220.42 72.7727 222.391 74.0373 224.603 74.265L260.318 77.9433C264.144 78.3374 266.935 81.7448 266.569 85.5736L263.147 121.314C262.935 123.527 263.787 125.709 265.442 127.193L292.174 151.162C295.038 153.73 295.294 158.127 292.747 161.009L268.971 187.913C267.498 189.578 266.905 191.844 267.372 194.018L274.91 229.122C275.718 232.882 273.34 236.59 269.585 237.424L234.536 245.215C232.366 245.697 230.554 247.181 229.654 249.214L215.119 282.045C213.562 285.562 209.459 287.164 205.931 285.632L172.997 271.333C170.958 270.448 168.619 270.584 166.697 271.699L135.64 289.716C132.313 291.646 128.052 290.531 126.098 287.217L107.859 256.291C106.729 254.377 104.758 253.112 102.546 252.884L66.8312 249.206C63.005 248.812 60.2136 245.405 60.5802 241.576L64.0018 205.835C64.2137 203.622 63.3619 201.44 61.7067 199.956L34.9747 175.988C32.1109 173.42 31.8554 169.023 34.4025 166.14L58.1785 139.237C59.6506 137.571 60.2439 135.305 59.7772 133.132L52.2389 98.0279C51.4313 94.2672 53.8093 90.5595 57.5641 89.7249L92.6128 81.9347C94.7828 81.4524 96.5948 79.9679 97.4947 77.9352L112.03 45.1048C113.587 41.5877 117.69 39.9858 121.218 41.5176L154.152 55.8163C156.191 56.7016 158.53 56.5657 160.452 55.4502L191.509 37.4332Z" fill="#AFC901"/>
<path d="M91.5992 161.469C89.4117 160.882 87.4868 159.981 85.8245 158.764C84.1973 157.527 82.8833 156.062 81.8827 154.369C80.8894 152.649 80.2638 150.774 80.0059 148.747C79.783 146.698 79.9684 144.567 80.562 142.352C81.1407 140.192 82.0625 138.302 83.3275 136.682C84.5925 135.062 86.0815 133.77 87.7944 132.804C89.5425 131.818 91.4443 131.2 93.4998 130.95C95.5831 130.707 97.7323 130.882 99.9475 131.475C101.332 131.846 102.641 132.39 103.873 133.106C105.106 133.822 106.193 134.692 107.136 135.716C108.113 136.72 108.888 137.818 109.459 139.01L103.815 142.795C103.396 142.03 102.914 141.337 102.368 140.716C101.858 140.074 101.248 139.525 100.539 139.068C99.8309 138.611 99.0336 138.264 98.1475 138.027C97.0399 137.73 95.9321 137.656 94.8239 137.804C93.7509 137.932 92.7404 138.27 91.7925 138.817C90.8796 139.344 90.0746 140.078 89.3773 141.019C88.68 141.96 88.157 143.081 87.8083 144.382C87.467 145.656 87.363 146.875 87.4965 148.038C87.6373 149.174 87.9813 150.216 88.5286 151.164C89.0759 152.112 89.8238 152.921 90.7721 153.59C91.7481 154.267 92.8869 154.78 94.1883 155.129C95.0744 155.366 95.9523 155.468 96.8221 155.434C97.6919 155.4 98.5147 155.264 99.2905 155.027C100.101 154.769 100.844 154.434 101.519 154.021L103.478 160.333C102.578 160.923 101.465 161.367 100.138 161.664C98.84 161.969 97.4364 162.113 95.9278 162.094C94.4542 162.056 93.0114 161.847 91.5992 161.469ZM116.908 168.25C114.61 167.634 112.694 166.587 111.161 165.108C109.656 163.636 108.608 161.901 108.015 159.902C107.451 157.911 107.465 155.808 108.059 153.592C108.653 151.377 109.692 149.548 111.176 148.106C112.688 146.671 114.464 145.693 116.503 145.171C118.57 144.656 120.753 144.707 123.051 145.323C125.349 145.939 127.251 146.982 128.756 148.454C130.289 149.933 131.338 151.668 131.902 153.66C132.467 155.651 132.452 157.754 131.858 159.969C131.265 162.185 130.226 164.013 128.741 165.456C127.257 166.898 125.481 167.876 123.414 168.391C121.375 168.913 119.206 168.866 116.908 168.25ZM118.444 162.518C119.441 162.785 120.393 162.774 121.302 162.483C122.211 162.192 123.002 161.677 123.675 160.937C124.348 160.198 124.819 159.27 125.088 158.155C125.413 157.055 125.468 156.017 125.255 155.039C125.05 154.035 124.626 153.179 123.984 152.473C123.343 151.767 122.523 151.28 121.526 151.013C120.53 150.746 119.563 150.754 118.626 151.037C117.718 151.328 116.923 151.857 116.242 152.624C115.569 153.364 115.098 154.291 114.829 155.406C114.505 156.507 114.449 157.545 114.662 158.522C114.875 159.499 115.302 160.341 115.944 161.047C116.614 161.761 117.447 162.251 118.444 162.518ZM133.244 172.182L139.153 150.127L145.467 151.819L143.832 159.082L142.953 157.378C143.604 156.276 144.43 155.355 145.43 154.613C146.458 153.88 147.558 153.373 148.731 153.094C149.904 152.815 151.072 152.831 152.235 153.143C152.733 153.276 153.179 153.44 153.572 153.634C153.993 153.836 154.368 154.041 154.698 154.248L150.901 161.11C150.648 160.834 150.274 160.571 149.777 160.319C149.316 160.047 148.809 159.837 148.255 159.688C147.646 159.525 147.048 159.484 146.463 159.564C145.885 159.617 145.364 159.789 144.9 160.081C144.436 160.372 144.023 160.751 143.66 161.218C143.326 161.692 143.069 162.261 142.891 162.926L139.931 173.974L133.244 172.182ZM152.145 177.247L158.055 155.192L164.368 156.883L162.734 164.147L161.855 162.442C162.506 161.341 163.332 160.419 164.332 159.678C165.359 158.944 166.459 158.438 167.632 158.159C168.805 157.879 169.973 157.896 171.136 158.207C171.635 158.341 172.08 158.505 172.473 158.699C172.894 158.901 173.27 159.105 173.6 159.313L169.803 166.175C169.55 165.899 169.175 165.635 168.679 165.384C168.218 165.112 167.71 164.902 167.156 164.753C166.547 164.59 165.95 164.549 165.364 164.629C164.786 164.682 164.265 164.854 163.802 165.145C163.338 165.436 162.925 165.815 162.562 166.282C162.227 166.756 161.971 167.326 161.793 167.99L158.832 179.039L152.145 177.247ZM180.511 185.292C178.074 184.64 176.086 183.587 174.546 182.136C173.013 180.657 171.974 178.939 171.43 176.983C170.893 174.999 170.918 172.913 171.504 170.726C171.957 169.037 172.649 167.56 173.581 166.297C174.513 165.033 175.615 164.022 176.887 163.265C178.165 162.48 179.557 161.992 181.063 161.802C182.603 161.591 184.19 161.705 185.824 162.143C187.374 162.558 188.712 163.213 189.838 164.109C190.991 165.011 191.904 166.087 192.579 167.336C193.253 168.585 193.658 169.955 193.792 171.445C193.927 172.935 193.752 174.476 193.266 176.067L192.746 177.842L175.177 173.135L175.223 169.141L188.348 172.657L187.431 173.257L187.653 172.427C187.783 171.72 187.725 171.051 187.478 170.421C187.267 169.771 186.897 169.212 186.37 168.744C185.842 168.276 185.191 167.938 184.415 167.731C183.335 167.441 182.348 167.414 181.454 167.649C180.596 167.864 179.861 168.335 179.251 169.062C178.648 169.761 178.187 170.706 177.868 171.897C177.541 173.115 177.505 174.248 177.759 175.295C178.047 176.322 178.609 177.215 179.445 177.973C180.308 178.739 181.418 179.303 182.775 179.667C183.717 179.919 184.584 180.003 185.378 179.919C186.2 179.843 187.129 179.587 188.166 179.152L190.101 184.39C189.043 184.907 187.966 185.272 186.87 185.483C185.775 185.694 184.685 185.773 183.602 185.72C182.538 185.702 181.508 185.56 180.511 185.292ZM204.017 191.591C201.885 191.02 200.108 190.009 198.686 188.56C197.264 187.11 196.285 185.394 195.748 183.41C195.246 181.406 195.288 179.31 195.874 177.122C196.46 174.935 197.468 173.113 198.897 171.656C200.362 170.178 202.072 169.167 204.028 168.623C205.984 168.079 208.028 168.092 210.16 168.664C212.126 169.19 213.833 170.019 215.282 171.149C216.758 172.286 217.813 173.608 218.448 175.114L213.677 178.465C213.409 177.918 213.063 177.38 212.641 176.852C212.218 176.323 211.719 175.863 211.141 175.47C210.564 175.078 209.929 174.789 209.236 174.604C208.184 174.322 207.19 174.323 206.253 174.606C205.324 174.861 204.523 175.359 203.85 176.099C203.177 176.838 202.692 177.762 202.395 178.87C202.113 179.922 202.079 180.937 202.292 181.914C202.533 182.898 202.988 183.747 203.657 184.461C204.327 185.174 205.174 185.668 206.198 185.943C206.918 186.136 207.605 186.231 208.259 186.228C208.92 186.197 209.548 186.069 210.143 185.842C210.765 185.623 211.368 185.31 211.952 184.903L214.356 190.221C213.095 191.16 211.528 191.749 209.653 191.988C207.806 192.235 205.928 192.103 204.017 191.591ZM218.911 195.137L226.312 167.516L232.958 169.297L225.557 196.917L218.911 195.137ZM219.359 177.85L220.917 172.036L235.745 176.009L234.187 181.824L219.359 177.85ZM237.842 188.857C238.073 187.109 238.319 185.305 238.579 183.446C238.84 181.587 239.139 179.752 239.475 177.943C239.811 176.134 240.198 174.412 240.636 172.779L241.504 169.539L248.524 171.42L247.656 174.659C247.21 176.321 246.678 178.033 246.057 179.796C245.436 181.558 244.774 183.31 244.07 185.051C243.374 186.763 242.682 188.403 241.995 189.97L237.842 188.857ZM236.958 200.462C235.823 200.158 235.022 199.602 234.556 198.794C234.089 197.987 234.016 196.988 234.335 195.797C234.632 194.689 235.205 193.879 236.055 193.364C236.905 192.85 237.87 192.738 238.95 193.027C240.085 193.331 240.869 193.897 241.3 194.725C241.766 195.533 241.839 196.532 241.52 197.722C241.231 198.802 240.661 199.599 239.811 200.114C238.961 200.628 238.01 200.744 236.958 200.462Z" fill="white"/>
</svg>
