<svg width="704" height="934" viewBox="0 0 704 934" fill="none" xmlns="http://www.w3.org/2000/svg">
<g filter="url(#filter0_d_447_9271)">
<rect x="4" width="696" height="926" rx="20" fill="#FAF5EA"/>
<path d="M120.989 566V511H100.189V496H159.289V511H137.989V566H120.989ZM163.659 566V512.9H178.859L179.559 530.2L176.559 526.9C177.359 524.033 178.659 521.467 180.459 519.2C182.326 516.933 184.492 515.133 186.959 513.8C189.426 512.467 192.059 511.8 194.859 511.8C196.059 511.8 197.159 511.9 198.159 512.1C199.226 512.3 200.192 512.533 201.059 512.8L196.659 530.5C195.926 530.033 194.926 529.667 193.659 529.4C192.459 529.067 191.192 528.9 189.859 528.9C188.392 528.9 187.026 529.167 185.759 529.7C184.492 530.167 183.426 530.867 182.559 531.8C181.692 532.733 180.992 533.833 180.459 535.1C179.992 536.367 179.759 537.8 179.759 539.4V566H163.659ZM215.867 589L227.967 560.5L228.167 568.7L202.567 512.9H220.667L231.867 539.6C232.467 540.933 233.034 542.367 233.567 543.9C234.1 545.433 234.5 546.9 234.767 548.3L232.567 549.6C232.967 548.6 233.4 547.367 233.867 545.9C234.4 544.367 234.967 542.733 235.567 541L245.367 512.9H263.567L240.967 566L231.767 589H215.867ZM296.01 566L323.71 496H338.11L365.61 566H348.41L335.21 530.5C334.677 529.1 334.143 527.6 333.61 526C333.077 524.4 332.543 522.767 332.01 521.1C331.477 519.367 330.943 517.7 330.41 516.1C329.943 514.433 329.543 512.9 329.21 511.5L332.21 511.4C331.81 513.067 331.343 514.7 330.81 516.3C330.343 517.9 329.843 519.5 329.31 521.1C328.843 522.633 328.31 524.2 327.71 525.8C327.11 527.333 326.543 528.933 326.01 530.6L312.81 566H296.01ZM309.21 552.6L314.51 539.8H346.71L351.91 552.6H309.21ZM395.967 589C391.634 589 387.3 588.367 382.967 587.1C378.7 585.833 375.234 584.2 372.567 582.2L378.167 571C379.567 571.933 381.1 572.733 382.767 573.4C384.5 574.133 386.3 574.7 388.167 575.1C390.034 575.5 391.934 575.7 393.867 575.7C397.267 575.7 400.034 575.2 402.167 574.2C404.3 573.2 405.9 571.667 406.967 569.6C408.034 567.6 408.567 565.067 408.567 562V553.1L411.667 553.6C411.2 555.8 410.034 557.8 408.167 559.6C406.367 561.4 404.134 562.867 401.467 564C398.8 565.067 395.967 565.6 392.967 565.6C388.167 565.6 383.867 564.5 380.067 562.3C376.334 560.033 373.367 556.933 371.167 553C369.034 549 367.967 544.4 367.967 539.2C367.967 533.867 369.034 529.167 371.167 525.1C373.3 520.967 376.234 517.733 379.967 515.4C383.7 513 387.9 511.8 392.567 511.8C394.567 511.8 396.467 512.033 398.267 512.5C400.134 512.967 401.834 513.6 403.367 514.4C404.967 515.133 406.367 516.033 407.567 517.1C408.834 518.1 409.834 519.2 410.567 520.4C411.367 521.6 411.9 522.833 412.167 524.1L408.867 524.9L409.467 512.9H424.667V561.7C424.667 566.033 424 569.867 422.667 573.2C421.4 576.6 419.5 579.467 416.967 581.8C414.5 584.2 411.5 586 407.967 587.2C404.434 588.4 400.434 589 395.967 589ZM396.367 553.2C398.967 553.2 401.2 552.633 403.067 551.5C405 550.3 406.467 548.667 407.467 546.6C408.534 544.533 409.067 542.1 409.067 539.3C409.067 536.5 408.534 534.067 407.467 532C406.467 529.867 405 528.233 403.067 527.1C401.2 525.9 398.967 525.3 396.367 525.3C393.834 525.3 391.634 525.9 389.767 527.1C387.9 528.233 386.434 529.867 385.367 532C384.367 534.067 383.867 536.5 383.867 539.3C383.867 542.1 384.367 544.533 385.367 546.6C386.434 548.667 387.9 550.3 389.767 551.5C391.634 552.633 393.834 553.2 396.367 553.2ZM458.161 566.9C453.695 566.9 449.695 565.733 446.161 563.4C442.695 561 439.928 557.733 437.861 553.6C435.795 549.4 434.761 544.667 434.761 539.4C434.761 534 435.795 529.233 437.861 525.1C439.928 520.967 442.761 517.733 446.361 515.4C449.961 513 454.061 511.8 458.661 511.8C461.195 511.8 463.495 512.167 465.561 512.9C467.695 513.633 469.561 514.667 471.161 516C472.761 517.267 474.128 518.767 475.261 520.5C476.395 522.167 477.228 523.967 477.761 525.9L474.461 525.5V512.9H490.361V566H474.161V553.2L477.761 553.1C477.228 554.967 476.361 556.733 475.161 558.4C473.961 560.067 472.495 561.533 470.761 562.8C469.028 564.067 467.095 565.067 464.961 565.8C462.828 566.533 460.561 566.9 458.161 566.9ZM462.561 553.4C465.028 553.4 467.161 552.833 468.961 551.7C470.761 550.567 472.161 548.967 473.161 546.9C474.161 544.767 474.661 542.267 474.661 539.4C474.661 536.533 474.161 534.067 473.161 532C472.161 529.867 470.761 528.233 468.961 527.1C467.161 525.9 465.028 525.3 462.561 525.3C460.161 525.3 458.061 525.9 456.261 527.1C454.528 528.233 453.161 529.867 452.161 532C451.161 534.067 450.661 536.533 450.661 539.4C450.661 542.267 451.161 544.767 452.161 546.9C453.161 548.967 454.528 550.567 456.261 551.7C458.061 552.833 460.161 553.4 462.561 553.4ZM505.379 566V512.9H521.379V566H505.379ZM513.379 502.4C510.379 502.4 508.013 501.7 506.279 500.3C504.613 498.833 503.779 496.767 503.779 494.1C503.779 491.7 504.646 489.733 506.379 488.2C508.113 486.667 510.446 485.9 513.379 485.9C516.379 485.9 518.713 486.633 520.379 488.1C522.046 489.5 522.879 491.5 522.879 494.1C522.879 496.567 522.013 498.567 520.279 500.1C518.613 501.633 516.313 502.4 513.379 502.4ZM536.413 566V512.9H551.613L552.113 523.7L548.913 524.9C549.646 522.5 550.946 520.333 552.813 518.4C554.746 516.4 557.046 514.8 559.713 513.6C562.38 512.4 565.18 511.8 568.113 511.8C572.113 511.8 575.48 512.633 578.213 514.3C580.946 515.9 583.013 518.333 584.413 521.6C585.813 524.8 586.513 528.733 586.513 533.4V566H570.413V534.7C570.413 532.567 570.113 530.8 569.513 529.4C568.913 528 567.98 526.967 566.713 526.3C565.513 525.567 564.013 525.233 562.213 525.3C560.813 525.3 559.513 525.533 558.313 526C557.113 526.4 556.08 527.033 555.213 527.9C554.346 528.7 553.646 529.633 553.113 530.7C552.646 531.767 552.413 532.933 552.413 534.2V566H544.513C542.646 566 541.046 566 539.713 566C538.38 566 537.28 566 536.413 566Z" fill="#60489C"/>
<g clip-path="url(#clip0_447_9271)">
<path d="M429.226 441.102C423.57 438.332 408.659 343.213 409.992 386.595C410.023 399.367 409.972 434.052 409.992 440.648C409.992 441.897 409.207 441.761 407.976 441.829C405.225 441.761 398.163 442.113 395.112 441.613C392.641 436.061 379.157 381.667 376.851 374.321C376.075 372.618 375.599 378.204 375.599 379.09C375.548 398.936 378.154 419.61 375.91 439.388C375.579 441.034 374.845 441.715 373.511 441.806C370.45 441.908 362.87 441.829 356.914 441.851C354.215 441.851 351.868 441.851 350.42 441.851C349.531 441.84 348.941 441.851 348.29 441.341C346.304 438.945 345.281 435.732 343.295 432.247C341.982 429.567 340.762 427.501 339.883 427.342C339.48 427.24 339.231 427.592 339.066 427.989C338.115 430.771 339.562 436.856 337.877 439.649C336.584 441.92 333.74 441.829 331.507 441.92C327.029 441.954 322.521 442.01 318.064 441.976C307.486 442.782 305.438 433.041 301.116 424.742C296.597 415.784 291.437 407.178 287.28 398.005C284.457 392.09 280.703 383.234 276.888 377.898C275.864 376.604 275.109 376.501 274.034 377.943C272.989 379.396 271.914 381.474 271.024 383.2C269.287 386.492 267.012 392.169 265.585 392.146C264.892 392.26 264.107 391.601 263.197 390.33C261.19 387.367 258.812 383.245 256.589 380.305C248.027 369.678 235.38 363.116 222.703 360.561C218.463 359.528 209.932 361.265 214.513 353.295C216.86 349.344 218.504 344.439 221.844 341.783C239.258 334.868 261.118 346.767 270.28 363.49C271.635 365.193 273.837 374.038 276.174 372.732C277.229 372.119 278.408 369.269 279.814 366.363C281.944 362.06 283.578 359.346 280.548 354.93C272.565 340.693 258.978 331.156 244.408 326.989C241.419 325.933 238.358 326.07 235.008 326.035C232.051 325.82 229.176 325.877 231.751 321.335C233.322 318.349 236.063 313.172 237.624 310.288C238.999 307.37 241.647 306.576 244.542 306.326C262.349 304.01 279.163 313.252 288.521 329.975C289.751 332.132 290.765 334.766 291.706 336.969C292.368 338.32 292.823 339.251 293.764 338.729C294.891 338.047 296.669 334.289 298.386 331.303C299.254 329.669 300.34 328 300.371 326.104C293.412 305.702 271.769 293.043 252.38 291.578C250.746 291.385 248.482 291.396 248.957 289.057C276.505 226.954 314.155 235.322 367.958 235.549C370.171 235.549 372.456 234.89 371.629 231.859C367.048 218.314 361.836 197.345 377.089 190.714C385.93 187.626 396.498 196.039 402.795 203.532C405.153 206.11 406.766 210.333 409.734 211.888C410.82 212.32 412.071 212.013 413.767 211.536C416.528 210.742 420.343 209.436 423.27 208.551C429.433 206.666 435.379 205.894 441.687 205.667C452.648 205.406 463.785 207.449 474.208 210.992C477.238 212.32 480.257 212.036 482.294 209.027C485.851 204.179 489.522 198.98 494.465 195.426C502.51 188.852 514.785 186.911 519.696 197.663C524.453 208.687 521.123 222.935 516.367 233.528C515.095 236.389 515.488 239.613 517.308 242.066C520.565 246.902 524.774 251.478 527.255 256.644C528.807 259.732 527.803 263.115 525.839 265.715C509.118 290.306 486.1 311.424 459.762 322.368C455.802 323.901 449.142 326.41 446.392 328.011C445.326 328.601 444.354 329.158 444.427 330.225C444.303 340.136 444.52 416.034 444.427 439.672C444.706 442.056 440.187 441.874 437.788 441.874C435.193 441.727 431.553 442.374 429.361 441.216L429.247 441.136L429.226 441.102ZM417.872 284.493C413.86 289.194 410.22 295.506 408.865 301.921C408.297 306.235 412.929 308.324 415.711 310.186C423.404 314.364 435.534 321.403 443.507 322.3C449.483 322.107 456.381 318.508 462.585 315.579C467.631 312.854 473.07 310.504 477.786 306.882C481.943 302.557 476.431 292.929 473.65 288.989C467.424 279.884 455.171 275.24 453.816 262.888C451.81 248.333 465.263 238.296 476.948 242.679C490.288 247.992 499.853 261.423 507.298 274.15C510.007 279.839 512.179 275.66 514.919 272.686C517.328 269.779 518.838 267.747 520.73 264.773C521.992 262.718 523.605 260.208 522.282 257.79C513.244 242.213 498.984 227.863 483.328 220.721C471.478 215.862 458.273 219.189 448.118 226.852C444.747 229.781 442.555 228.726 439.277 226.137C427.861 217.917 412.929 215.499 400.438 222.731C388.391 229.225 370.481 246.391 365.807 260.243C365.807 261.821 366.686 263.285 367.554 264.546C370.222 268.372 372.859 272.652 375.817 275.763C377.957 278.022 379.829 277.511 381.028 274.582C389.632 254.668 421.346 224.627 433.28 253.385C435.524 259.187 434.913 265.738 431.801 271.028C428.502 276.864 422.246 279.498 418.027 284.312L417.882 284.471L417.872 284.493ZM416.155 254.668C409.537 255.962 411.316 268.122 417.882 266.816C425.069 265.125 423.497 253.238 416.373 254.611L416.155 254.657V254.668ZM466.959 256.292C463.05 260.39 467.569 268.712 472.677 266.51C475.232 265.363 477.548 261.401 476.214 258.381C474.766 254.691 469.813 253.192 467.104 256.133L466.959 256.292Z" fill="#60489C"/>
<path d="M208.629 373.744C228.814 370.679 249.909 384.689 256.754 405.784C257.344 407.748 257.499 409.394 256.713 411.177C255.348 414.276 251.47 418.727 249.102 421.894C245.421 427.117 243.001 419.079 240.747 416.467C234.346 407.873 224.936 401.061 215.392 397.246C211.783 395.804 207.998 394.941 204.213 394.271C202.362 393.783 199.612 393.919 198.516 392.239C197.916 390.934 198.567 389.151 198.95 387.596C199.467 385.745 200.139 383.781 200.822 381.976C202.621 376.923 204.131 374.392 208.422 373.79L208.619 373.756L208.629 373.744Z" fill="#60489C"/>
<path d="M196.737 408.396C208.639 406.647 224.285 415.594 231.575 425.744C233.726 429.013 237.728 432.896 233.043 435.78C217.336 446.974 198.847 442.093 195.641 420.566C195.331 417.16 193.925 410.678 196.603 408.475L196.737 408.396Z" fill="#60489C"/>
<path d="M467.104 256.133C469.813 253.193 474.766 254.691 476.214 258.381C477.548 261.401 475.232 265.363 472.678 266.51C467.569 268.713 463.061 260.391 466.959 256.292L467.104 256.133Z" fill="white"/>
<path d="M416.373 254.61C423.497 253.236 425.069 265.123 417.882 266.815C411.316 268.121 409.538 255.961 416.156 254.667L416.373 254.622V254.61Z" fill="white"/>
<path d="M441.862 284.835C446.743 284.177 454.385 285.812 457.363 290.387C457.756 291.227 457.187 291.954 456.649 292.556C455.729 293.589 454.861 294.542 453.806 295.7C451.686 298.039 448.884 301.15 446.888 303.353C445.016 305.135 444.696 306.793 443.32 305.26C441.076 302.774 433.807 295.065 431.098 291.886C429.878 290.035 432.576 288.673 433.879 287.64C436.216 286.13 439.05 285.176 441.676 284.835L441.873 284.813L441.862 284.835Z" fill="#60489C"/>
<path d="M473.453 250.799C467.704 251.355 459.865 263.98 465.15 269.021C467.817 270.894 471.095 269.146 473.991 268.521C475.325 268.203 476.659 268.056 478.013 267.897C481.116 267.284 486.4 267.783 487.982 264.514C489.543 257.157 479.616 249.618 473.639 250.765L473.453 250.799Z" fill="#60489C"/>
<path d="M480.092 267.557C484.859 261.006 476.493 251.526 470.134 255.897C466.277 258.202 464.694 264.821 467.931 268.352C470.795 270.963 477.424 270.214 479.968 267.705L480.092 267.557Z" fill="#60489C"/>
<path d="M415.959 250.478C421.708 251.035 429.547 263.66 424.263 268.701C421.595 270.574 418.317 268.826 415.421 268.201C414.087 267.883 412.753 267.736 411.399 267.577C408.297 266.964 403.012 267.463 401.43 264.193C399.869 256.836 409.796 249.298 415.773 250.444L415.959 250.478Z" fill="#60489C"/>
<path d="M409.32 267.237C404.553 260.686 412.919 251.206 419.278 255.577C423.135 257.882 424.718 264.501 421.481 268.032C418.617 270.643 411.988 269.894 409.444 267.385L409.32 267.237Z" fill="#60489C"/>
<path d="M427.388 260.339C426.96 272.991 408.741 273.742 407.349 261.111C406.621 247.312 426.757 246.368 427.388 260.135V260.35V260.339Z" fill="white"/>
<path d="M425.269 261.711C424.744 272.519 408.944 271.811 409.458 260.96C410.432 251.01 424.948 251.525 425.269 261.507V261.711Z" fill="#60489C"/>
<path d="M483.715 260.357C483.083 274.124 462.958 273.169 463.676 259.381C465.057 246.74 483.287 247.501 483.715 260.153V260.367V260.357Z" fill="white"/>
<path d="M481.553 261.428C481.232 271.41 466.716 271.925 465.742 261.975C465.228 251.124 481.028 250.417 481.553 261.225V261.428Z" fill="#60489C"/>
</g>
<path d="M594.669 43.3572C597.597 41.6583 601.348 42.6405 603.068 45.5565L616.629 68.5505C617.623 70.2358 619.359 71.3489 621.305 71.5493L647.86 74.2842C651.227 74.631 653.684 77.6301 653.362 81.0001L650.818 107.574C650.631 109.522 651.381 111.442 652.838 112.748L672.713 130.569C675.234 132.829 675.459 136.7 673.217 139.237L655.539 159.24C654.243 160.706 653.721 162.7 654.132 164.613L659.737 190.714C660.448 194.024 658.355 197.287 655.05 198.022L628.991 203.814C627.081 204.238 625.486 205.545 624.694 207.334L613.887 231.744C612.516 234.84 608.905 236.249 605.799 234.901L581.312 224.27C579.518 223.491 577.459 223.61 575.767 224.592L552.676 237.988C549.748 239.687 545.997 238.705 544.278 235.789L530.716 212.795C529.722 211.109 527.987 209.996 526.04 209.796L499.486 207.061C496.118 206.714 493.661 203.715 493.984 200.345L496.528 173.771C496.714 171.824 495.964 169.903 494.508 168.597L474.632 150.776C472.111 148.516 471.886 144.645 474.128 142.109L491.806 122.105C493.102 120.639 493.624 118.645 493.213 116.732L487.608 90.6316C486.898 87.3217 488.991 84.0583 492.295 83.3237L518.355 77.5315C520.265 77.107 521.86 75.8005 522.652 74.0114L533.459 49.6013C534.829 46.5057 538.441 45.0958 541.546 46.4441L566.033 57.0754C567.828 57.8546 569.886 57.735 571.578 56.7531L594.669 43.3572Z" fill="#FF5837"/>
<path d="M517.944 131.126C515.841 130.105 514.181 128.752 512.964 127.066C511.76 125.354 511.057 123.48 510.857 121.441C510.694 119.39 511.098 117.363 512.069 115.362L520.037 98.9418L525.016 101.358L517.214 117.436C516.637 118.627 516.386 119.82 516.463 121.016C516.578 122.199 516.956 123.29 517.598 124.29C518.24 125.29 519.093 126.048 520.157 126.565C521.323 127.131 522.509 127.362 523.718 127.26C524.926 127.157 526.017 126.779 526.992 126.125C528.004 125.458 528.799 124.529 529.377 123.338L537.179 107.26L541.968 109.584L534 126.004C533.029 128.006 531.675 129.571 529.937 130.7C528.237 131.816 526.342 132.431 524.253 132.544C522.175 132.631 520.072 132.159 517.944 131.126ZM535.045 139.143L548.694 111.016L553.331 113.267L547.41 125.467L546.315 125.499C547.011 124.71 547.905 124.126 548.996 123.748C550.1 123.344 551.269 123.161 552.504 123.196C553.739 123.232 554.889 123.508 555.953 124.025C557.473 124.762 558.593 125.681 559.311 126.781C560.055 127.894 560.385 129.181 560.302 130.643C560.243 132.117 559.772 133.767 558.886 135.591L552.947 147.83L548.272 145.562L554.045 133.665C554.537 132.651 554.804 131.747 554.845 130.953C554.898 130.134 554.707 129.431 554.272 128.844C553.849 128.232 553.213 127.735 552.364 127.355C551.68 127.023 550.991 126.829 550.298 126.775C549.642 126.707 549 126.771 548.373 126.968C547.783 127.151 547.239 127.435 546.739 127.818C546.265 128.215 545.881 128.717 545.586 129.325L539.72 141.412L537.402 140.286C536.946 140.065 536.515 139.856 536.109 139.659C535.729 139.475 535.375 139.303 535.045 139.143ZM581.51 162.16C579.609 161.238 578.014 160.041 576.725 158.57C575.435 157.099 574.477 155.46 573.851 153.654C573.262 151.834 573.045 149.928 573.197 147.936C573.35 145.944 573.906 143.96 574.865 141.983C575.824 140.007 577.039 138.342 578.509 136.99C579.98 135.637 581.605 134.641 583.387 134.003C585.205 133.352 587.092 133.077 589.045 133.18C590.999 133.283 592.926 133.795 594.827 134.718C596.752 135.652 598.36 136.855 599.65 138.326C600.94 139.797 601.879 141.443 602.467 143.262C603.055 145.082 603.273 146.987 603.121 148.98C602.98 150.946 602.43 152.918 601.471 154.894C600.524 156.845 599.316 158.497 597.846 159.85C596.375 161.203 594.743 162.211 592.95 162.875C591.156 163.538 589.283 163.819 587.329 163.716C585.375 163.613 583.436 163.095 581.51 162.16ZM583.797 157.447C585.013 158.037 586.22 158.357 587.417 158.405C588.652 158.441 589.834 158.232 590.962 157.778C592.103 157.298 593.14 156.612 594.074 155.719C595.034 154.838 595.827 153.752 596.454 152.46C597.081 151.167 597.444 149.872 597.542 148.573C597.665 147.287 597.556 146.06 597.215 144.893C596.886 143.7 596.319 142.642 595.514 141.72C594.747 140.784 593.756 140.021 592.539 139.431C591.349 138.853 590.136 138.546 588.901 138.51C587.678 138.449 586.503 138.646 585.374 139.1C584.246 139.554 583.215 140.228 582.281 141.121C581.346 142.014 580.56 143.119 579.92 144.436C579.293 145.729 578.912 147.031 578.776 148.342C578.653 149.629 578.762 150.856 579.103 152.023C579.445 153.191 580.011 154.248 580.804 155.196C581.608 156.119 582.606 156.869 583.797 157.447ZM599.519 170.43L613.168 142.303L617.805 144.553L611.884 156.754L610.789 156.786C611.485 155.997 612.379 155.413 613.47 155.035C614.574 154.631 615.743 154.447 616.978 154.483C618.213 154.519 619.363 154.795 620.427 155.311C621.947 156.049 623.067 156.968 623.785 158.068C624.529 159.18 624.859 160.468 624.776 161.93C624.717 163.404 624.246 165.054 623.36 166.878L617.421 179.117L612.746 176.848L618.519 164.952C619.011 163.938 619.278 163.034 619.319 162.24C619.372 161.421 619.181 160.718 618.746 160.131C618.323 159.518 617.687 159.022 616.838 158.642C616.154 158.31 615.465 158.116 614.772 158.062C614.116 157.994 613.475 158.058 612.847 158.254C612.257 158.438 611.713 158.721 611.213 159.105C610.739 159.501 610.355 160.003 610.06 160.612L604.194 172.698L601.876 171.573C601.42 171.352 600.989 171.143 600.583 170.946C600.203 170.762 599.849 170.59 599.519 170.43ZM628.016 172.706C628.601 171.049 629.211 169.342 629.845 167.583C630.517 165.812 631.202 164.078 631.9 162.381C632.61 160.66 633.328 159.052 634.053 157.557L635.4 154.782L640.341 157.18L638.994 159.954C638.244 161.5 637.407 163.097 636.481 164.746C635.582 166.407 634.637 168.03 633.648 169.616C632.685 171.215 631.745 172.7 630.829 174.071L628.016 172.706ZM624.606 183.12C623.694 182.678 623.114 182.067 622.865 181.289C622.642 180.523 622.764 179.659 623.231 178.696C623.662 177.809 624.266 177.21 625.043 176.899C625.858 176.574 626.696 176.621 627.558 177.039C628.47 177.481 629.037 178.086 629.261 178.851C629.522 179.604 629.412 180.475 628.933 181.463C628.502 182.35 627.88 182.955 627.065 183.28C626.287 183.592 625.468 183.538 624.606 183.12Z" fill="#FAF5EA"/>
</g>
<defs>
<filter id="filter0_d_447_9271" x="0" y="0" width="704" height="934" filterUnits="userSpaceOnUse" color-interpolation-filters="sRGB">
<feFlood flood-opacity="0" result="BackgroundImageFix"/>
<feColorMatrix in="SourceAlpha" type="matrix" values="0 0 0 0 0 0 0 0 0 0 0 0 0 0 0 0 0 0 127 0" result="hardAlpha"/>
<feOffset dy="4"/>
<feGaussianBlur stdDeviation="2"/>
<feComposite in2="hardAlpha" operator="out"/>
<feColorMatrix type="matrix" values="0 0 0 0 0 0 0 0 0 0 0 0 0 0 0 0 0 0 0.25 0"/>
<feBlend mode="normal" in2="BackgroundImageFix" result="effect1_dropShadow_447_9271"/>
<feBlend mode="normal" in="SourceGraphic" in2="effect1_dropShadow_447_9271" result="shape"/>
</filter>
<clipPath id="clip0_447_9271">
<rect width="333" height="252" fill="white" transform="translate(195 190)"/>
</clipPath>
</defs>
</svg>
