<svg width="834" height="1194" viewBox="0 0 834 1194" fill="none" xmlns="http://www.w3.org/2000/svg">
<g clip-path="url(#clip0_377_2216)">
<rect width="834" height="1194" fill="#FAF5EA"/>
<mask id="mask0_377_2216" style="mask-type:luminance" maskUnits="userSpaceOnUse" x="-140" y="-2" width="1196" height="1196">
<path d="M1056 -2H-140V1194H1056V-2Z" fill="white"/>
</mask>
<g mask="url(#mask0_377_2216)">
<path d="M1055.77 -39.4961H-140.227V1193.58H1055.77V-39.4961Z" fill="#AFC901" fill-opacity="0.2"/>
<path d="M917.025 558.42C902.948 527.743 888.859 497.065 874.782 466.388C871.66 459.595 861.411 457.562 855.431 461.317C826.846 479.281 798.274 497.245 769.69 515.209C776.136 516.895 782.594 518.593 789.041 520.28C774.964 489.602 760.875 458.925 746.798 428.248C743.677 421.454 733.427 419.421 727.447 423.176C698.862 441.14 670.29 459.104 641.706 477.068C626.337 486.732 640.51 511.214 655.986 501.491C684.57 483.527 713.143 465.563 741.727 447.599C735.281 445.913 728.822 444.214 722.376 442.528C736.453 473.205 750.542 503.883 764.619 534.56C767.74 541.353 777.99 543.386 783.97 539.631C812.554 521.667 841.127 503.703 869.711 485.739C863.265 484.053 856.806 482.355 850.36 480.668C864.437 511.346 878.525 542.023 892.602 572.7C900.185 589.217 924.571 574.865 917.025 558.42Z" fill="#EE755D"/>
<path d="M898.212 347.421C898.2 348.617 898.128 349.789 898.068 350.985C897.937 353.676 898.044 351.248 898.14 350.71C897.781 352.6 897.387 354.466 896.812 356.307C896.478 357.396 896.095 358.46 895.676 359.513C895.88 358.998 896.956 356.977 895.724 359.226C894.636 361.211 893.536 363.101 892.28 364.978C890.45 367.741 893.643 364.034 892.088 365.182C891.395 365.696 890.82 366.617 890.211 367.239C889.541 367.921 885.331 371.485 888.058 369.428C886.575 370.54 885.008 371.568 883.381 372.477C882.736 372.848 882.042 373.159 881.396 373.53C879.064 374.869 883.501 373.027 880.092 374.08C878.263 374.654 876.469 375.228 874.591 375.623C873.766 375.79 871.158 376.065 874.328 375.754C873.347 375.85 872.366 375.934 871.386 375.97C869.388 376.053 867.439 375.886 865.441 375.802C863.169 375.718 868.742 376.556 865.166 375.73C864.042 375.467 862.918 375.252 861.806 374.941C860.705 374.63 859.641 374.235 858.552 373.889C857.799 373.649 856.388 372.693 858.804 374.02C857.165 373.111 855.479 372.346 853.888 371.341C853.111 370.851 852.381 370.241 851.58 369.774C849.798 368.722 853.828 371.975 851.4 369.547C849.822 367.968 848.303 366.354 846.748 364.775C848.614 366.677 847.37 365.66 846.927 364.99C846.305 364.058 845.672 363.149 845.097 362.18C844.595 361.343 842.275 356.307 843.531 359.525C842.837 357.755 842.239 355.949 841.773 354.107C841.581 353.365 841.45 352.612 841.27 351.858C840.624 349.084 841.354 354.167 841.103 350.399C840.983 348.617 840.959 346.823 841.067 345.041C841.103 344.359 841.773 340.676 841.067 344.144C841.222 343.391 841.342 342.625 841.509 341.872C841.928 340.006 842.538 338.212 843.124 336.394C844.236 332.95 841.689 338.75 843.483 335.629C844.045 334.66 844.511 333.643 845.097 332.674C845.576 331.873 846.102 331.108 846.604 330.33C847.059 329.613 848.745 327.855 846.748 330.091C847.992 328.704 849.2 327.328 850.575 326.061C850.623 326.025 853.338 323.573 851.687 325.008C850.073 326.419 852.86 324.195 852.943 324.135C854.809 322.879 856.782 321.851 858.792 320.846C858.325 321.073 856.065 321.815 858.54 320.978C859.617 320.607 860.693 320.236 861.794 319.925C862.535 319.722 863.277 319.53 864.018 319.363C864.09 319.351 867.821 318.669 865.561 319.016C863.301 319.363 867.104 318.92 867.188 318.92C868.18 318.861 869.173 318.849 870.166 318.861C871.158 318.873 872.139 318.968 873.132 319.004C876.433 319.124 871.087 318.406 873.993 319.136C876.229 319.698 878.406 320.272 880.595 320.978C883.812 322.018 879.291 319.901 880.858 321.097C881.839 321.851 883.238 322.305 884.314 322.951C884.948 323.334 885.582 323.728 886.204 324.147C886.826 324.566 887.424 324.996 888.022 325.439C886.635 324.362 886.539 324.326 887.747 325.331C889.05 326.635 890.366 327.95 891.682 329.266C894.205 331.789 890.258 326.91 892.232 329.9C892.854 330.833 893.488 331.742 894.062 332.71C894.636 333.679 895.114 334.684 895.676 335.664C897.123 338.188 895.054 333.404 896.035 336.43C896.753 338.631 897.315 340.795 897.877 343.032C898.056 343.737 898.128 345.711 897.901 342.721C898.02 344.3 898.14 345.866 898.164 347.457C898.26 354.848 904.599 361.941 912.301 361.594C919.871 361.259 926.557 355.375 926.437 347.457C926.103 323.286 911.153 302.416 888.644 293.924C867.212 285.839 840.899 292.824 826.368 310.548C811.131 329.146 808.105 355.506 820.639 376.484C833.149 397.414 857.249 407.412 880.93 403.143C907.349 398.395 926.067 373.697 926.425 347.457C926.521 340.054 919.848 332.973 912.289 333.32C904.539 333.667 898.26 339.528 898.152 347.457L898.212 347.421Z" fill="#8CDCE4"/>
<path d="M989.885 823.388C969.637 831.593 949.377 839.809 929.128 848.014C918.52 852.319 907.72 855.836 897.351 848.396C884.135 838.912 883.357 818.532 896.37 808.45C897.889 807.278 899.599 806.417 901.262 805.496C904.096 803.917 899.611 806.13 901.704 805.209C903.941 804.228 906.225 803.379 908.485 802.458C914.944 799.839 921.402 797.22 927.861 794.6C945.131 787.604 958.813 776.768 964.446 758.23C977.195 716.322 933.888 677.966 893.787 693.837C871.744 702.568 849.834 711.658 827.851 720.556C820.783 723.426 815.783 729.98 817.972 737.958C819.814 744.667 828.246 750.719 835.374 747.837C855.622 739.632 875.882 731.416 896.131 723.211C906.739 718.905 917.539 715.389 927.908 722.828C941.124 732.313 941.902 752.692 928.889 762.775C927.37 763.947 925.66 764.808 923.997 765.729C921.163 767.308 925.648 765.107 923.555 766.016C921.318 766.997 919.034 767.846 916.774 768.767L897.398 776.624C880.128 783.621 866.446 794.457 860.813 812.995C848.063 854.903 891.37 893.258 931.472 877.387C953.515 868.657 975.425 859.567 997.408 850.669C1004.48 847.798 1009.48 841.244 1007.29 833.267C1005.44 826.557 997.013 820.506 989.885 823.388Z" fill="#6447A1"/>
<path d="M546.384 787.655C520.407 761.295 494.43 734.948 468.453 708.588C462.832 702.883 454.173 703.576 448.456 708.588C420.601 732.95 392.758 757.313 364.903 781.687H384.9C358.923 755.327 332.946 728.98 306.969 702.62C301.348 696.915 292.689 697.608 286.972 702.62C259.117 726.982 231.274 751.345 203.419 775.719H223.416C197.439 749.359 171.462 723.012 145.485 696.652C139.864 690.947 131.205 691.64 125.488 696.652C97.6331 721.014 69.7902 745.377 41.9354 769.751C28.2053 781.759 48.2862 801.696 61.9326 789.748C89.7874 765.386 117.63 741.023 145.485 716.649H125.488C151.465 743.009 177.442 769.357 203.419 795.716C209.041 801.421 217.7 800.728 223.416 795.716C251.271 771.354 279.114 746.991 306.969 722.617H286.972C312.949 748.977 338.926 775.325 364.903 801.684C370.524 807.389 379.183 806.696 384.9 801.684C412.755 777.322 440.598 752.959 468.453 728.585H448.456C474.433 754.945 500.41 781.293 526.387 807.652C539.184 820.641 559.182 800.632 546.384 787.655Z" fill="#EE755D"/>
<path d="M319.025 1156.42C304.948 1125.74 290.859 1095.07 276.782 1064.39C273.66 1057.59 263.411 1055.56 257.431 1059.32C228.846 1077.28 200.274 1095.24 171.689 1113.21C178.136 1114.9 184.594 1116.59 191.041 1118.28C176.964 1087.6 162.875 1056.92 148.798 1026.25C145.676 1019.45 135.427 1017.42 129.447 1021.18C100.862 1039.14 72.2898 1057.1 43.7054 1075.07C28.3368 1084.73 42.5094 1109.21 57.9857 1099.49C86.5701 1081.53 115.143 1063.56 143.727 1045.6C137.28 1043.91 130.822 1042.21 124.376 1040.53C138.453 1071.21 152.541 1101.88 166.618 1132.56C169.74 1139.35 179.99 1141.39 185.97 1137.63C214.554 1119.67 243.126 1101.7 271.711 1083.74C265.264 1082.05 258.806 1080.35 252.36 1078.67C266.437 1109.35 280.525 1140.02 294.602 1170.7C302.185 1187.22 326.571 1172.87 319.025 1156.42Z" fill="#EE755D"/>
<path d="M45.7984 980.393C37.0197 955.409 28.2292 930.412 19.4505 905.428C18.2186 901.912 16.9748 898.396 15.7429 894.879C13.2791 887.871 3.01748 885 -3.16584 888.349C-10.5332 892.344 -12.3272 899.759 -9.69599 907.258C-0.917353 932.242 7.87321 957.239 16.6518 982.223C17.8837 985.739 19.1276 989.256 20.3595 992.772C22.8233 999.78 33.0849 1002.65 39.2683 999.302C46.6356 995.307 48.4296 987.892 45.7984 980.393Z" fill="#AFC901"/>
<path d="M123.18 907.644C100.408 894.153 77.636 880.674 54.8642 867.183C51.635 865.27 48.4058 863.356 45.1766 861.455C38.8258 857.687 29.7602 858.273 25.5024 865.043C21.6513 871.154 22.2971 880.698 29.0904 884.717C51.8622 898.208 74.6341 911.687 97.4059 925.178C100.635 927.091 103.864 929.005 107.093 930.918C113.444 934.686 122.51 934.1 126.768 927.33C130.619 921.219 129.973 911.675 123.18 907.656V907.644Z" fill="#AFC901"/>
<path d="M395.473 600.375C389.935 595.292 380.93 594.659 375.476 600.375C373.646 602.301 371.697 604.071 369.663 605.757C369.269 606.044 368.563 606.571 368.168 606.834C366.853 607.719 365.501 608.544 364.114 609.321C362.918 609.991 361.638 610.529 360.442 611.199C360.358 611.247 360.382 611.235 360.323 611.271C359.868 611.45 359.414 611.63 358.959 611.797C356.412 612.73 353.792 613.472 351.149 614.046C350.396 614.213 349.63 614.345 348.877 614.488C348.805 614.5 348.65 614.524 348.47 614.548C348.291 614.572 348.111 614.584 348.052 614.584C347.286 614.632 346.521 614.715 345.743 614.751C343.052 614.895 340.349 614.859 337.658 614.632C337.216 614.596 336.773 614.548 336.331 614.5C336.283 614.488 336.307 614.5 336.247 614.476C334.931 614.153 333.58 613.974 332.264 613.651C329.872 613.065 327.54 612.264 325.232 611.391C324.718 611.151 323.522 610.625 323.019 610.374C321.775 609.74 320.568 609.07 319.372 608.341C318.343 607.719 317.35 607.037 316.346 606.379C316.035 606.176 315.939 606.116 315.772 606.009C315.305 605.626 314.827 605.243 314.372 604.86C312.184 602.983 310.138 600.949 308.249 598.773C307.782 598.235 306.802 596.883 306.909 597.062C306.18 596.01 305.438 594.969 304.768 593.881C304.039 592.709 303.369 591.501 302.723 590.281C302.532 589.91 301.946 588.643 301.659 588.069C300.762 585.808 299.972 583.5 299.362 581.132C299.028 579.816 298.741 578.501 298.501 577.173C298.43 576.802 298.37 576.431 298.31 576.061C298.31 575.929 298.31 575.941 298.286 575.774C298.095 573.083 297.975 570.392 298.095 567.701C298.143 566.529 298.262 565.357 298.394 564.196C298.477 563.885 298.812 561.864 298.968 561.147C299.59 558.384 300.499 555.717 301.479 553.062C301.719 552.595 302.52 550.741 302.783 550.239C303.429 549.007 304.123 547.799 304.852 546.615C305.271 545.933 305.713 545.264 306.168 544.594C306.239 544.474 306.646 543.888 306.909 543.494C307.053 543.29 307.196 543.111 307.232 543.063C308.033 542.118 308.847 541.185 309.684 540.276C314.671 534.823 315.485 525.601 309.684 520.279C304.242 515.292 295.021 514.455 289.687 520.279C268.829 543.075 264.033 575.786 277.763 603.521C290.811 629.893 321.13 646.278 350.324 642.642C367.582 640.489 383.358 633.062 395.449 620.384C400.556 615.026 401.166 605.638 395.449 600.387L395.473 600.375Z" fill="#86BEFF"/>
<path d="M391.275 946.903C387.807 934.979 388.775 922.923 394.516 912.446C400.125 902.221 409.263 894.435 420.374 891.038C443.672 883.922 468.692 896.6 476.227 920.149C478.559 927.42 486.046 932.109 493.629 930.028C500.781 928.066 505.84 919.933 503.508 912.626C494.155 883.408 468.608 863.04 437.943 860.839C407.6 858.662 378.538 877.452 366.805 905.175C360.191 920.807 359.258 938.113 363.994 954.414C369.065 971.852 396.37 964.437 391.263 946.891L391.275 946.903Z" fill="#46BF83"/>
<path d="M251.965 210.973C252.742 210.387 253.544 209.813 254.345 209.263C253.28 209.909 253.472 209.801 254.931 208.928C256.593 208.007 258.256 207.11 259.99 206.321C261.7 205.543 263.435 204.849 265.205 204.24C262.849 205.041 266.365 203.952 266.927 203.821C268.721 203.39 270.527 203.043 272.345 202.792C272.859 202.721 278.289 202.242 275.383 202.362C278.552 202.23 281.781 202.469 284.915 202.912C285.417 202.984 290.536 204.048 288.036 203.402C289.806 203.857 291.553 204.407 293.263 205.029C294.554 205.495 295.834 206.01 297.078 206.56C297.915 206.931 298.752 207.325 299.566 207.732C298.406 207.11 298.561 207.206 300.008 208.019C302.974 209.897 305.869 211.834 308.512 214.166C309.241 214.8 309.229 214.788 308.464 214.13C309.146 214.8 309.815 215.494 310.461 216.2C311.777 217.623 313.021 219.118 314.193 220.673C315.987 223.053 316.465 223.758 318.235 227.418C319.061 229.116 319.718 230.862 320.448 232.609C321.01 234.247 321.07 234.367 320.627 232.967C320.89 233.852 321.118 234.749 321.333 235.646C322.086 238.78 322.529 241.949 322.792 245.167C322.553 242.32 322.768 247.642 322.744 248.216C322.66 250.034 322.493 251.852 322.242 253.658C322.051 255.01 321.823 256.361 321.536 257.689C322.086 255.177 320.735 260.236 320.579 260.715C319.993 262.449 319.336 264.159 318.594 265.833C318.223 266.671 317.829 267.508 317.422 268.321C318.044 267.161 317.948 267.317 317.135 268.764C312.877 275.569 310.485 278.308 304.493 282.948C298.453 287.625 297.975 297.193 302.747 302.874C307.83 308.925 316.621 309.308 322.672 304.62C345.851 286.668 356.627 255.129 348.111 226.88C339.333 197.721 313.152 175.691 282.284 174.268C264.595 173.454 247.958 178.848 233.75 189.301C227.602 193.834 227.327 203.641 232.004 209.227C237.182 215.386 245.758 215.506 251.929 210.973H251.965Z" fill="#FFC2F7"/>
<path d="M122.869 466.618C93.2078 452.003 63.5351 437.388 33.8743 422.773C29.6046 420.668 25.3348 418.563 21.0651 416.458C14.212 413.085 5.81613 414.401 1.66601 421.338C-2.01767 427.485 -0.343282 437.352 6.54568 440.737C36.2065 455.352 65.8792 469.967 95.54 484.582C99.8098 486.687 104.079 488.792 108.349 490.897C115.202 494.27 123.598 492.954 127.748 486.018C131.432 479.87 129.758 470.003 122.869 466.618Z" fill="#EE755D"/>
<path d="M145.485 420.704C115.824 406.089 86.1515 391.474 56.4907 376.859C52.221 374.754 47.9513 372.649 43.6816 370.544C36.8285 367.171 28.4326 368.487 24.2825 375.424C20.5988 381.571 22.2732 391.438 29.1622 394.823C58.823 409.438 88.4957 424.053 118.156 438.668C122.426 440.773 126.696 442.878 130.966 444.983C137.819 448.356 146.215 447.04 150.365 440.103C154.048 433.956 152.374 424.089 145.485 420.704Z" fill="#EE755D"/>
<path d="M278.66 408.909C278.648 410.105 278.576 411.278 278.516 412.474C278.385 415.165 278.492 412.737 278.588 412.198C278.229 414.088 277.834 415.954 277.26 417.796C276.926 418.884 276.543 419.949 276.124 421.001C276.328 420.487 277.404 418.465 276.172 420.714C275.084 422.699 273.983 424.589 272.728 426.467C270.898 429.229 274.091 425.522 272.536 426.67C271.843 427.184 271.268 428.105 270.658 428.727C269.989 429.409 265.779 432.973 268.506 430.916C267.023 432.028 265.456 433.057 263.829 433.966C263.184 434.336 262.49 434.647 261.844 435.018C259.512 436.358 263.949 434.504 260.54 435.568C258.71 436.142 256.916 436.716 255.039 437.111C254.213 437.279 251.606 437.554 254.776 437.243C253.795 437.338 252.814 437.422 251.833 437.458C249.836 437.542 247.887 437.374 245.889 437.291C243.617 437.207 249.19 438.044 245.614 437.219C244.49 436.956 243.366 436.74 242.253 436.429C241.153 436.118 240.089 435.724 239 435.377C238.247 435.138 236.836 434.181 239.251 435.508C237.613 434.599 235.927 433.834 234.336 432.829C233.559 432.339 232.829 431.729 232.028 431.263C230.246 430.21 234.276 433.463 231.848 431.035C230.27 429.457 228.751 427.842 227.196 426.263C229.062 428.165 227.818 427.148 227.375 426.479C226.753 425.546 226.119 424.637 225.545 423.668C225.043 422.831 222.723 417.796 223.979 421.013C223.285 419.243 222.687 417.437 222.22 415.595C222.029 414.854 221.898 414.1 221.718 413.347C221.084 410.572 221.802 415.655 221.551 411.887C221.431 410.105 221.407 408.311 221.515 406.529C221.551 405.848 222.22 402.164 221.515 405.632C221.67 404.879 221.79 404.114 221.957 403.36C222.376 401.494 222.986 399.7 223.572 397.882C224.684 394.438 222.137 400.238 223.931 397.117C224.493 396.148 224.959 395.132 225.545 394.163C226.024 393.361 226.55 392.596 227.052 391.819C227.507 391.101 229.193 389.343 227.196 391.579C228.44 390.192 229.648 388.817 231.023 387.549C231.071 387.513 233.786 385.061 232.135 386.496C230.521 387.908 233.307 385.683 233.391 385.623C235.257 384.368 237.23 383.339 239.24 382.334C238.773 382.562 236.513 383.303 238.988 382.466C240.065 382.095 241.141 381.724 242.241 381.413C242.983 381.21 243.725 381.019 244.466 380.851C244.538 380.839 248.269 380.158 246.009 380.504C243.748 380.851 247.552 380.409 247.635 380.409C248.628 380.349 249.621 380.337 250.613 380.349C251.606 380.361 252.587 380.457 253.58 380.492C256.881 380.612 251.534 379.894 254.441 380.624C256.677 381.186 258.854 381.76 261.043 382.466C264.26 383.506 259.739 381.389 261.306 382.585C262.286 383.339 263.686 383.793 264.762 384.439C265.396 384.822 266.03 385.217 266.652 385.635C267.274 386.054 267.872 386.484 268.47 386.927C267.082 385.851 266.987 385.815 268.195 386.819C269.498 388.123 270.814 389.439 272.13 390.754C274.653 393.278 270.706 388.398 272.68 391.388C273.302 392.321 273.936 393.23 274.51 394.199C275.084 395.167 275.562 396.172 276.124 397.153C277.571 399.676 275.502 394.892 276.483 397.918C277.201 400.119 277.763 402.284 278.325 404.52C278.504 405.226 278.576 407.199 278.349 404.209C278.468 405.788 278.588 407.355 278.612 408.945C278.708 416.337 285.046 423.429 292.749 423.082C300.319 422.747 307.005 416.863 306.885 408.945C306.55 384.774 291.6 363.904 269.092 355.412C247.659 347.327 221.347 354.312 206.816 372.037C191.579 390.635 188.553 416.994 201.087 437.972C213.597 458.902 237.697 468.901 261.377 464.631C287.797 459.883 306.515 435.186 306.873 408.945C306.969 401.542 300.295 394.462 292.737 394.809C284.987 395.155 278.708 401.016 278.6 408.945L278.66 408.909Z" fill="#FFA216"/>
<path d="M399.659 391.162C399.671 388.662 399.779 386.175 400.018 383.687C400.09 382.981 400.161 382.288 400.245 381.582C399.97 383.603 399.946 383.819 400.197 382.228C400.388 381.199 400.556 380.171 400.771 379.154C401.262 376.798 401.872 374.454 402.577 372.158C402.984 370.854 403.414 369.562 403.893 368.283C404.192 367.481 405.161 364.419 403.977 367.876C405.472 363.522 408.186 359.277 410.734 355.473C411.38 354.505 412.157 353.596 412.755 352.603C413.377 351.766 413.15 352.065 412.061 353.476C412.48 352.95 412.899 352.436 413.329 351.921C414.824 350.127 416.403 348.393 418.053 346.743C419.704 345.092 421.438 343.513 423.232 342.018C423.746 341.588 424.261 341.169 424.787 340.751C424.368 341.085 423.938 341.408 423.519 341.743C424.32 340.822 425.792 340.093 426.796 339.423C430.587 336.888 434.857 334.149 439.199 332.666C435.623 333.886 438.995 332.809 439.605 332.582C440.885 332.103 442.177 331.673 443.48 331.266C445.789 330.549 448.121 329.951 450.477 329.46C451.494 329.245 452.534 329.09 453.551 328.886C456.457 328.312 450.668 329.161 454.484 328.767C457.151 328.492 459.806 328.372 462.485 328.348C469.876 328.3 476.968 321.878 476.622 314.211C476.275 306.593 470.402 300.015 462.485 300.075C438.457 300.242 415.087 309.726 398.056 326.757C381.025 343.788 371.529 367.158 371.374 391.186C371.326 398.589 377.916 405.669 385.51 405.323C393.213 404.976 399.599 399.115 399.647 391.186L399.659 391.162Z" fill="#46BF83"/>
<path d="M568.773 386.964C576.165 361.645 583.556 336.313 590.959 310.994C592.036 307.31 593.112 303.627 594.188 299.943C596.257 292.839 591.677 284.228 584.309 282.541C576.739 280.819 569.132 284.814 566.908 292.42C559.516 317.739 552.125 343.071 544.722 368.39C543.645 372.074 542.569 375.757 541.493 379.441C539.424 386.545 544.004 395.157 551.372 396.843C558.942 398.565 566.549 394.57 568.773 386.964Z" fill="#FFA216"/>
<path d="M673.244 369.183C662.588 344.928 651.931 320.685 641.275 296.43C639.78 293.021 638.273 289.601 636.778 286.192C633.788 279.399 623.335 277.306 617.427 281.121C610.382 285.666 609.162 293.201 612.356 300.472C623.012 324.727 633.668 348.97 644.325 373.225C645.82 376.634 647.327 380.054 648.822 383.463C651.812 390.256 662.265 392.349 668.173 388.534C675.217 383.989 676.437 376.454 673.244 369.183Z" fill="#FFA216"/>
<path d="M744.861 290.745C721.132 279.024 697.391 267.315 673.663 255.595C670.302 253.932 666.929 252.27 663.568 250.607C656.942 247.342 647.961 248.61 644.217 255.678C640.844 262.065 642.208 271.525 649.288 275.03C673.017 286.75 696.757 298.459 720.486 310.18C723.847 311.842 727.219 313.505 730.58 315.167C737.206 318.432 746.188 317.165 749.932 310.096C753.304 303.71 751.941 294.249 744.861 290.745Z" fill="#FFA216"/>
<path d="M730.114 646.243C717.819 661.121 705.512 676.012 693.217 690.89C688.637 696.427 684.211 702.156 679.451 707.55C668.209 720.264 649.587 723.457 636.527 711.126C613.336 689.216 640.079 664.937 654.084 647.846C675.995 621.079 676.736 582.807 646.777 561.076C632.138 550.456 612.272 547.382 595.145 553.446C582.001 558.098 573.139 566.972 564.54 577.378C558.428 584.781 552.58 592.543 546.085 599.611C534.281 612.444 513.65 613.497 502.049 599.48C482.925 576.361 509.356 554.079 523.146 537.06C545.583 509.361 542.808 468.362 510.48 448.999C492.935 438.486 469.96 438.618 452.427 449.035C443.158 454.548 436.926 462.574 430.205 470.706C416.032 487.857 401.86 505.008 387.687 522.146C376.17 536.08 396.071 556.196 407.684 542.143C419.979 527.265 432.286 512.375 444.581 497.497C449.161 491.959 453.587 486.23 458.347 480.836C469.589 468.123 488.211 464.93 501.271 477.272C524.462 499.183 497.719 523.462 483.714 540.553C461.803 567.319 461.062 605.591 491.021 627.323C505.661 637.943 525.526 641.017 542.653 634.953C555.797 630.301 564.659 621.426 573.258 611.021C579.37 603.618 585.218 595.856 591.713 588.787C603.517 575.954 624.148 574.902 635.75 588.919C654.874 612.038 628.442 634.319 614.652 651.338C592.215 679.038 594.99 720.036 627.318 739.4C644.863 749.913 667.838 749.781 685.372 739.364C694.641 733.85 700.872 725.825 707.593 717.692C721.766 700.542 735.938 683.391 750.111 666.252C761.629 652.319 741.727 632.202 730.114 646.255V646.243Z" fill="#FFC2F7"/>
<path d="M734.061 985.237C703.001 996.587 671.94 1007.94 640.868 1019.29C636.395 1020.93 631.922 1022.55 627.449 1024.19C620.273 1026.81 615.429 1033.79 617.57 1041.59C619.472 1048.51 627.76 1054.1 634.972 1051.47C666.032 1040.12 697.092 1028.77 728.164 1017.42C732.637 1015.78 737.111 1014.16 741.584 1012.52C748.76 1009.9 753.603 1002.91 751.463 995.116C749.561 988.203 741.273 982.606 734.061 985.237Z" fill="#FFC2F7"/>
<path d="M716.491 937.17C685.431 948.52 654.371 959.87 623.299 971.22C618.826 972.859 614.353 974.486 609.88 976.124C602.704 978.743 597.86 985.728 600.001 993.526C601.903 1000.44 610.191 1006.04 617.403 1003.4C648.463 992.055 679.523 980.705 710.595 969.355C715.068 967.716 719.541 966.09 724.014 964.451C731.19 961.832 736.034 954.847 733.893 947.049C731.992 940.136 723.703 934.539 716.491 937.17Z" fill="#FFC2F7"/>
<path d="M890.605 1004.18C890.593 1005.38 890.521 1006.55 890.462 1007.75C890.33 1010.44 890.438 1008.01 890.533 1007.47C890.175 1009.36 889.78 1011.23 889.206 1013.07C888.871 1014.16 888.488 1015.22 888.07 1016.27C888.273 1015.76 889.349 1013.74 888.117 1015.99C887.029 1017.97 885.929 1019.86 884.673 1021.74C882.843 1024.5 886.036 1020.8 884.482 1021.94C883.788 1022.46 883.214 1023.38 882.604 1024C881.934 1024.68 877.724 1028.25 880.451 1026.19C878.968 1027.3 877.401 1028.33 875.775 1029.24C875.129 1029.61 874.435 1029.92 873.789 1030.29C871.457 1031.63 875.894 1029.78 872.486 1030.84C870.656 1031.42 868.862 1031.99 866.984 1032.38C866.159 1032.55 863.552 1032.83 866.721 1032.52C865.74 1032.61 864.76 1032.7 863.779 1032.73C861.781 1032.82 859.832 1032.65 857.835 1032.56C855.562 1032.48 861.136 1033.32 857.56 1032.49C856.435 1032.23 855.311 1032.01 854.199 1031.7C853.099 1031.39 852.034 1031 850.946 1030.65C850.192 1030.41 848.781 1029.45 851.197 1030.78C849.558 1029.87 847.872 1029.11 846.281 1028.1C845.504 1027.61 844.774 1027 843.973 1026.54C842.191 1025.48 846.222 1028.74 843.794 1026.31C842.215 1024.73 840.696 1023.12 839.141 1021.54C841.007 1023.44 839.763 1022.42 839.321 1021.75C838.699 1020.82 838.065 1019.91 837.491 1018.94C836.988 1018.1 834.668 1013.07 835.924 1016.29C835.23 1014.52 834.632 1012.71 834.166 1010.87C833.974 1010.13 833.843 1009.37 833.664 1008.62C833.018 1005.85 833.747 1010.93 833.496 1007.16C833.377 1005.38 833.353 1003.58 833.46 1001.8C833.496 1001.12 834.166 997.437 833.46 1000.91C833.616 1000.15 833.735 999.387 833.903 998.633C834.321 996.768 834.931 994.974 835.517 993.156C836.63 989.711 834.082 995.512 835.876 992.39C836.438 991.422 836.905 990.405 837.491 989.436C837.969 988.635 838.495 987.869 838.998 987.092C839.452 986.374 841.139 984.616 839.141 986.853C840.385 985.465 841.593 984.09 842.968 982.822C843.016 982.786 845.731 980.335 844.081 981.77C842.466 983.181 845.253 980.957 845.337 980.897C847.202 979.641 849.176 978.612 851.185 977.608C850.718 977.835 848.458 978.577 850.934 977.739C852.01 977.369 853.087 976.998 854.187 976.687C854.928 976.484 855.67 976.292 856.412 976.125C856.483 976.113 860.215 975.431 857.954 975.778C855.694 976.125 859.497 975.682 859.581 975.682C860.574 975.622 861.566 975.61 862.559 975.622C863.552 975.634 864.532 975.73 865.525 975.766C868.826 975.885 863.48 975.168 866.386 975.897C868.623 976.46 870.799 977.034 872.988 977.739C876.205 978.78 871.684 976.663 873.251 977.859C874.232 978.612 875.631 979.067 876.708 979.713C877.342 980.095 877.975 980.49 878.597 980.909C879.219 981.327 879.817 981.758 880.415 982.2C879.028 981.124 878.932 981.088 880.14 982.093C881.444 983.396 882.759 984.712 884.075 986.028C886.598 988.551 882.652 983.671 884.625 986.661C885.247 987.594 885.881 988.503 886.455 989.472C887.029 990.441 887.508 991.445 888.07 992.426C889.517 994.95 887.448 990.166 888.428 993.192C889.146 995.392 889.708 997.557 890.27 999.793C890.45 1000.5 890.521 1002.47 890.294 999.483C890.414 1001.06 890.533 1002.63 890.557 1004.22C890.653 1011.61 896.992 1018.7 904.694 1018.36C912.265 1018.02 918.95 1012.14 918.831 1004.22C918.496 980.048 903.546 959.177 881.037 950.686C859.605 942.601 833.293 949.586 818.761 967.31C803.524 985.908 800.499 1012.27 813.033 1033.25C825.543 1054.18 849.642 1064.17 873.323 1059.9C899.743 1055.16 918.46 1030.46 918.819 1004.22C918.914 996.816 912.241 989.735 904.682 990.082C896.932 990.429 890.653 996.289 890.545 1004.22L890.605 1004.18Z" fill="#AFC901"/>
<path d="M814.468 851.188C803.644 813.789 764.989 791.232 727.1 801.231C688.78 811.349 668.221 851.188 677.143 888.599C686.161 885.824 695.167 883.061 704.185 880.287C693.361 842.888 654.706 820.331 616.817 830.33C578.497 840.448 557.938 880.287 566.86 917.697C571.082 935.41 598.123 927.062 593.901 909.385C588.448 886.554 602.238 863.172 625.117 857.359C648.439 851.439 670.649 866.15 677.143 888.575C682.238 906.192 708.383 897.868 704.185 880.263C698.731 857.431 712.521 834.049 735.4 828.237C758.722 822.317 780.932 837.027 787.426 859.452C792.485 876.938 819.539 868.673 814.468 851.14V851.188Z" fill="#1F7E8E"/>
<path d="M120.19 565.659C112.894 586.409 105.598 607.16 98.3028 627.922C94.655 638.292 89.1294 647.262 77.2053 649.295C61.2746 652.01 46.2528 638.28 48.1425 622.002C49.482 610.521 55.7969 598.477 59.5882 587.677C65.4247 571.088 64.9343 552.826 54.7085 537.911C42.019 519.397 18.9721 510.08 -2.96257 515.821C-21.3331 520.629 -34.1542 534.395 -40.4691 551.845C-48.5541 574.186 -56.2324 596.671 -64.114 619.084C-70.1538 636.247 -42.7894 643.47 -36.7735 626.356C-29.4779 605.605 -22.1823 584.854 -14.8867 564.092C-11.2389 553.723 -5.71336 544.753 6.21075 542.719C22.1415 540.004 37.1632 553.734 35.2735 570.012C33.934 581.494 27.6191 593.537 23.8278 604.337C17.9913 620.926 18.4817 639.189 28.7075 654.103C41.3971 672.617 64.444 681.934 86.3786 676.193C104.749 671.385 117.57 657.619 123.885 640.169C131.97 617.828 139.648 595.343 147.53 572.93C153.57 555.768 126.205 548.544 120.19 565.659Z" fill="#60489C"/>
<path d="M812.583 654.166C823.951 654.166 833.166 644.951 833.166 633.583C833.166 622.215 823.951 613 812.583 613C801.215 613 792 622.215 792 633.583C792 644.951 801.215 654.166 812.583 654.166Z" fill="#1F7E8E"/>
<path d="M340.66 1052.01C352.028 1052.01 361.243 1042.8 361.243 1031.43C361.243 1020.06 352.028 1010.85 340.66 1010.85C329.293 1010.85 320.077 1020.06 320.077 1031.43C320.077 1042.8 329.293 1052.01 340.66 1052.01Z" fill="#86BEFF"/>
<path d="M210.547 654.518C221.915 654.518 231.131 645.303 231.131 633.935C231.131 622.567 221.915 613.352 210.547 613.352C199.18 613.352 189.964 622.567 189.964 633.935C189.964 645.303 199.18 654.518 210.547 654.518Z" fill="#FFA216"/>
<path d="M-1.75747 834.663C0.0463059 823.439 -7.59011 812.878 -18.8139 811.074C-30.0376 809.271 -40.5985 816.907 -42.4023 828.131C-44.2061 839.354 -36.5697 849.915 -25.3459 851.719C-14.1222 853.523 -3.56126 845.887 -1.75747 834.663Z" fill="#86BEFF"/>
<path d="M132.114 48.2473C119.819 63.1256 107.512 78.0158 95.2172 92.894C90.6365 98.4315 86.2113 104.16 81.4512 109.554C70.2088 122.268 51.5872 125.461 38.5268 113.118C15.3364 91.2077 42.0789 66.9289 56.0841 49.838C77.9948 23.0716 78.7364 -15.2004 48.7766 -36.9317C34.1375 -47.5522 14.2719 -50.6259 -2.85481 -44.5622C-15.9989 -39.9098 -24.8612 -31.0355 -33.4604 -20.6303C-39.572 -13.227 -45.4204 -5.46501 -51.9147 1.60335C-63.7192 14.4364 -84.3503 15.4889 -95.9515 1.4718C-115.075 -21.6469 -88.6439 -43.9284 -74.854 -60.9474C-52.417 -88.6468 -55.1917 -129.646 -87.5196 -149.009C-105.065 -159.522 -128.04 -159.39 -145.573 -148.973C-154.842 -143.459 -161.074 -135.434 -167.795 -127.302C-181.968 -110.151 -196.14 -93.0002 -210.313 -75.8615C-221.83 -61.9282 -201.929 -41.8114 -190.316 -55.8644C-178.021 -70.7427 -165.714 -85.6329 -153.419 -100.511C-148.839 -106.049 -144.413 -111.777 -139.653 -117.171C-128.411 -129.885 -109.789 -133.078 -96.7288 -120.735C-73.5384 -98.8247 -100.281 -74.5459 -114.286 -57.4551C-136.209 -30.6886 -136.938 7.58336 -106.979 29.3147C-92.3395 39.9352 -72.474 43.0089 -55.3472 36.9452C-42.2032 32.2927 -33.3408 23.4184 -24.7416 13.0132C-18.63 5.60995 -12.7816 -2.15207 -6.28734 -9.22043C5.51718 -22.0535 26.1482 -23.106 37.7494 -9.08885C56.8734 14.0298 30.4418 36.3113 16.6519 53.3303C-5.78502 81.0297 -3.01027 122.029 29.3176 141.392C46.8629 151.905 69.8381 151.773 87.3714 141.356C96.6404 135.842 102.872 127.817 109.593 119.684C123.766 102.534 137.938 85.3831 152.111 68.2445C163.628 54.3111 143.727 34.1944 132.114 48.2473Z" fill="#60489C"/>
<path d="M225.88 109.428C237.248 109.428 246.463 100.213 246.463 88.8449C246.463 77.4771 237.248 68.2617 225.88 68.2617C214.512 68.2617 205.297 77.4771 205.297 88.8449C205.297 100.213 214.512 109.428 225.88 109.428Z" fill="#FFCE51"/>
<path d="M201.793 257.784C189.103 221.067 149.515 200.161 112.117 212.085C89.6317 219.261 73.9283 236.662 67.1589 257.365C49.3864 244.365 26.0404 239.545 3.44799 246.745C-34.238 258.765 -53.0869 299.44 -42.2512 336.421C-37.1323 353.894 -10.4256 344.566 -15.5445 327.104C-22.1584 304.535 -9.83959 280.568 12.7648 273.451C35.6562 266.239 58.7989 279.706 66.4174 301.761C72.3855 319.055 98.231 309.858 93.1241 292.444C86.5102 269.875 98.829 245.908 121.433 238.791C144.325 231.579 167.467 245.046 175.086 267.101C181.03 284.299 207.761 275.042 201.793 257.784Z" fill="#8CDCE4"/>
<path d="M1166.53 205.23C1140.56 178.87 1114.58 152.522 1088.6 126.162C1082.98 120.458 1074.32 121.151 1068.61 126.162C1044.34 147.391 1020.06 168.632 995.793 189.861C972.902 166.635 950.01 143.409 927.131 120.182C921.51 114.478 912.851 115.171 907.134 120.182C882.867 141.411 858.588 162.652 834.321 183.881C811.43 160.655 788.539 137.429 765.659 114.202C760.038 108.498 751.379 109.191 745.662 114.202C717.807 138.565 689.964 162.927 662.109 187.302C648.379 199.31 668.46 219.247 682.106 207.299C706.373 186.07 730.652 164.829 754.919 143.6C777.81 166.826 800.702 190.053 823.581 213.279C829.202 218.984 837.861 218.29 843.578 213.279C867.845 192.05 892.124 170.809 916.391 149.58C939.282 172.806 962.174 196.033 985.053 219.259C990.674 224.964 999.333 224.27 1005.05 219.259C1029.32 198.03 1053.6 176.789 1077.86 155.56C1100.75 178.786 1123.65 202.013 1146.53 225.239C1159.32 238.228 1179.32 218.219 1166.52 205.242L1166.53 205.23Z" fill="#AFC901"/>
<path d="M779.915 -59.6231C769.761 -81.1033 759.225 -102.404 748.867 -123.777C740.938 -140.162 716.539 -125.834 724.445 -109.496C734.025 -89.6906 743.605 -69.8967 753.185 -50.091C757.969 -40.2001 760.444 -29.9504 753.484 -20.0594C744.179 -6.8556 723.847 -5.86291 713.645 -18.6721C706.445 -27.7019 702.343 -40.6904 697.355 -50.988C689.701 -66.8111 676.402 -79.3452 658.605 -82.6102C636.527 -86.6527 613.683 -76.8694 602.297 -57.255C592.765 -40.834 593.495 -22.0328 601.424 -5.25295C611.578 16.2272 622.127 37.528 632.472 58.9124C640.402 75.2976 664.8 60.9696 656.895 44.6322C647.315 24.8264 637.735 5.03265 628.155 -14.7731C623.371 -24.664 620.895 -34.9138 627.856 -44.8047C637.161 -58.0085 657.493 -59.0012 667.695 -46.192C674.895 -37.1622 678.997 -24.1737 683.984 -13.8761C691.639 1.94698 704.938 14.481 722.735 17.7461C744.813 21.7886 767.656 12.0053 779.042 -7.60907C788.574 -24.0302 787.845 -42.8313 779.915 -59.6112V-59.6231Z" fill="#8CDCE4"/>
<path d="M810.067 92.139C821.434 92.139 830.65 82.9236 830.65 71.5558C830.65 60.188 821.434 50.9727 810.067 50.9727C798.699 50.9727 789.483 60.188 789.483 71.5558C789.483 82.9236 798.699 92.139 810.067 92.139Z" fill="#EE755D"/>
<path d="M132.114 1244.24C119.819 1259.12 107.512 1274.01 95.2172 1288.89C90.6365 1294.43 86.2113 1300.16 81.4512 1305.55C70.2088 1318.26 51.5872 1321.46 38.5268 1309.13C15.3364 1287.22 42.0789 1262.94 56.0841 1245.85C77.9948 1219.08 78.7364 1180.81 48.7766 1159.08C34.1375 1148.46 14.2719 1145.38 -2.85481 1151.45C-15.9989 1156.1 -24.8612 1164.97 -33.4604 1175.38C-39.572 1182.78 -45.4204 1190.54 -51.9147 1197.61C-63.7192 1210.44 -84.3503 1211.5 -95.9515 1197.48C-115.075 1174.36 -88.6439 1152.08 -74.854 1135.06C-52.417 1107.36 -55.1917 1066.36 -87.5196 1047C-105.065 1036.49 -128.04 1036.62 -145.573 1047.03C-154.842 1052.55 -161.074 1060.57 -167.795 1068.71C-181.968 1085.86 -196.14 1103.01 -210.313 1120.15C-221.83 1134.08 -201.929 1154.2 -190.316 1140.14C-178.021 1125.27 -165.714 1110.37 -153.419 1095.5C-148.839 1089.96 -144.413 1084.23 -139.653 1078.84C-128.411 1066.12 -109.789 1062.93 -96.7288 1075.26C-73.5384 1097.17 -100.281 1121.45 -114.286 1138.54C-136.209 1165.31 -136.938 1203.58 -106.979 1225.31C-92.3395 1235.93 -72.474 1239 -55.3472 1232.94C-42.2032 1228.29 -33.3408 1219.41 -24.7416 1209.01C-18.63 1201.61 -12.7816 1193.84 -6.28734 1186.78C5.51718 1173.94 26.1482 1172.89 37.7494 1186.91C56.8734 1210.03 30.4418 1232.31 16.6519 1249.33C-5.78502 1277.03 -3.01027 1318.02 29.3176 1337.39C46.8629 1347.9 69.8381 1347.77 87.3714 1337.35C96.6404 1331.84 102.872 1323.81 109.593 1315.68C123.766 1298.53 137.938 1281.38 152.111 1264.24C163.628 1250.31 143.727 1230.19 132.114 1244.24Z" fill="#60489C"/>
<path d="M273.493 926.523C273.481 927.719 273.409 928.891 273.35 930.087C273.218 932.778 273.326 930.35 273.421 929.812C273.062 931.701 272.668 933.567 272.094 935.409C271.759 936.497 271.376 937.562 270.957 938.614C271.161 938.1 272.237 936.079 271.005 938.327C269.917 940.313 268.817 942.202 267.561 944.08C265.731 946.843 268.924 943.135 267.369 944.283C266.676 944.798 266.102 945.719 265.492 946.34C264.822 947.022 260.612 950.586 263.339 948.529C261.856 949.641 260.289 950.67 258.663 951.579C258.017 951.95 257.323 952.261 256.677 952.631C254.345 953.971 258.782 952.117 255.374 953.182C253.544 953.756 251.75 954.33 249.872 954.724C249.047 954.892 246.44 955.167 249.609 954.856C248.628 954.952 247.647 955.035 246.667 955.071C244.669 955.155 242.72 954.987 240.723 954.904C238.45 954.82 244.024 955.657 240.448 954.832C239.323 954.569 238.199 954.354 237.087 954.043C235.986 953.732 234.922 953.337 233.834 952.99C233.08 952.751 231.669 951.794 234.085 953.122C232.446 952.213 230.76 951.447 229.169 950.443C228.392 949.952 227.662 949.342 226.861 948.876C225.079 947.824 229.11 951.077 226.682 948.649C225.103 947.07 223.584 945.455 222.029 943.877C223.895 945.778 222.651 944.762 222.209 944.092C221.587 943.159 220.953 942.25 220.379 941.281C219.876 940.444 217.556 935.409 218.812 938.626C218.118 936.856 217.52 935.05 217.054 933.208C216.862 932.467 216.731 931.713 216.551 930.96C215.918 928.185 216.635 933.268 216.384 929.501C216.264 927.719 216.241 925.925 216.348 924.143C216.384 923.461 217.054 919.777 216.348 923.246C216.504 922.492 216.623 921.727 216.791 920.973C217.209 919.107 217.819 917.314 218.405 915.496C219.518 912.051 216.97 917.852 218.764 914.73C219.326 913.761 219.793 912.745 220.379 911.776C220.857 910.975 221.383 910.209 221.886 909.432C222.34 908.714 224.026 906.956 222.029 909.193C223.273 907.805 224.481 906.43 225.856 905.162C225.904 905.126 228.619 902.674 226.969 904.11C225.354 905.521 228.141 903.296 228.224 903.237C230.09 901.981 232.064 900.952 234.073 899.948C233.606 900.175 231.346 900.916 233.822 900.079C234.898 899.708 235.974 899.338 237.075 899.027C237.816 898.823 238.558 898.632 239.299 898.465C239.371 898.453 243.103 897.771 240.842 898.118C238.582 898.465 242.385 898.022 242.469 898.022C243.461 897.962 244.454 897.95 245.447 897.962C246.439 897.974 247.42 898.07 248.413 898.106C251.714 898.225 246.368 897.508 249.274 898.237C251.511 898.8 253.687 899.374 255.876 900.079C259.093 901.12 254.572 899.003 256.139 900.199C257.12 900.952 258.519 901.407 259.595 902.053C260.229 902.435 260.863 902.83 261.485 903.249C262.107 903.667 262.705 904.098 263.303 904.54C261.916 903.464 261.82 903.428 263.028 904.433C264.332 905.736 265.647 907.052 266.963 908.367C269.486 910.891 265.54 906.011 267.513 909.001C268.135 909.934 268.769 910.843 269.343 911.812C269.917 912.781 270.395 913.785 270.957 914.766C272.405 917.29 270.336 912.506 271.316 915.532C272.034 917.732 272.596 919.897 273.158 922.133C273.338 922.839 273.409 924.812 273.182 921.822C273.302 923.401 273.421 924.968 273.445 926.559C273.541 933.95 279.88 941.042 287.582 940.695C295.153 940.361 301.838 934.476 301.719 926.559C301.384 902.387 286.434 881.517 263.925 873.026C242.493 864.941 216.181 871.925 201.649 889.65C186.412 908.248 183.386 934.608 195.92 955.586C208.431 976.516 232.53 986.514 256.211 982.244C282.63 977.496 301.348 952.799 301.707 926.559C301.802 919.155 295.129 912.075 287.57 912.422C279.82 912.769 273.541 918.629 273.433 926.559L273.493 926.523Z" fill="#FFC2F7"/>
<path d="M779.915 1136.38C769.761 1114.9 759.225 1093.6 748.867 1072.21C740.938 1055.83 716.539 1070.15 724.445 1086.49C734.025 1106.3 743.605 1126.09 753.185 1145.9C757.969 1155.79 760.444 1166.04 753.484 1175.93C744.179 1189.13 723.847 1190.13 713.645 1177.32C706.445 1168.29 702.343 1155.3 697.355 1145C689.701 1129.18 676.402 1116.64 658.605 1113.38C636.527 1109.34 613.683 1119.12 602.297 1138.73C592.765 1155.15 593.495 1173.96 601.424 1190.74C611.578 1212.22 622.127 1233.52 632.472 1254.9C640.402 1271.29 664.8 1256.96 656.895 1240.62C647.315 1220.81 637.735 1201.02 628.155 1181.22C623.371 1171.32 620.895 1161.07 627.856 1151.18C637.161 1137.98 657.493 1136.99 667.695 1149.8C674.895 1158.83 678.997 1171.81 683.984 1182.11C691.639 1197.94 704.938 1210.47 722.735 1213.73C744.813 1217.78 767.656 1207.99 779.042 1188.38C788.574 1171.96 787.845 1153.16 779.915 1136.38Z" fill="#8CDCE4"/>
<path d="M335.673 73.9802C343.662 58.4561 359.665 52.5838 375.667 59.6282C386.108 64.2208 396.215 69.555 406.632 74.2194C448.827 93.1281 496.846 58.8269 487.888 11.8839C481.501 -21.6281 450.441 -30.012 424.225 -43.4311C407.481 -52.0064 400.508 -72.7929 413.15 -88.317C423.758 -101.341 439.294 -99.978 452.869 -93.5794C465.989 -87.3961 480.186 -78.5935 494.574 -75.9264C519.63 -71.286 544.554 -83.9516 556.168 -106.484C564.492 -122.642 540.093 -136.958 531.745 -120.764C523.756 -105.24 507.753 -99.368 491.751 -106.412C481.31 -111.005 471.204 -116.339 460.787 -121.004C418.592 -139.912 370.572 -105.611 379.53 -58.6682C385.917 -25.1562 416.977 -16.7723 443.193 -3.35316C459.937 5.22217 466.91 26.0086 454.268 41.5327C443.66 54.5572 428.124 53.1937 414.549 46.7951C401.429 40.6118 387.233 31.8092 372.845 29.1422C347.788 24.5017 322.864 37.1673 311.251 59.7C302.927 75.8579 327.325 90.174 335.673 73.9802Z" fill="#1F7E8E"/>
<path d="M423.113 145.661C409.729 139.346 396.346 133.043 382.951 126.728C374.651 122.817 366.35 118.906 358.05 114.995C355.993 114.026 353.924 113.058 351.867 112.077C351.412 111.862 350.958 111.646 350.503 111.419C348.984 110.666 347.501 109.84 346.078 108.92C345.504 108.549 343.256 106.922 345.396 108.585C344.583 107.951 343.818 107.269 343.064 106.575C342.466 106.025 341.88 105.451 341.318 104.865C341.031 104.566 338.603 101.779 339.644 103.083C340.72 104.435 339.177 102.425 338.962 102.09C338.412 101.253 337.862 100.416 337.359 99.5429C336.821 98.622 334.74 93.5868 335.709 96.4333C335.063 94.5436 334.441 92.6539 333.999 90.7044C333.819 89.927 333.712 89.1258 333.544 88.3484C334.238 91.5536 333.568 87.9656 333.532 87.3198C333.425 85.2866 333.532 83.2893 333.652 81.2561C333.616 81.8062 333.102 84.1025 333.64 81.3757C333.843 80.3591 334.046 79.3544 334.298 78.3498C334.561 77.3332 334.848 76.3405 335.183 75.3478C335.386 74.7498 336.833 71.401 335.661 73.9964C338.819 67.0476 337.658 58.7832 330.59 54.6451C324.526 51.0929 314.408 52.7315 311.239 59.7161C303.369 77.0701 303.178 96.4213 312.65 113.297C318.63 123.941 328.031 131.99 338.974 137.157C356.364 145.35 373.742 153.554 391.132 161.747C397.028 164.522 402.924 167.308 408.832 170.083C415.733 173.336 424.093 172.009 428.184 165.012C431.784 158.864 430.049 148.938 423.113 145.661Z" fill="#1F7E8E"/>
<path d="M569.025 175.386C569.013 176.582 568.941 177.754 568.881 178.95C568.75 181.641 568.845 179.213 568.953 178.675C568.594 180.565 568.199 182.43 567.625 184.272C567.29 185.361 566.908 186.425 566.489 187.478C566.692 186.963 567.769 184.942 566.537 187.191C565.449 189.176 564.348 191.066 563.092 192.943C561.263 195.706 564.456 191.998 562.901 193.147C562.207 193.661 561.633 194.582 561.023 195.204C560.354 195.885 556.144 199.45 558.871 197.392C557.388 198.505 555.821 199.533 554.194 200.442C553.548 200.813 552.855 201.124 552.209 201.495C549.877 202.834 554.314 200.98 550.905 202.045C549.075 202.619 547.281 203.193 545.404 203.588C544.578 203.755 541.971 204.03 545.14 203.719C544.16 203.815 543.179 203.899 542.198 203.935C540.201 204.018 538.251 203.851 536.254 203.767C533.982 203.683 539.555 204.521 535.979 203.695C534.855 203.432 533.731 203.217 532.618 202.906C531.518 202.595 530.454 202.2 529.365 201.854C528.612 201.614 527.2 200.657 529.616 201.985C527.978 201.076 526.292 200.311 524.701 199.306C523.923 198.816 523.194 198.206 522.393 197.739C520.611 196.687 524.641 199.94 522.213 197.512C520.634 195.933 519.115 194.319 517.561 192.74C519.426 194.642 518.183 193.625 517.74 192.955C517.118 192.022 516.484 191.113 515.91 190.145C515.408 189.307 513.088 184.272 514.343 187.49C513.65 185.719 513.052 183.913 512.585 182.072C512.394 181.33 512.262 180.577 512.083 179.823C511.437 177.048 512.167 182.131 511.916 178.364C511.796 176.582 511.772 174.788 511.88 173.006C511.916 172.324 512.585 168.641 511.88 172.109C512.035 171.356 512.155 170.59 512.322 169.837C512.741 167.971 513.351 166.177 513.937 164.359C515.049 160.914 512.502 166.715 514.296 163.593C514.858 162.625 515.324 161.608 515.91 160.639C516.389 159.838 516.915 159.073 517.417 158.295C517.872 157.578 519.558 155.819 517.561 158.056C518.805 156.669 520.013 155.293 521.388 154.025C521.436 153.99 524.151 151.538 522.5 152.973C520.886 154.384 523.672 152.16 523.756 152.1C525.622 150.844 527.595 149.816 529.604 148.811C529.138 149.038 526.878 149.78 529.353 148.942C530.43 148.572 531.506 148.201 532.606 147.89C533.348 147.687 534.089 147.495 534.831 147.328C534.903 147.316 538.634 146.634 536.374 146.981C534.113 147.328 537.917 146.885 538 146.885C538.993 146.826 539.986 146.814 540.978 146.826C541.971 146.837 542.952 146.933 543.944 146.969C547.245 147.089 541.899 146.371 544.806 147.101C547.042 147.663 549.219 148.237 551.407 148.942C554.625 149.983 550.104 147.866 551.671 149.062C552.651 149.816 554.051 150.27 555.127 150.916C555.761 151.299 556.395 151.693 557.017 152.112C557.639 152.53 558.237 152.961 558.835 153.404C557.447 152.327 557.352 152.291 558.56 153.296C559.863 154.6 561.179 155.915 562.494 157.231C565.018 159.754 561.071 154.875 563.045 157.865C563.667 158.798 564.3 159.706 564.874 160.675C565.449 161.644 565.927 162.649 566.489 163.629C567.936 166.153 565.867 161.369 566.848 164.395C567.565 166.595 568.128 168.76 568.69 170.997C568.869 171.702 568.941 173.676 568.714 170.686C568.833 172.264 568.953 173.831 568.977 175.422C569.072 182.813 575.411 189.905 583.113 189.559C590.684 189.224 597.37 183.339 597.25 175.422C596.915 151.251 581.965 130.381 559.457 121.889C538.024 113.804 511.712 120.789 497.181 138.513C481.944 157.111 478.918 183.471 491.452 204.449C503.962 225.379 528.062 235.377 551.742 231.108C578.162 226.36 596.879 201.662 597.238 175.422C597.334 168.019 590.66 160.938 583.101 161.285C575.351 161.632 569.072 167.492 568.965 175.422L569.025 175.386Z" fill="#FFD100"/>
<path d="M556.168 1089.53C564.037 1072.18 564.229 1052.83 554.756 1035.95C548.776 1025.31 539.376 1017.26 528.432 1012.1C511.042 1003.91 493.665 995.708 476.275 987.515C470.378 984.74 464.482 981.954 458.574 979.179C451.673 975.926 443.313 977.253 439.223 984.25C435.623 990.398 437.357 1000.32 444.294 1003.6C457.677 1009.92 471.06 1016.22 484.455 1022.53C492.756 1026.44 501.056 1030.36 509.356 1034.27C511.413 1035.24 513.482 1036.2 515.539 1037.19C515.994 1037.4 516.448 1037.62 516.903 1037.84C518.422 1038.6 519.905 1039.42 521.328 1040.34C521.902 1040.71 524.151 1042.34 522.01 1040.68C522.823 1041.31 523.588 1041.99 524.342 1042.69C524.94 1043.24 525.526 1043.81 526.088 1044.4C526.375 1044.7 528.803 1047.48 527.763 1046.18C526.686 1044.83 528.229 1046.84 528.444 1047.17C528.994 1048.01 529.545 1048.85 530.047 1049.72C530.585 1050.64 532.666 1055.68 531.697 1052.83C532.343 1054.72 532.965 1056.61 533.408 1058.56C533.587 1059.33 533.695 1060.14 533.862 1060.91C533.168 1057.71 533.838 1061.3 533.874 1061.94C533.982 1063.98 533.874 1065.97 533.755 1068.01C533.79 1067.46 534.305 1065.16 533.766 1067.89C533.563 1068.9 533.36 1069.91 533.109 1070.91C532.846 1071.93 532.559 1072.92 532.224 1073.91C532.02 1074.51 530.573 1077.86 531.745 1075.27C528.588 1082.21 529.748 1090.48 536.816 1094.62C542.88 1098.17 552.998 1096.53 556.168 1089.55V1089.53Z" fill="#1F7E8E"/>
<path d="M335.673 1269.98C343.662 1254.46 359.665 1248.58 375.667 1255.63C386.108 1260.22 396.215 1265.55 406.632 1270.22C448.827 1289.13 496.846 1254.83 487.888 1207.88C481.501 1174.37 450.441 1165.99 424.225 1152.57C407.481 1143.99 400.508 1123.21 413.15 1107.68C423.758 1094.66 439.294 1096.02 452.869 1102.42C465.989 1108.6 480.186 1117.41 494.574 1120.07C519.63 1124.71 544.554 1112.05 556.168 1089.52C564.492 1073.36 540.093 1059.04 531.745 1075.24C523.756 1090.76 507.753 1096.63 491.751 1089.59C481.31 1084.99 471.204 1079.66 460.787 1075C418.592 1056.09 370.572 1090.39 379.53 1137.33C385.917 1170.84 416.977 1179.23 443.193 1192.65C459.937 1201.22 466.91 1222.01 454.268 1237.53C443.66 1250.56 428.124 1249.19 414.549 1242.8C401.429 1236.61 387.233 1227.81 372.845 1225.14C347.788 1220.5 322.864 1233.17 311.251 1255.7C302.927 1271.86 327.325 1286.17 335.673 1269.98Z" fill="#1F7E8E"/>
</g>
<g filter="url(#filter0_d_377_2216)">
<rect x="69" y="133" width="696" height="926" rx="20" fill="#FAF5EA"/>
<path d="M180.3 700C174.7 700 169.633 699.1 165.1 697.3C160.567 695.5 156.667 692.967 153.4 689.7C150.133 686.433 147.633 682.6 145.9 678.2C144.167 673.733 143.3 668.9 143.3 663.7C143.3 658.5 144.2 653.733 146 649.4C147.867 645 150.5 641.167 153.9 637.9C157.3 634.633 161.3 632.1 165.9 630.3C170.567 628.5 175.633 627.6 181.1 627.6C184.967 627.6 188.6 628.1 192 629.1C195.467 630.1 198.6 631.467 201.4 633.2C204.2 634.933 206.567 636.933 208.5 639.2L198.2 650.1C196.533 648.5 194.8 647.167 193 646.1C191.267 645.033 189.4 644.2 187.4 643.6C185.4 642.933 183.267 642.6 181 642.6C178.067 642.6 175.367 643.133 172.9 644.2C170.5 645.267 168.367 646.767 166.5 648.7C164.7 650.567 163.3 652.8 162.3 655.4C161.3 657.933 160.8 660.7 160.8 663.7C160.8 666.7 161.333 669.5 162.4 672.1C163.467 674.7 164.933 676.967 166.8 678.9C168.667 680.767 170.867 682.267 173.4 683.4C176 684.467 178.767 685 181.7 685C183.767 685 185.7 684.667 187.5 684C189.367 683.333 190.967 682.433 192.3 681.3C193.633 680.167 194.7 678.833 195.5 677.3C196.3 675.7 196.7 674 196.7 672.2V669.6L198.9 673H179.6V659.7H212.5C212.633 660.433 212.733 661.433 212.8 662.7C212.867 663.967 212.9 665.2 212.9 666.4C212.967 667.6 213 668.5 213 669.1C213 673.633 212.167 677.8 210.5 681.6C208.9 685.333 206.633 688.567 203.7 691.3C200.767 694.033 197.3 696.167 193.3 697.7C189.3 699.233 184.967 700 180.3 700ZM224.323 699V645.9H239.523L240.223 663.2L237.223 659.9C238.023 657.033 239.323 654.467 241.123 652.2C242.989 649.933 245.156 648.133 247.623 646.8C250.089 645.467 252.723 644.8 255.523 644.8C256.723 644.8 257.823 644.9 258.823 645.1C259.889 645.3 260.856 645.533 261.723 645.8L257.323 663.5C256.589 663.033 255.589 662.667 254.323 662.4C253.123 662.067 251.856 661.9 250.523 661.9C249.056 661.9 247.689 662.167 246.423 662.7C245.156 663.167 244.089 663.867 243.223 664.8C242.356 665.733 241.656 666.833 241.123 668.1C240.656 669.367 240.423 670.8 240.423 672.4V699H224.323ZM292.884 700C287.018 700 281.918 698.833 277.584 696.5C273.251 694.1 269.884 690.867 267.484 686.8C265.084 682.667 263.884 677.967 263.884 672.7C263.884 668.633 264.551 664.9 265.884 661.5C267.218 658.1 269.084 655.167 271.484 652.7C273.884 650.167 276.718 648.233 279.984 646.9C283.318 645.5 286.951 644.8 290.884 644.8C294.618 644.8 298.018 645.467 301.084 646.8C304.218 648.133 306.918 650 309.184 652.4C311.451 654.8 313.184 657.633 314.384 660.9C315.584 664.167 316.118 667.733 315.984 671.6L315.884 675.9H273.584L271.284 666.9H302.884L301.184 668.8V666.8C301.051 665.133 300.518 663.667 299.584 662.4C298.718 661.067 297.551 660.033 296.084 659.3C294.618 658.567 292.951 658.2 291.084 658.2C288.484 658.2 286.251 658.733 284.384 659.8C282.584 660.8 281.218 662.3 280.284 664.3C279.351 666.233 278.884 668.633 278.884 671.5C278.884 674.433 279.484 677 280.684 679.2C281.951 681.333 283.751 683 286.084 684.2C288.484 685.4 291.318 686 294.584 686C296.851 686 298.851 685.667 300.584 685C302.384 684.333 304.318 683.2 306.384 681.6L313.884 692.2C311.818 694 309.618 695.467 307.284 696.6C304.951 697.733 302.551 698.567 300.084 699.1C297.684 699.7 295.284 700 292.884 700ZM345.778 699.9C341.311 699.9 337.311 698.733 333.778 696.4C330.311 694 327.545 690.733 325.478 686.6C323.411 682.4 322.378 677.667 322.378 672.4C322.378 667 323.411 662.233 325.478 658.1C327.545 653.967 330.378 650.733 333.978 648.4C337.578 646 341.678 644.8 346.278 644.8C348.811 644.8 351.111 645.167 353.178 645.9C355.311 646.633 357.178 647.667 358.778 649C360.378 650.267 361.745 651.767 362.878 653.5C364.011 655.167 364.845 656.967 365.378 658.9L362.078 658.5V645.9H377.978V699H361.778V686.2L365.378 686.1C364.845 687.967 363.978 689.733 362.778 691.4C361.578 693.067 360.111 694.533 358.378 695.8C356.645 697.067 354.711 698.067 352.578 698.8C350.445 699.533 348.178 699.9 345.778 699.9ZM350.178 686.4C352.645 686.4 354.778 685.833 356.578 684.7C358.378 683.567 359.778 681.967 360.778 679.9C361.778 677.767 362.278 675.267 362.278 672.4C362.278 669.533 361.778 667.067 360.778 665C359.778 662.867 358.378 661.233 356.578 660.1C354.778 658.9 352.645 658.3 350.178 658.3C347.778 658.3 345.678 658.9 343.878 660.1C342.145 661.233 340.778 662.867 339.778 665C338.778 667.067 338.278 669.533 338.278 672.4C338.278 675.267 338.778 677.767 339.778 679.9C340.778 681.967 342.145 683.567 343.878 684.7C345.678 685.833 347.778 686.4 350.178 686.4ZM396.496 699V632.5H412.496V699H396.496ZM387.096 659.9V645.9H422.796V659.9H387.096ZM482.971 700C480.438 700 478.038 699.7 475.771 699.1C473.504 698.567 471.438 697.767 469.571 696.7C467.704 695.567 466.038 694.233 464.571 692.7C463.104 691.1 461.838 689.333 460.771 687.4L470.471 677.3C471.404 678.7 472.304 679.867 473.171 680.8C474.038 681.667 474.871 682.4 475.671 683C476.538 683.6 477.404 684.033 478.271 684.3C479.204 684.567 480.171 684.7 481.171 684.7C482.771 684.7 484.171 684.333 485.371 683.6C486.638 682.8 487.604 681.733 488.271 680.4C488.938 679.067 489.271 677.5 489.271 675.7V643.8H476.471V629H516.671V643.8H505.871V677.7C505.871 681.1 505.271 684.167 504.071 686.9C502.938 689.633 501.338 692 499.271 694C497.204 695.933 494.771 697.433 491.971 698.5C489.238 699.5 486.238 700 482.971 700ZM550.495 700C544.961 700 540.028 698.8 535.695 696.4C531.428 694 528.028 690.733 525.495 686.6C523.028 682.467 521.795 677.733 521.795 672.4C521.795 667.067 523.028 662.333 525.495 658.2C528.028 654.067 531.428 650.8 535.695 648.4C540.028 646 544.961 644.8 550.495 644.8C556.028 644.8 560.928 646 565.195 648.4C569.528 650.8 572.928 654.067 575.395 658.2C577.861 662.333 579.095 667.067 579.095 672.4C579.095 677.733 577.861 682.467 575.395 686.6C572.928 690.733 569.528 694 565.195 696.4C560.928 698.8 556.028 700 550.495 700ZM550.495 686.2C552.895 686.2 555.028 685.6 556.895 684.4C558.761 683.2 560.228 681.567 561.295 679.5C562.361 677.433 562.861 675.067 562.795 672.4C562.861 669.733 562.361 667.367 561.295 665.3C560.228 663.167 558.761 661.5 556.895 660.3C555.028 659.1 552.895 658.5 550.495 658.5C548.095 658.5 545.928 659.1 543.995 660.3C542.128 661.5 540.661 663.167 539.595 665.3C538.528 667.367 538.028 669.733 538.095 672.4C538.028 675.067 538.528 677.433 539.595 679.5C540.661 681.567 542.128 683.2 543.995 684.4C545.928 685.6 548.095 686.2 550.495 686.2ZM621.457 700.1C619.057 700.1 616.757 699.767 614.557 699.1C612.357 698.433 610.357 697.533 608.557 696.4C606.824 695.267 605.357 693.967 604.157 692.5C603.024 690.967 602.257 689.4 601.857 687.8L605.357 686.6L604.457 698.9H589.557V625H605.657V658.6L602.357 657.4C602.757 655.667 603.524 654.067 604.657 652.6C605.79 651.067 607.224 649.733 608.957 648.6C610.69 647.4 612.59 646.467 614.657 645.8C616.724 645.133 618.857 644.8 621.057 644.8C625.657 644.8 629.724 646 633.257 648.4C636.857 650.733 639.69 654 641.757 658.2C643.824 662.333 644.857 667.067 644.857 672.4C644.857 677.8 643.824 682.6 641.757 686.8C639.757 690.933 636.99 694.2 633.457 696.6C629.924 698.933 625.924 700.1 621.457 700.1ZM617.257 686.6C619.657 686.6 621.757 686 623.557 684.8C625.357 683.6 626.724 681.967 627.657 679.9C628.657 677.767 629.157 675.267 629.157 672.4C629.157 669.6 628.657 667.133 627.657 665C626.724 662.867 625.357 661.233 623.557 660.1C621.757 658.967 619.657 658.4 617.257 658.4C614.79 658.4 612.657 658.967 610.857 660.1C609.057 661.233 607.657 662.867 606.657 665C605.657 667.133 605.157 669.6 605.157 672.4C605.157 675.267 605.657 677.767 606.657 679.9C607.657 681.967 609.057 683.6 610.857 684.8C612.657 686 614.79 686.6 617.257 686.6ZM658.677 673.5C658.144 669.433 657.611 665.233 657.077 660.9C656.544 656.567 656.111 652.267 655.777 648C655.444 643.733 655.277 639.633 655.277 635.7V627.9H672.177V635.7C672.177 639.7 672.011 643.867 671.677 648.2C671.344 652.533 670.911 656.867 670.377 661.2C669.844 665.467 669.277 669.567 668.677 673.5H658.677ZM663.677 700.1C660.944 700.1 658.811 699.333 657.277 697.8C655.744 696.267 654.977 694.067 654.977 691.2C654.977 688.533 655.777 686.367 657.377 684.7C658.977 683.033 661.077 682.2 663.677 682.2C666.411 682.2 668.511 683 669.977 684.6C671.511 686.133 672.277 688.333 672.277 691.2C672.277 693.8 671.477 695.933 669.877 697.6C668.277 699.267 666.211 700.1 663.677 700.1Z" fill="#60489C"/>
<path d="M231.881 761V750.53L232.091 752L223.601 740H228.161L234.641 749.3L233.231 749.21L239.081 740H243.461L235.331 752.33L235.781 750.29V761H231.881ZM250.567 761.3C248.987 761.3 247.577 760.95 246.337 760.25C245.097 759.53 244.117 758.55 243.397 757.31C242.677 756.07 242.317 754.66 242.317 753.08C242.317 751.5 242.677 750.09 243.397 748.85C244.117 747.61 245.097 746.64 246.337 745.94C247.577 745.22 248.987 744.86 250.567 744.86C252.127 744.86 253.527 745.22 254.767 745.94C256.007 746.64 256.977 747.61 257.677 748.85C258.397 750.09 258.757 751.5 258.757 753.08C258.757 754.66 258.397 756.07 257.677 757.31C256.977 758.55 256.007 759.53 254.767 760.25C253.527 760.95 252.127 761.3 250.567 761.3ZM250.567 758.03C251.427 758.03 252.187 757.81 252.847 757.37C253.527 756.93 254.057 756.34 254.437 755.6C254.837 754.86 255.027 754.02 255.007 753.08C255.027 752.12 254.837 751.27 254.437 750.53C254.057 749.79 253.527 749.21 252.847 748.79C252.187 748.35 251.427 748.13 250.567 748.13C249.707 748.13 248.927 748.35 248.227 748.79C247.547 749.21 247.017 749.8 246.637 750.56C246.257 751.3 246.067 752.14 246.067 753.08C246.067 754.02 246.257 754.86 246.637 755.6C247.017 756.34 247.547 756.93 248.227 757.37C248.927 757.81 249.707 758.03 250.567 758.03ZM267.547 761.3C266.407 761.3 265.417 761.05 264.577 760.55C263.737 760.03 263.097 759.3 262.657 758.36C262.217 757.4 261.997 756.26 261.997 754.94V745.19H265.687V754.16C265.687 755 265.817 755.72 266.077 756.32C266.337 756.9 266.717 757.35 267.217 757.67C267.717 757.99 268.317 758.15 269.017 758.15C269.537 758.15 270.007 758.07 270.427 757.91C270.867 757.73 271.247 757.49 271.567 757.19C271.887 756.87 272.137 756.5 272.317 756.08C272.497 755.64 272.587 755.17 272.587 754.67V745.19H276.277V761H272.677L272.617 757.7L273.277 757.34C273.037 758.1 272.627 758.78 272.047 759.38C271.487 759.96 270.817 760.43 270.037 760.79C269.257 761.13 268.427 761.3 267.547 761.3ZM289.421 767.6V745.19H293.051L293.111 748.79L292.481 748.52C292.601 747.9 292.941 747.32 293.501 746.78C294.061 746.22 294.741 745.77 295.541 745.43C296.361 745.09 297.211 744.92 298.091 744.92C299.491 744.92 300.731 745.27 301.811 745.97C302.911 746.67 303.771 747.63 304.391 748.85C305.031 750.07 305.351 751.48 305.351 753.08C305.351 754.66 305.031 756.07 304.391 757.31C303.771 758.53 302.911 759.5 301.811 760.22C300.731 760.92 299.511 761.27 298.151 761.27C297.231 761.27 296.341 761.09 295.481 760.73C294.641 760.37 293.921 759.9 293.321 759.32C292.741 758.74 292.381 758.13 292.241 757.49L293.141 757.07V767.6H289.421ZM297.401 758C298.241 758 298.991 757.79 299.651 757.37C300.311 756.95 300.821 756.37 301.181 755.63C301.561 754.89 301.751 754.04 301.751 753.08C301.751 752.12 301.571 751.28 301.211 750.56C300.851 749.82 300.341 749.24 299.681 748.82C299.021 748.4 298.261 748.19 297.401 748.19C296.521 748.19 295.751 748.4 295.091 748.82C294.451 749.22 293.941 749.79 293.561 750.53C293.181 751.27 292.991 752.12 292.991 753.08C292.991 754.04 293.181 754.89 293.561 755.63C293.941 756.37 294.451 756.95 295.091 757.37C295.751 757.79 296.521 758 297.401 758ZM314.609 761.3C313.309 761.3 312.129 760.94 311.069 760.22C310.009 759.5 309.159 758.52 308.519 757.28C307.879 756.04 307.559 754.63 307.559 753.05C307.559 751.47 307.879 750.06 308.519 748.82C309.159 747.58 310.029 746.61 311.129 745.91C312.229 745.21 313.469 744.86 314.849 744.86C315.649 744.86 316.379 744.98 317.039 745.22C317.699 745.44 318.279 745.76 318.779 746.18C319.279 746.6 319.689 747.08 320.009 747.62C320.349 748.16 320.579 748.74 320.699 749.36L319.889 749.15V745.19H323.609V761H319.859V757.22L320.729 757.07C320.589 757.61 320.329 758.14 319.949 758.66C319.589 759.16 319.129 759.61 318.569 760.01C318.029 760.39 317.419 760.7 316.739 760.94C316.079 761.18 315.369 761.3 314.609 761.3ZM315.629 758.03C316.489 758.03 317.249 757.82 317.909 757.4C318.569 756.98 319.079 756.4 319.439 755.66C319.819 754.9 320.009 754.03 320.009 753.05C320.009 752.09 319.819 751.24 319.439 750.5C319.079 749.76 318.569 749.18 317.909 748.76C317.249 748.34 316.489 748.13 315.629 748.13C314.769 748.13 314.009 748.34 313.349 748.76C312.709 749.18 312.209 749.76 311.849 750.5C311.489 751.24 311.309 752.09 311.309 753.05C311.309 754.03 311.489 754.9 311.849 755.66C312.209 756.4 312.709 756.98 313.349 757.4C314.009 757.82 314.769 758.03 315.629 758.03ZM333.168 761.3C331.768 761.3 330.508 761.07 329.388 760.61C328.288 760.13 327.388 759.45 326.688 758.57L329.088 756.5C329.688 757.18 330.358 757.67 331.098 757.97C331.838 758.27 332.618 758.42 333.438 758.42C333.778 758.42 334.078 758.38 334.338 758.3C334.618 758.22 334.858 758.1 335.058 757.94C335.258 757.78 335.408 757.6 335.508 757.4C335.628 757.18 335.688 756.94 335.688 756.68C335.688 756.2 335.508 755.82 335.148 755.54C334.948 755.4 334.628 755.25 334.188 755.09C333.768 754.93 333.218 754.77 332.538 754.61C331.458 754.33 330.558 754.01 329.838 753.65C329.118 753.27 328.558 752.85 328.158 752.39C327.818 752.01 327.558 751.58 327.378 751.1C327.218 750.62 327.138 750.1 327.138 749.54C327.138 748.84 327.288 748.21 327.588 747.65C327.908 747.07 328.338 746.57 328.878 746.15C329.418 745.73 330.048 745.41 330.768 745.19C331.488 744.97 332.238 744.86 333.018 744.86C333.818 744.86 334.588 744.96 335.328 745.16C336.088 745.36 336.788 745.65 337.428 746.03C338.088 746.39 338.648 746.83 339.108 747.35L337.068 749.6C336.688 749.24 336.268 748.92 335.808 748.64C335.368 748.36 334.918 748.14 334.458 747.98C333.998 747.8 333.568 747.71 333.168 747.71C332.788 747.71 332.448 747.75 332.148 747.83C331.848 747.89 331.598 747.99 331.398 748.13C331.198 748.27 331.038 748.45 330.918 748.67C330.818 748.87 330.768 749.11 330.768 749.39C330.788 749.63 330.848 749.86 330.948 750.08C331.068 750.28 331.228 750.45 331.428 750.59C331.648 750.73 331.978 750.89 332.418 751.07C332.858 751.25 333.428 751.42 334.128 751.58C335.108 751.84 335.928 752.13 336.588 752.45C337.248 752.77 337.768 753.14 338.148 753.56C338.528 753.92 338.798 754.34 338.958 754.82C339.118 755.3 339.198 755.83 339.198 756.41C339.198 757.35 338.928 758.19 338.388 758.93C337.868 759.67 337.148 760.25 336.228 760.67C335.328 761.09 334.308 761.3 333.168 761.3ZM347.728 761.3C346.328 761.3 345.068 761.07 343.948 760.61C342.848 760.13 341.948 759.45 341.248 758.57L343.648 756.5C344.248 757.18 344.918 757.67 345.658 757.97C346.398 758.27 347.178 758.42 347.998 758.42C348.338 758.42 348.638 758.38 348.898 758.3C349.178 758.22 349.418 758.1 349.618 757.94C349.818 757.78 349.968 757.6 350.068 757.4C350.188 757.18 350.248 756.94 350.248 756.68C350.248 756.2 350.068 755.82 349.708 755.54C349.508 755.4 349.188 755.25 348.748 755.09C348.328 754.93 347.778 754.77 347.098 754.61C346.018 754.33 345.118 754.01 344.398 753.65C343.678 753.27 343.118 752.85 342.718 752.39C342.378 752.01 342.118 751.58 341.938 751.1C341.778 750.62 341.698 750.1 341.698 749.54C341.698 748.84 341.848 748.21 342.148 747.65C342.468 747.07 342.898 746.57 343.438 746.15C343.978 745.73 344.608 745.41 345.328 745.19C346.048 744.97 346.798 744.86 347.578 744.86C348.378 744.86 349.148 744.96 349.888 745.16C350.648 745.36 351.348 745.65 351.988 746.03C352.648 746.39 353.208 746.83 353.668 747.35L351.628 749.6C351.248 749.24 350.828 748.92 350.368 748.64C349.928 748.36 349.478 748.14 349.018 747.98C348.558 747.8 348.128 747.71 347.728 747.71C347.348 747.71 347.008 747.75 346.708 747.83C346.408 747.89 346.158 747.99 345.958 748.13C345.758 748.27 345.598 748.45 345.478 748.67C345.378 748.87 345.328 749.11 345.328 749.39C345.348 749.63 345.408 749.86 345.508 750.08C345.628 750.28 345.788 750.45 345.988 750.59C346.208 750.73 346.538 750.89 346.978 751.07C347.418 751.25 347.988 751.42 348.688 751.58C349.668 751.84 350.488 752.13 351.148 752.45C351.808 752.77 352.328 753.14 352.708 753.56C353.088 753.92 353.358 754.34 353.518 754.82C353.678 755.3 353.758 755.83 353.758 756.41C353.758 757.35 353.488 758.19 352.948 758.93C352.428 759.67 351.708 760.25 350.788 760.67C349.888 761.09 348.868 761.3 347.728 761.3ZM364.419 761.3C362.759 761.3 361.289 760.95 360.009 760.25C358.749 759.55 357.759 758.6 357.039 757.4C356.339 756.18 355.989 754.79 355.989 753.23C355.989 751.99 356.189 750.86 356.589 749.84C356.989 748.82 357.539 747.94 358.239 747.2C358.959 746.44 359.809 745.86 360.789 745.46C361.789 745.04 362.879 744.83 364.059 744.83C365.099 744.83 366.069 745.03 366.969 745.43C367.869 745.83 368.649 746.38 369.309 747.08C369.969 747.76 370.469 748.58 370.809 749.54C371.169 750.48 371.339 751.51 371.319 752.63L371.289 753.92H358.479L357.789 751.4H368.199L367.719 751.91V751.25C367.659 750.63 367.459 750.09 367.119 749.63C366.779 749.15 366.339 748.78 365.799 748.52C365.279 748.24 364.699 748.1 364.059 748.1C363.079 748.1 362.249 748.29 361.569 748.67C360.909 749.05 360.409 749.6 360.069 750.32C359.729 751.02 359.559 751.9 359.559 752.96C359.559 753.98 359.769 754.87 360.189 755.63C360.629 756.39 361.239 756.98 362.019 757.4C362.819 757.8 363.749 758 364.809 758C365.549 758 366.229 757.88 366.849 757.64C367.469 757.4 368.139 756.97 368.859 756.35L370.689 758.9C370.149 759.4 369.529 759.83 368.829 760.19C368.149 760.53 367.429 760.8 366.669 761C365.909 761.2 365.159 761.3 364.419 761.3ZM380.947 761.3C379.547 761.3 378.287 760.95 377.167 760.25C376.067 759.53 375.187 758.56 374.527 757.34C373.887 756.1 373.567 754.68 373.567 753.08C373.567 751.5 373.887 750.09 374.527 748.85C375.167 747.61 376.037 746.64 377.137 745.94C378.257 745.22 379.517 744.86 380.917 744.86C381.677 744.86 382.407 744.98 383.107 745.22C383.827 745.46 384.467 745.79 385.027 746.21C385.587 746.61 386.027 747.06 386.347 747.56C386.687 748.06 386.877 748.58 386.917 749.12L385.927 749.24V738.8H389.617V761H386.047L385.957 757.28L386.677 757.34C386.657 757.84 386.477 758.32 386.137 758.78C385.817 759.24 385.397 759.66 384.877 760.04C384.357 760.42 383.747 760.73 383.047 760.97C382.367 761.19 381.667 761.3 380.947 761.3ZM381.667 758.18C382.527 758.18 383.287 757.96 383.947 757.52C384.607 757.08 385.117 756.48 385.477 755.72C385.857 754.96 386.047 754.08 386.047 753.08C386.047 752.1 385.857 751.23 385.477 750.47C385.117 749.69 384.607 749.09 383.947 748.67C383.287 748.23 382.527 748.01 381.667 748.01C380.807 748.01 380.047 748.23 379.387 748.67C378.727 749.09 378.207 749.69 377.827 750.47C377.467 751.23 377.287 752.1 377.287 753.08C377.287 754.08 377.467 754.96 377.827 755.72C378.207 756.48 378.727 757.08 379.387 757.52C380.047 757.96 380.807 758.18 381.667 758.18ZM404.334 761V741.17H408.024V761H404.334ZM401.214 748.61V745.19H411.474V748.61H401.214ZM414.284 761V738.8H417.944V748.43L417.254 748.79C417.454 748.07 417.844 747.42 418.424 746.84C419.004 746.24 419.694 745.76 420.494 745.4C421.294 745.04 422.114 744.86 422.954 744.86C424.154 744.86 425.154 745.1 425.954 745.58C426.774 746.06 427.384 746.78 427.784 747.74C428.204 748.7 428.414 749.9 428.414 751.34V761H424.724V751.61C424.724 750.81 424.614 750.15 424.394 749.63C424.174 749.09 423.834 748.7 423.374 748.46C422.914 748.2 422.354 748.08 421.694 748.1C421.154 748.1 420.654 748.19 420.194 748.37C419.754 748.53 419.364 748.77 419.024 749.09C418.704 749.39 418.444 749.74 418.244 750.14C418.064 750.54 417.974 750.98 417.974 751.46V761H416.144C415.784 761 415.444 761 415.124 761C414.824 761 414.544 761 414.284 761ZM439.975 761.3C438.315 761.3 436.845 760.95 435.565 760.25C434.305 759.55 433.315 758.6 432.595 757.4C431.895 756.18 431.545 754.79 431.545 753.23C431.545 751.99 431.745 750.86 432.145 749.84C432.545 748.82 433.095 747.94 433.795 747.2C434.515 746.44 435.365 745.86 436.345 745.46C437.345 745.04 438.435 744.83 439.615 744.83C440.655 744.83 441.625 745.03 442.525 745.43C443.425 745.83 444.205 746.38 444.865 747.08C445.525 747.76 446.025 748.58 446.365 749.54C446.725 750.48 446.895 751.51 446.875 752.63L446.845 753.92H434.035L433.345 751.4H443.755L443.275 751.91V751.25C443.215 750.63 443.015 750.09 442.675 749.63C442.335 749.15 441.895 748.78 441.355 748.52C440.835 748.24 440.255 748.1 439.615 748.1C438.635 748.1 437.805 748.29 437.125 748.67C436.465 749.05 435.965 749.6 435.625 750.32C435.285 751.02 435.115 751.9 435.115 752.96C435.115 753.98 435.325 754.87 435.745 755.63C436.185 756.39 436.795 756.98 437.575 757.4C438.375 757.8 439.305 758 440.365 758C441.105 758 441.785 757.88 442.405 757.64C443.025 757.4 443.695 756.97 444.415 756.35L446.245 758.9C445.705 759.4 445.085 759.83 444.385 760.19C443.705 760.53 442.985 760.8 442.225 761C441.465 761.2 440.715 761.3 439.975 761.3ZM458.992 761V738.8H462.712V761H458.992ZM474.165 761.3C472.505 761.3 471.035 760.95 469.755 760.25C468.495 759.55 467.505 758.6 466.785 757.4C466.085 756.18 465.735 754.79 465.735 753.23C465.735 751.99 465.935 750.86 466.335 749.84C466.735 748.82 467.285 747.94 467.985 747.2C468.705 746.44 469.555 745.86 470.535 745.46C471.535 745.04 472.625 744.83 473.805 744.83C474.845 744.83 475.815 745.03 476.715 745.43C477.615 745.83 478.395 746.38 479.055 747.08C479.715 747.76 480.215 748.58 480.555 749.54C480.915 750.48 481.085 751.51 481.065 752.63L481.035 753.92H468.225L467.535 751.4H477.945L477.465 751.91V751.25C477.405 750.63 477.205 750.09 476.865 749.63C476.525 749.15 476.085 748.78 475.545 748.52C475.025 748.24 474.445 748.1 473.805 748.1C472.825 748.1 471.995 748.29 471.315 748.67C470.655 749.05 470.155 749.6 469.815 750.32C469.475 751.02 469.305 751.9 469.305 752.96C469.305 753.98 469.515 754.87 469.935 755.63C470.375 756.39 470.985 756.98 471.765 757.4C472.565 757.8 473.495 758 474.555 758C475.295 758 475.975 757.88 476.595 757.64C477.215 757.4 477.885 756.97 478.605 756.35L480.435 758.9C479.895 759.4 479.275 759.83 478.575 760.19C477.895 760.53 477.175 760.8 476.415 761C475.655 761.2 474.905 761.3 474.165 761.3ZM489.11 761L482.45 745.19H486.47L490.97 757.01L490.19 757.22L494.93 745.19H498.86L491.87 761H489.11ZM508.53 761.3C506.87 761.3 505.4 760.95 504.12 760.25C502.86 759.55 501.87 758.6 501.15 757.4C500.45 756.18 500.1 754.79 500.1 753.23C500.1 751.99 500.3 750.86 500.7 749.84C501.1 748.82 501.65 747.94 502.35 747.2C503.07 746.44 503.92 745.86 504.9 745.46C505.9 745.04 506.99 744.83 508.17 744.83C509.21 744.83 510.18 745.03 511.08 745.43C511.98 745.83 512.76 746.38 513.42 747.08C514.08 747.76 514.58 748.58 514.92 749.54C515.28 750.48 515.45 751.51 515.43 752.63L515.4 753.92H502.59L501.9 751.4H512.31L511.83 751.91V751.25C511.77 750.63 511.57 750.09 511.23 749.63C510.89 749.15 510.45 748.78 509.91 748.52C509.39 748.24 508.81 748.1 508.17 748.1C507.19 748.1 506.36 748.29 505.68 748.67C505.02 749.05 504.52 749.6 504.18 750.32C503.84 751.02 503.67 751.9 503.67 752.96C503.67 753.98 503.88 754.87 504.3 755.63C504.74 756.39 505.35 756.98 506.13 757.4C506.93 757.8 507.86 758 508.92 758C509.66 758 510.34 757.88 510.96 757.64C511.58 757.4 512.25 756.97 512.97 756.35L514.8 758.9C514.26 759.4 513.64 759.83 512.94 760.19C512.26 760.53 511.54 760.8 510.78 761C510.02 761.2 509.27 761.3 508.53 761.3ZM518.728 761V738.8H522.448V761H518.728ZM539.322 761L534.012 745.19L537.792 745.16L541.332 756.44L540.672 756.38L544.512 747.56H546.732L550.662 756.38L549.882 756.47L553.452 745.19H557.232L551.892 761H549.252L545.202 751.52L545.772 751.58L541.932 761H539.322ZM560.368 761V745.19H564.058V761H560.368ZM562.168 741.83C561.428 741.83 560.848 741.65 560.428 741.29C560.028 740.91 559.828 740.38 559.828 739.7C559.828 739.06 560.038 738.54 560.458 738.14C560.878 737.74 561.448 737.54 562.168 737.54C562.928 737.54 563.508 737.73 563.908 738.11C564.328 738.47 564.538 739 564.538 739.7C564.538 740.32 564.328 740.83 563.908 741.23C563.488 741.63 562.908 741.83 562.168 741.83ZM570.447 761V741.17H574.137V761H570.447ZM567.327 748.61V745.19H577.587V748.61H567.327ZM580.397 761V738.8H584.057V748.43L583.367 748.79C583.567 748.07 583.957 747.42 584.537 746.84C585.117 746.24 585.807 745.76 586.607 745.4C587.407 745.04 588.227 744.86 589.067 744.86C590.267 744.86 591.267 745.1 592.067 745.58C592.887 746.06 593.497 746.78 593.897 747.74C594.317 748.7 594.527 749.9 594.527 751.34V761H590.837V751.61C590.837 750.81 590.727 750.15 590.507 749.63C590.287 749.09 589.947 748.7 589.487 748.46C589.027 748.2 588.467 748.08 587.807 748.1C587.267 748.1 586.767 748.19 586.307 748.37C585.867 748.53 585.477 748.77 585.137 749.09C584.817 749.39 584.557 749.74 584.357 750.14C584.177 750.54 584.087 750.98 584.087 751.46V761H582.257C581.897 761 581.557 761 581.237 761C580.937 761 580.657 761 580.397 761Z" fill="#60489C"/>
<path d="M219.298 337.03C225.906 335.739 226.855 344.655 221.702 345.747C214.836 347.2 214.342 337.994 219.298 337.03Z" fill="#1F7E8E"/>
<path d="M401.571 312.659C393.983 318.728 388.31 300.534 398.55 301.985C404.161 302.786 405.905 309.193 401.571 312.659Z" fill="#F5BC63"/>
<path d="M595.79 337.035C598.621 336.437 602.177 343.613 601.993 345.562C601.717 348.528 595.353 351.517 592.764 349.137C592.384 348.791 589.012 343.565 589.001 343.206C588.932 340.97 594.041 337.406 595.79 337.035Z" fill="#F5BC63"/>
<path d="M556.836 467.316C550.384 460.555 562.661 450.946 567.091 459.168C571.021 466.457 561.202 471.894 556.836 467.316Z" fill="#77B1A3"/>
<path d="M430.855 262.256C443.635 259.599 443.912 278.499 432.61 279.28C420.563 280.122 422.282 264.035 430.855 262.256Z" fill="#1F7E8E"/>
<path d="M435.501 273.775C429.947 279.69 422.252 267.896 430.86 266.116C435.802 265.095 438.05 271.058 435.501 273.775Z" fill="#FAF5EA"/>
<g clip-path="url(#clip1_377_2216)">
<path d="M465.941 304.217C466.73 304.723 466.36 309.326 466.551 309.526C466.921 309.903 471.294 308.69 471.891 310.479C472.728 312.998 468.988 313.94 468.952 315.694C468.928 317.201 475.356 327.265 469.549 324.534C468.403 323.993 464.388 318.967 463.851 318.955C457.447 325.923 452.907 324.911 458.164 315.412C456.634 314.847 452.823 314.917 452.274 313.246C450.374 307.525 458.916 311.904 461.055 310.597C461.76 310.162 463.48 302.64 465.929 304.217H465.941Z" fill="#AFC901"/>
</g>
<path d="M383.179 380.346C385.646 379.634 382.567 376.11 382.075 374.926C377.964 364.959 373.651 345.837 385.225 339.363C396.798 332.889 408.672 343.689 415.752 351.649C416.885 352.924 420.014 358.133 420.636 358.505C422.562 359.689 428.509 356.537 431.046 355.885C448.797 351.318 465.434 351.318 483.175 355.885C486.354 356.708 489.313 358.485 492.592 358.866C493.926 358.655 497.707 352.582 499.111 350.997C506.422 342.776 521.716 331.112 531.785 341.461C541.743 351.689 534.001 371.644 528.736 382.605C531.965 387.623 536.257 391.618 539.447 396.697C540.74 398.765 543.629 402.419 542.967 404.647C542.646 405.741 536.217 414.022 534.944 415.558C526.309 426.077 514.575 436.817 503.554 444.767C500.365 447.065 495.942 448.822 493.575 451.733V572.354L492.602 573.327H477.619L455.466 493.128C452.467 493.168 454.483 499.431 454.523 501.248C455.045 524.063 454.042 546.949 454.523 569.774C454.613 572.143 453.901 573.046 451.585 573.347C449.739 573.588 439.37 573.548 438.196 572.996C437.554 572.695 437.093 571.812 436.742 571.189C432.189 551.847 426.362 532.836 421.298 513.634C420.476 510.523 420.155 506.176 419.172 503.376C418.761 502.222 418.159 502.121 417.036 502.252L377.532 571.601C375.356 574.763 368.998 573.317 365.678 573.317L350.365 573.337C346.333 573.337 347.657 567.415 347.657 564.474V528.329C346.524 528.128 345.962 528.871 345.43 529.684C339.584 538.547 334.479 550.03 328.883 559.415C325.804 564.575 323.257 572.002 317.43 573.307C310.54 574.853 301.495 573.327 294.404 573.337C293.672 573.337 292.89 573.327 292.268 572.936C290.383 571.731 291.646 560.57 291.646 558.391V437.701C291.646 436.004 290.192 419.984 291.646 419.131L293.181 418.228C311.393 430.032 336.836 429.65 354.878 417.876C355.65 416.812 355.81 405.831 355.79 403.483C355.79 402.84 355.63 401.395 354.516 401.867C352.832 402.579 348.419 406.644 345.721 408.06C327.85 417.455 305.616 415.136 291.646 400.22V382.615L293.181 381.711C309.167 391.026 326.817 392.652 344.257 386.379C346.604 385.536 356.402 380.336 357.104 380.336H383.159L383.179 380.346ZM527.191 417.234C528.796 415.528 536.338 406.594 536.889 405.089C537.732 402.77 536.899 401.646 535.816 399.699C529.257 387.955 504.797 366.314 491.339 364.678C483.396 363.714 474.21 364.808 467.099 368.492C465.204 369.466 458.144 375.097 457.421 375.167C455.345 375.368 454.122 372.667 452.527 371.583C431.918 357.501 412.974 365.531 395.885 380.005C388.424 386.329 381.293 394.891 376.58 403.493C376.58 404.286 380.702 409.535 381.574 410.639C382.908 412.326 387.802 418.569 389.005 419.502C389.747 420.075 390.359 420.306 391.292 420.085C397.841 404.175 427.415 371.292 443.702 392.783C449.017 399.799 448.847 408.813 443.11 415.548C436.03 423.869 428.208 424.632 423.003 437.148C421.799 440.029 419.523 444.556 422.351 446.754C424.908 448.732 433.954 453.048 437.324 454.584C441.055 456.29 453.45 461.65 456.84 461.801C458.856 461.891 468.122 458.388 470.589 457.394C476.245 455.116 483.637 451.432 488.932 448.37C490.195 447.638 493.144 446.353 493.505 445.068C492.602 438.112 488.38 430.273 483.496 425.324C480.026 421.811 474.681 419.482 471.432 415.879C458.053 401.074 474.561 377.917 494.678 388.697C506.632 395.101 517.123 407.668 522.879 419.814H524.885C525.497 418.75 526.409 418.057 527.191 417.224V417.234ZM435.168 403.764C435.168 400.652 432.64 398.123 429.531 398.123C426.423 398.123 423.895 400.652 423.895 403.764C423.895 406.875 426.423 409.405 429.531 409.405C432.64 409.405 435.168 406.875 435.168 403.764ZM490.316 403.744C490.316 400.632 487.799 398.113 484.69 398.113C481.581 398.113 479.063 400.632 479.063 403.744C479.063 406.855 481.581 409.375 484.69 409.375C487.799 409.375 490.316 406.855 490.316 403.744Z" fill="#60489C"/>
<path d="M291.712 345.325L293.258 344.402C295.76 346.127 298.841 347.891 301.633 349.024C316.878 355.2 334.576 354.317 349.363 347.3C351.547 346.267 355.665 341.886 355.595 346.498C355.505 352.232 355.076 358.127 354.837 363.872C338.216 381.356 308.284 380.694 291.702 363.561V345.325H291.712Z" fill="#60489C"/>
<path d="M295.557 309.458C312.892 318.868 334.831 319.049 352.075 309.297C353.815 309.679 355.748 324.609 355.586 327.123C341.561 341.902 317.871 344.074 300.293 334C298.502 332.974 292.886 329.325 292.066 327.756C291.084 325.896 292.349 319.411 292.815 317.018C293.118 315.44 293.847 309.588 295.557 309.458Z" fill="#60489C"/>
<path d="M320.689 277.186C332.739 275.446 342.99 286.224 347.17 296.405C339.87 302.43 327.899 304.349 318.579 303.484C315.578 303.206 300.768 299.089 300.128 296.594C302.408 288.441 311.948 278.449 320.689 277.186Z" fill="#60489C"/>
<path d="M429.319 409.703C432.421 409.703 434.936 407.188 434.936 404.086C434.936 400.984 432.421 398.469 429.319 398.469C426.217 398.469 423.702 400.984 423.702 404.086C423.702 407.188 426.217 409.703 429.319 409.703Z" fill="#AFC901"/>
<path d="M484.787 409.703C487.889 409.703 490.404 407.188 490.404 404.086C490.404 400.984 487.889 398.469 484.787 398.469C481.685 398.469 479.17 400.984 479.17 404.086C479.17 407.188 481.685 409.703 484.787 409.703Z" fill="#AFC901"/>
<path d="M455.3 445.475C453.637 441.598 445.134 436.402 443.712 433.345C443.381 432.636 443.131 432.086 443.702 431.397C448.79 427.26 456.011 425.691 462.441 427.01C464.024 427.33 470.755 430.737 470.745 432.376C470.735 433.655 458.976 444.935 456.832 446.214L455.3 445.475Z" fill="#60489C"/>
<path d="M486.983 393.896C480.104 394.781 475.304 401.63 476.262 409.189L501.17 405.976C500.212 398.417 493.862 393.01 486.983 393.896Z" fill="#FAF5EA"/>
<path d="M486.616 414.009C490.967 414.009 494.495 410.481 494.495 406.13C494.495 401.778 490.967 398.25 486.616 398.25C482.264 398.25 478.736 401.778 478.736 406.13C478.736 410.481 482.264 414.009 486.616 414.009Z" fill="#60489C"/>
<path d="M431.257 394.079C438.187 394.965 443.023 401.814 442.058 409.373L416.966 406.16C417.931 398.6 424.327 393.194 431.257 394.079Z" fill="#FAF5EA"/>
<path d="M431.612 414.194C435.913 414.194 439.399 410.625 439.399 406.222C439.399 401.819 435.913 398.25 431.612 398.25C427.312 398.25 423.825 401.819 423.825 406.222C423.825 410.625 427.312 414.194 431.612 414.194Z" fill="#60489C"/>
<path d="M252.052 243.181C250.58 248.217 249.11 253.253 247.638 258.289C247.319 259.379 248.003 260.403 249.018 260.765C253.957 262.534 258.896 264.301 263.837 266.068L262.457 263.592C260.985 268.628 259.514 273.663 258.043 278.699C257.724 279.789 258.407 280.814 259.423 281.176C264.362 282.944 269.3 284.711 274.241 286.479L272.861 284.002C271.389 289.038 269.919 294.074 268.447 299.11C268.128 300.2 268.812 301.224 269.827 301.586C274.766 303.355 279.705 305.122 284.646 306.889C287.08 307.761 288.164 303.899 285.742 303.033C280.803 301.265 275.864 299.498 270.924 297.73L272.304 300.206C273.775 295.17 275.246 290.135 276.718 285.099C277.036 284.009 276.353 282.985 275.338 282.622C270.398 280.854 265.46 279.087 260.519 277.319L261.899 279.796C263.371 274.76 264.841 269.724 266.313 264.688C266.632 263.598 265.948 262.574 264.933 262.212C259.994 260.443 255.055 258.676 250.115 256.909L251.495 259.385C252.966 254.349 254.437 249.314 255.909 244.278C256.634 241.797 252.776 240.701 252.052 243.181Z" fill="#EE755D"/>
<path d="M515.198 299.099C512.233 301.43 510.442 304.812 510.582 308.641C510.672 311.057 511.601 313.329 513.065 315.233L520.041 324.312C520.83 325.338 521.618 326.366 522.41 327.392C523.333 328.593 524.929 329.123 526.287 328.267C527.481 327.516 528.076 325.613 527.148 324.405C525.359 322.074 523.568 319.745 521.776 317.414C520.666 315.969 519.556 314.525 518.445 313.08C518.17 312.722 517.892 312.363 517.618 312.003C517.558 311.924 517.497 311.845 517.437 311.763C517.238 311.492 517.051 311.212 516.883 310.92C516.815 310.803 516.566 310.312 516.793 310.799C516.707 310.614 516.634 310.424 516.564 310.234C516.508 310.082 516.457 309.928 516.411 309.774C516.387 309.695 516.211 308.984 516.277 309.308C516.344 309.644 516.254 309.15 516.247 309.071C516.225 308.874 516.204 308.677 516.195 308.477C516.183 308.267 516.273 307.192 516.186 307.781C516.243 307.39 516.305 307.001 516.404 306.618C516.443 306.465 516.497 306.315 516.538 306.163C516.369 306.789 516.577 306.098 516.629 305.981C516.795 305.614 516.995 305.273 517.201 304.926C517.144 305.02 516.845 305.376 517.188 304.946C517.316 304.786 517.443 304.628 517.578 304.475C517.717 304.32 517.858 304.172 518.007 304.028C518.098 303.942 518.657 303.485 518.215 303.834C519.403 302.902 519.948 301.344 519.076 299.972C518.328 298.795 516.393 298.159 515.199 299.097L515.198 299.099Z" fill="#AFC901"/>
<path d="M561.184 267.216C562.974 269.547 564.764 271.876 566.556 274.208C567.666 275.652 568.777 277.097 569.887 278.541C570.163 278.899 570.44 279.258 570.714 279.618C570.775 279.698 570.835 279.777 570.895 279.858C571.095 280.129 571.282 280.41 571.449 280.701C571.517 280.819 571.766 281.31 571.539 280.822C571.625 281.008 571.699 281.198 571.769 281.388C571.824 281.54 571.876 281.694 571.922 281.848C571.945 281.927 572.121 282.638 572.055 282.314C571.988 281.978 572.078 282.472 572.086 282.551C572.107 282.748 572.128 282.945 572.137 283.144C572.149 283.355 572.059 284.43 572.146 283.841C572.089 284.232 572.027 284.621 571.928 285.004C571.889 285.157 571.836 285.308 571.794 285.46C571.963 284.833 571.756 285.525 571.703 285.641C571.538 286.008 571.337 286.35 571.131 286.696C571.188 286.602 571.487 286.246 571.144 286.676C571.016 286.836 570.889 286.994 570.754 287.148C570.615 287.302 570.474 287.45 570.325 287.594C570.234 287.681 569.675 288.137 570.117 287.788C568.929 288.721 568.383 290.279 569.256 291.651C570.004 292.828 571.939 293.464 573.133 292.526C576.098 290.195 577.889 286.812 577.749 282.983C577.66 280.567 576.731 278.295 575.267 276.39C572.94 273.364 570.617 270.337 568.29 267.311C567.501 266.285 566.713 265.257 565.922 264.231C564.999 263.029 563.402 262.5 562.045 263.356C560.851 264.107 560.256 266.01 561.183 267.219L561.184 267.216Z" fill="#AFC901"/>
<path d="M569.781 287.624C566.99 289.597 563.663 289.17 561.496 286.5C560.082 284.759 558.792 282.919 557.389 281.167C551.704 274.068 540.225 275.684 537.579 284.646C535.689 291.043 540.37 295.308 543.752 300.008C545.911 303.011 545.265 307.252 541.66 308.805C538.635 310.108 536.04 308.466 534.24 306.128C532.499 303.868 530.806 301.055 528.528 299.291C524.562 296.22 519.065 296.166 515.011 299.03C512.104 301.083 515.087 305.775 518.001 303.718C520.792 301.744 524.119 302.171 526.286 304.841C527.7 306.583 528.989 308.423 530.393 310.175C536.077 317.273 547.556 315.658 550.203 306.695C552.093 300.298 547.412 296.034 544.03 291.333C541.871 288.33 542.517 284.09 546.122 282.537C549.146 281.234 551.742 282.875 553.542 285.214C555.283 287.474 556.976 290.286 559.254 292.05C563.22 295.121 568.717 295.175 572.771 292.312C575.678 290.258 572.694 285.566 569.781 287.624Z" fill="#AFC901"/>
</g>
<path d="M775.5 46C776.328 46 777 45.1046 777 44C777 42.8954 776.328 42 775.5 42C774.672 42 774 42.8954 774 44C774 45.1046 774.672 46 775.5 46Z" fill="#AFC901"/>
<path d="M791.5 46C792.328 46 793 45.1046 793 44C793 42.8954 792.328 42 791.5 42C790.672 42 790 42.8954 790 44C790 45.1046 790.672 46 791.5 46Z" fill="#AFC901"/>
</g>
<defs>
<filter id="filter0_d_377_2216" x="65" y="133" width="704" height="934" filterUnits="userSpaceOnUse" color-interpolation-filters="sRGB">
<feFlood flood-opacity="0" result="BackgroundImageFix"/>
<feColorMatrix in="SourceAlpha" type="matrix" values="0 0 0 0 0 0 0 0 0 0 0 0 0 0 0 0 0 0 127 0" result="hardAlpha"/>
<feOffset dy="4"/>
<feGaussianBlur stdDeviation="2"/>
<feComposite in2="hardAlpha" operator="out"/>
<feColorMatrix type="matrix" values="0 0 0 0 0 0 0 0 0 0 0 0 0 0 0 0 0 0 0.25 0"/>
<feBlend mode="normal" in2="BackgroundImageFix" result="effect1_dropShadow_377_2216"/>
<feBlend mode="normal" in="SourceGraphic" in2="effect1_dropShadow_377_2216" result="shape"/>
</filter>
<clipPath id="clip0_377_2216">
<rect width="834" height="1194" fill="white"/>
</clipPath>
<clipPath id="clip1_377_2216">
<rect width="20" height="21" fill="white" transform="translate(452 304)"/>
</clipPath>
</defs>
</svg>
