<svg width="314" height="323" viewBox="0 0 314 323" fill="none" xmlns="http://www.w3.org/2000/svg">
<g clip-path="url(#clip0_390_4042)">
<path d="M254.864 166.21C234.323 111.3 161.187 108.339 178.85 28.5314C180.158 22.6098 174.009 18.0339 169.037 21.1294C121.545 49.9302 87.3974 107.666 116.05 183.302C118.405 189.493 111.34 195.28 106.237 191.243C82.5566 172.805 80.0707 146.292 82.1641 127.316C82.9491 120.317 74.0524 116.953 70.2582 122.74C61.3616 136.736 52.3341 159.346 52.3341 193.396C57.3057 268.763 119.19 291.911 141.432 294.872C173.224 299.044 207.633 292.988 232.361 269.705C259.574 243.73 269.517 202.279 254.864 166.21ZM133.451 233.906C152.291 229.195 161.972 215.199 164.589 202.817C168.907 183.571 152.029 164.73 163.412 134.314C167.729 159.481 206.194 175.227 206.194 202.682C207.241 236.732 171.392 265.936 133.451 233.906Z" fill="#FFCE51"/>
</g>
<path d="M213.356 302L226.75 297.856V293L209.75 296.014L213.356 302Z" fill="#FAF5EA" stroke="#FAF5EA"/>
<rect x="121.25" y="254.5" width="84" height="49" fill="#FAF5EA" stroke="#FAF5EA"/>
<rect x="206" y="260" width="20" height="36" fill="#FAF5EA"/>
<path d="M210.858 254L225.75 260.6L223.696 265H206.75L210.858 254Z" fill="#FAF5EA" stroke="#FAF5EA"/>
<path d="M200.795 255.693C200.09 254.548 197.287 254.988 195.925 254.876C192.697 254.94 189.998 254.428 188.356 257.343C180.979 270.019 180.811 286.315 187.162 299.464C190.094 304.389 184.727 304.077 181.171 303.94C177.639 304.012 174.194 304.165 171.936 301.306C165.352 293.682 163.333 282.736 164.839 272.998C165.728 267.024 169.028 261.579 172.112 256.582C172.761 254.38 169.212 254.948 167.867 254.86C158.199 253.034 156.653 264.133 154.778 271.196C149.948 293.074 166.273 304.693 155.876 303.948C151.462 303.772 146.104 304.973 143.196 300.905C134.377 289.302 133.248 273.43 140.897 260.994C142.924 257.911 146.12 254.324 139.952 254.772C133.793 253.907 130.605 256.766 128.898 262.444C124.709 272.662 124.405 283.921 128.138 294.315C128.586 297.438 134.65 304.349 128.138 303.828C114.937 303.46 101.593 297.959 91.9649 289.206C72.2205 272.101 67.1663 241.383 80.2464 218.801C87.5434 205.051 96.13 192.022 103.419 178.273C104.997 173.756 112.951 166.397 109.483 162.233C105.974 157.821 101.497 153.721 99.2859 148.492C98.7413 144.103 103.059 140.476 105.277 136.968C107.112 134.622 109.523 132.78 108.858 129.809C106.006 122.386 102.506 114.947 104.108 106.746C106.07 94.8228 118.766 94.9109 126.624 101.525C132.134 104.432 135.122 114.298 140.921 112.248C156.028 107.003 174.731 106.891 189.894 112.28C192.89 113.329 194.74 111.103 196.286 108.845C214.548 86.0301 234.781 98.6906 223.415 125.445C220.828 130.113 220.403 132.348 224.577 136.328C227.22 140.356 233.572 145.593 230.087 150.574C226.531 156.539 220.652 160.912 217.352 166.926C216.118 196.363 217.624 226.128 216.695 255.621C201.412 291.328 224.192 301.586 210.872 302.803C197.559 307.039 193.258 289.526 192.857 279.572C192.665 273.422 194.556 267.176 197.431 261.803C198.272 259.833 200.755 257.727 200.811 255.717V255.685L200.795 255.693ZM196.598 137.697C203.911 142.774 210.864 149.332 215.069 157.204C215.59 158.085 216.214 159.254 217.111 159.566C218.489 159.943 219.53 158.493 220.379 157.572C222.166 155.442 223.944 153.304 225.722 151.062C226.483 150.093 227.204 148.956 227.308 147.731C227.46 146.297 226.651 144.824 225.802 143.631C219.29 134.374 209.838 125.613 199.858 120.504C190.014 115.323 177.006 116.876 168.139 123.563C165.648 125.485 163.942 125.044 161.611 123.187C152.408 116.604 140.024 115.579 129.82 120.784C119.471 126.27 110.756 134.678 104.156 144.287C102.674 146.393 102.602 148.427 104.204 150.502C106.006 152.896 107.848 155.146 109.787 157.484C110.58 158.397 111.685 159.735 112.967 159.566C113.76 159.462 114.497 158.429 114.945 157.677C115.586 156.596 116.179 155.474 116.868 154.465C122.483 146.297 132.655 135.214 142.724 133.981C146.977 133.685 151.967 135.919 154.634 139.427C157.486 143.367 158.639 148.219 156.557 152.84C155.131 156.628 152.552 158.79 149.348 160.872C146.304 162.97 143.565 165.628 141.426 168.671C139.856 170.898 138.655 173.348 137.838 175.951C136.836 178.745 137.501 180.883 140.216 182.301C145.743 185.384 151.406 188.219 157.39 190.381C161.162 191.742 164.831 193.24 168.828 191.79C175.316 189.78 181.604 186.929 187.547 183.67C193.338 180.851 194.131 179.114 191.424 173.132C186.137 160.992 175.3 160.704 172.985 150.734C171.968 146.081 173.794 140.644 177.446 137.505C183.085 132.58 190.775 133.205 196.534 137.657L196.598 137.697ZM143.356 143.471C140.168 143.879 138.422 148.011 140.513 150.542C142.323 152.944 146.544 152.431 147.922 149.773C149.668 146.834 146.632 143.038 143.436 143.463H143.364L143.356 143.471ZM184.904 143.751C182.621 144.504 181.083 147.378 182.3 149.597C184.327 153.288 190.142 152.672 190.775 148.283C191.183 145.304 187.747 142.694 184.976 143.727L184.904 143.751Z" fill="#60489C"/>
<path d="M226.4 260.942C227.46 260.685 227.645 261.463 228.295 261.832C232.905 264.448 237.298 267.593 239.651 272.544C244.976 283.722 237.105 291.593 227.99 296.889C227.275 297.306 227.203 298.221 225.982 297.523C225.292 297.13 225.348 296.367 225.043 295.774C220.015 285.84 219.509 274.197 224.344 263.894C224.569 263.413 225.275 261.929 225.5 261.592C225.637 261.383 226.167 260.99 226.392 260.934L226.4 260.942Z" fill="#60489C"/>
<path d="M184.942 143.663C185.441 143.514 187.489 143.569 187.979 143.766C188.557 143.994 190.273 145.758 190.502 146.341C191.024 147.648 190.676 149.333 189.83 150.404C188.272 152.381 186.967 151.987 184.618 151.822C182.847 150.538 181.123 148.617 182.325 146.309C182.404 146.16 183.313 144.86 183.408 144.758C183.471 144.687 184.863 143.687 184.95 143.656L184.942 143.663Z" fill="black"/>
<path d="M164.266 164.854C168.252 164.725 172.76 165.797 175.712 168.602C176.746 169.771 175.687 171.085 174.781 171.948C172.319 174.398 169.632 177.082 167.073 179.589C165.734 180.952 164.779 180.952 163.472 179.589C161.379 177.574 158.21 174.455 155.957 172.254C155.299 171.593 154.449 170.876 154.296 169.932C154.208 166.918 161.74 165.048 164.138 164.87H164.266V164.854Z" fill="#60489C"/>
<path d="M149.377 143.289H138.094V154.717H149.377V143.289Z" fill="#60489C"/>
<path d="M188.504 141.484C183.137 142.175 179.392 147.519 180.139 153.416L199.572 150.909C198.825 145.012 193.871 140.793 188.504 141.484Z" fill="white"/>
<path d="M187.994 142.387C184.351 142.932 181.156 146.792 180.291 150.405C179.947 151.846 179.659 153.6 180.651 154.81C182.053 156.339 184.839 156.003 187.121 155.002C188.29 154.489 189.579 154.585 190.836 154.425C192.502 154.209 194.335 154.049 196.089 153.833C197.442 153.608 198.779 153.496 199.428 152.295C200.156 150.893 199.003 148.202 197.242 146.256C195.112 143.805 191.116 141.979 188.114 142.379L188.002 142.395L187.994 142.387Z" fill="white"/>
<path d="M193.038 154.386C196.801 149.949 191.036 143.293 185.816 145.696C182.389 147.025 180.819 152.031 183.438 154.762C185.183 156.548 191.188 155.915 192.934 154.474L193.03 154.386H193.038Z" fill="white"/>
<path d="M188.217 157.178C191.612 157.178 194.365 154.426 194.365 151.031C194.365 147.635 191.612 144.883 188.217 144.883C184.822 144.883 182.069 147.635 182.069 151.031C182.069 154.426 184.822 157.178 188.217 157.178Z" fill="#60489C"/>
<path d="M141.723 141.34C147.13 142.031 150.903 147.374 150.15 153.272L130.572 150.765C131.325 144.867 136.316 140.649 141.723 141.34Z" fill="white"/>
<path d="M142.178 142.153C145.821 142.698 149.016 146.558 149.881 150.17C150.225 151.612 150.514 153.366 149.521 154.575C148.119 156.105 145.333 155.769 143.051 154.767C141.882 154.255 140.593 154.351 139.336 154.191C137.67 153.975 135.837 153.814 134.083 153.598C132.73 153.374 131.393 153.262 130.745 152.06C130.016 150.659 131.169 147.968 132.93 146.022C135.06 143.571 139.056 141.745 142.058 142.145L142.17 142.161L142.178 142.153Z" fill="white"/>
<path d="M137.134 154.151C133.371 149.714 139.136 143.059 144.356 145.461C147.783 146.791 149.353 151.797 146.734 154.528C144.989 156.314 138.984 155.681 137.238 154.239L137.142 154.151H137.134Z" fill="white"/>
<path d="M142 157.03C145.355 157.03 148.075 154.245 148.075 150.81C148.075 147.375 145.355 144.59 142 144.59C138.645 144.59 135.925 147.375 135.925 150.81C135.925 154.245 138.645 157.03 142 157.03Z" fill="#60489C"/>
<path d="M220.186 158.275C219.569 158.924 218.867 159.464 218.391 160.285H216.831C212.352 150.832 203.809 141.487 194.5 136.499C178.847 128.109 166.392 145.695 176.801 157.228C179.329 160.027 183.488 161.848 186.188 164.585C189.988 168.439 193.273 174.546 193.976 179.964C193.702 180.957 191.408 181.965 190.417 182.536C186.297 184.921 180.547 187.798 176.146 189.565C174.226 190.339 167.016 193.068 165.448 192.997C162.81 192.872 153.166 188.705 150.263 187.376C147.649 186.172 140.603 182.81 138.613 181.277C136.405 179.573 137.677 176.25 138.613 173.999C142.663 164.249 147.5 162.999 154 156.499C158.463 151.245 158.636 144.956 154.5 139.499C141.828 122.751 119.542 148.111 114.447 160.504C113.721 160.676 113.245 160.504 112.668 160.05C111.5 160.05 107.038 154.812 106 153.499C105.313 152.631 102.508 147.116 102.5 146.499C106.16 139.798 111.687 133.93 117.5 128.997C130.796 117.715 146.057 111.748 162.092 122.725C163.333 123.569 163.885 124.656 165.5 124.5C166.062 124.445 171.963 121.075 173.43 120.317C178.963 117.455 186.118 116.603 192.29 117.346C202.762 118.612 221.801 135.477 226.897 144.624C227.739 146.141 228.387 147.017 227.731 148.823C227.31 149.996 221.442 156.954 220.186 158.283V158.275ZM164.285 180.159L165.479 180.738C167.141 179.737 176.302 170.91 176.317 169.909C176.325 168.619 171.081 165.961 169.849 165.711C164.839 164.687 159.205 165.906 155.249 169.143C154.804 169.683 154.999 170.113 155.257 170.668C156.365 173.06 162.99 177.126 164.285 180.159Z" fill="#FAF5EA"/>
<defs>
<clipPath id="clip0_390_4042">
<rect width="314" height="323" fill="white"/>
</clipPath>
</defs>
</svg>
