<svg width="184" height="169" viewBox="0 0 184 169" fill="none" xmlns="http://www.w3.org/2000/svg">
<path d="M-16.5205 16.4118C-17.96 25.3691 -11.8656 33.7974 -2.90835 35.237C6.04895 36.6765 14.4773 30.5822 15.9168 21.6249C17.3563 12.6676 11.262 4.23927 2.30468 2.79973C-6.65262 1.36019 -15.0809 7.45453 -16.5205 16.4118Z" fill="#6447A1"/>
<path d="M146.392 193.641C135.081 179.398 123.769 165.147 112.458 150.904C110.843 148.865 109.219 146.829 107.603 144.79C105.158 141.714 101.113 140.305 97.5501 142.595C94.501 144.557 92.8448 149.613 95.3009 152.709C106.611 166.952 117.924 181.203 129.234 195.446C130.85 197.485 132.474 199.52 134.09 201.559C136.535 204.635 140.58 206.045 144.142 203.754C147.192 201.792 148.848 196.736 146.392 193.641Z" fill="#1F7E8E"/>
<path d="M168.606 176.293C157.296 162.05 145.983 147.799 134.673 133.556C133.057 131.517 131.433 129.481 129.817 127.443C127.372 124.366 123.327 122.957 119.764 125.247C116.715 127.209 115.059 132.265 117.515 135.361C128.825 149.604 140.138 163.855 151.448 178.098C153.064 180.137 154.688 182.173 156.304 184.211C158.749 187.288 162.794 188.697 166.357 186.407C169.406 184.445 171.062 179.389 168.606 176.293Z" fill="#1F7E8E"/>
<path d="M-43.9687 163.518C-29.1067 170.674 -14.2401 177.827 0.621898 184.983C3.91463 186.567 8.43338 184.129 9.53579 180.846C14.8013 165.144 20.0622 149.447 25.3277 133.746C22.3592 135.126 19.3824 136.504 16.4138 137.884C31.2759 145.04 46.1424 152.193 61.0045 159.35C64.2972 160.933 68.8159 158.496 69.9184 155.212C75.1838 139.511 80.4448 123.813 85.7103 108.112C88.5397 99.6685 75.5645 94.8757 72.7128 103.376C67.4473 119.077 62.1864 134.774 56.9209 150.475C59.8894 149.096 62.8662 147.717 65.8348 146.337C50.9727 139.181 36.1062 132.028 21.2441 124.871C17.9514 123.288 13.4326 125.726 12.3302 129.009C7.06476 144.71 1.8038 160.408 -3.46168 176.109C-0.493134 174.729 2.48366 173.35 5.45222 171.971C-9.40982 164.814 -24.2764 157.662 -39.1384 150.505C-47.1415 146.653 -51.936 159.681 -43.9687 163.518Z" fill="#EE755D"/>
<path d="M-9.79469 16.9714C-22.3453 27.3871 -24.5295 46.0754 -14.3375 59.0398C-4.0273 72.1506 14.7214 73.4472 27.5954 63.7639C25.0179 60.7442 22.447 57.7271 19.8696 54.7073C7.31891 65.123 5.1347 83.8113 15.3267 96.7757C25.6369 109.887 44.3856 111.183 57.2596 101.5C63.3554 96.9161 55.6158 87.8655 49.5338 92.4432C41.6783 98.3562 30.3855 96.9297 24.3175 89.0635C18.134 81.0445 20.0613 70.0149 27.5862 63.7679C33.4989 58.863 25.9188 50.1547 19.8604 54.7113C12.0049 60.6243 0.71215 59.1978 -5.35587 51.3316C-11.5394 43.3125 -9.61207 32.283 -2.08719 26.036C3.781 21.1668 -3.92849 12.0976 -9.81305 16.9794L-9.79469 16.9714Z" fill="#AFC901"/>
</svg>
