<svg width="273" height="315" viewBox="0 0 273 315" fill="none" xmlns="http://www.w3.org/2000/svg">
<path d="M216.895 207.631C215.604 206.472 212.294 208.043 210.568 208.403C206.595 209.664 203.066 210.017 202.101 214.227C197.609 232.619 203.365 252.853 216.041 266.805C221.473 271.828 214.715 273.406 210.263 274.539C205.917 275.921 201.709 277.371 197.866 274.658C186.925 267.631 180.42 254.819 178.72 242.214C177.634 234.494 179.725 226.545 181.714 219.231C181.711 216.267 177.526 218.27 175.828 218.653C163.192 219.932 165.341 234.237 165.606 243.666C167.635 272.516 192.096 280.924 178.953 283.808C173.425 285.206 167.232 288.654 162.143 284.682C146.979 273.547 139.772 254.313 144.689 236.118C146.069 231.56 148.712 225.949 141.241 228.762C133.3 229.946 130.4 234.652 130.366 242.305C128.921 256.487 132.665 270.536 141.09 282.036C142.789 285.738 152.824 292.073 144.572 293.813C128.097 298.188 109.564 296.263 94.4425 288.952C63.7402 275.006 46.2396 238.83 54.1655 206.088C58.1656 186.397 64.0258 167.125 68.016 147.437C68.3161 141.269 75.4683 129.247 69.6507 125.362C63.6927 121.184 56.6493 117.748 51.9986 112.084C49.7181 106.851 53.7347 100.78 55.1974 95.6263C56.6091 92.0505 58.9195 88.888 57.009 85.4537C50.762 77.3082 43.7059 69.3805 42.6875 58.6433C40.7522 43.1648 56.5003 38.6267 68.6484 43.9386C76.5342 45.5198 83.8438 56.6388 90.2721 51.9784C107.053 39.9559 130.164 32.9711 150.906 34.0924C154.999 34.2944 156.474 30.8614 157.561 27.5001C171.817 -7.42632 201.498 0.839893 197.221 38.1191C195.727 44.8453 196.019 47.7664 202.642 51.1655C207.388 55.1841 217.168 59.3421 214.678 66.7833C212.46 75.4702 206.782 83.0346 204.898 91.6871C214.146 128.578 226.906 164.873 236.551 201.722C230.702 251.518 262.657 255.878 246.613 262.26C231.684 272.377 219.949 252.272 215.81 240.097C213.321 232.554 213.375 224.13 214.967 216.426C215.287 213.68 217.59 210.164 216.924 207.655L216.912 207.615L216.895 207.631ZM168.509 63.1018C179.42 66.7097 190.427 72.2834 198.514 80.4885C199.481 81.3883 200.682 82.6069 201.907 82.6651C203.75 82.6267 204.509 80.4514 205.223 79.0006C206.654 75.71 208.073 72.4124 209.453 68.9859C210.04 67.5079 210.517 65.8364 210.197 64.2816C209.861 62.4515 208.32 60.9237 206.832 59.7575C195.383 50.6818 180.476 43.2968 166.251 40.6256C152.169 37.8153 136.635 44.4998 128.106 56.0226C125.726 59.3135 123.453 59.3928 119.887 57.9462C106.085 53.1666 90.381 56.4305 79.6541 66.6091C68.8513 77.1874 61.1411 90.7858 56.4883 105.097C55.4248 108.247 56.0801 110.791 58.8224 112.772C61.9297 115.076 65.0339 117.187 68.2893 119.372C69.6051 120.212 71.4629 121.463 72.9878 120.786C73.9313 120.367 74.4654 118.818 74.7452 117.722C75.1427 116.149 75.4661 114.545 75.9494 113.043C79.9103 100.877 88.4461 83.4342 100.458 78.2222C105.615 76.2986 112.61 77.2377 117.196 80.6032C122.168 84.4366 125.372 90.0215 124.485 96.5035C124.106 101.714 121.705 105.335 118.501 109.085C115.501 112.796 113.083 117.09 111.55 121.64C110.421 124.97 109.831 128.443 109.772 131.964C109.556 135.79 111.161 138.193 115.041 138.954C123.011 140.747 131.059 142.184 139.257 142.67C144.426 142.974 149.515 143.485 153.932 140.228C161.228 135.365 167.968 129.534 174.132 123.324C180.269 117.715 180.615 115.274 175.074 108.86C164.086 95.7673 150.565 99.3773 144.05 87.8831C141.088 82.4961 141.359 75.0968 144.731 69.874C149.909 61.7136 159.656 59.6721 168.415 63.0756L168.509 63.1018ZM104.715 89.7373C100.918 91.4097 100.269 97.1639 103.783 99.5312C106.903 101.842 111.941 99.6629 112.674 95.8675C113.759 91.5903 108.612 88.0029 104.811 89.6981L104.722 89.7244L104.715 89.7373ZM156.258 74.8735C153.708 76.6409 152.857 80.7626 155.176 83.0628C159.035 86.8908 166.008 83.999 165.185 78.3351C164.601 74.498 159.391 72.5242 156.339 74.8174L156.258 74.8735Z" fill="#1F7E8E"/>
<path d="M155.002 71.7588C155.564 71.3912 158.12 70.7097 158.799 70.7739C159.598 70.8453 162.368 72.4007 162.865 73.0381C163.99 74.4652 164.176 76.6787 163.52 78.3142C162.315 81.3313 160.556 81.3216 157.587 81.9766C154.924 81.0361 152.087 79.2887 152.73 75.9924C152.774 75.7783 153.424 73.8369 153.504 73.6754C153.556 73.5645 154.913 71.817 155.009 71.7462L155.002 71.7588Z" fill="black"/>
<path d="M136.902 105.633C141.757 104.024 147.692 103.712 152.348 106.112C154.048 107.182 153.227 109.194 152.429 110.591C150.298 114.52 147.976 118.82 145.748 122.853C144.599 125.027 143.425 125.374 141.319 124.163C138.007 122.429 132.969 119.72 129.392 117.815C128.342 117.236 127.034 116.657 126.501 115.545C125.289 111.845 133.866 106.792 136.75 105.7L136.908 105.653L136.902 105.633Z" fill="#1F7E8E"/>
<path d="M110.66 84.3644L96.8715 88.4414L101.054 102.588L114.842 98.5105L110.66 84.3644Z" fill="#1F7E8E"/>
<path d="M159.065 69.2736C152.393 71.2463 148.756 78.8611 150.949 86.2776L175.123 79.1295C172.93 71.713 165.736 67.301 159.065 69.2736Z" fill="#FAF5EA"/>
<path d="M100.114 84.7833C106.987 83.1191 114.013 87.8319 115.821 95.3007L90.9425 101.314C89.1348 93.8454 93.2375 86.4375 100.111 84.7733L100.114 84.7833Z" fill="#FAF5EA"/>
<path d="M100.655 85.5823C105.276 84.4196 111.009 87.3847 113.843 91.2282C114.967 92.7601 116.177 94.6949 115.597 96.6124C115.074 98.3528 112.982 99.1427 112.376 99.397C110.941 99.9928 110.258 99.7338 107.964 100.059C106.708 100.237 105.561 100.598 103.236 101.221C101.142 101.787 98.8696 102.512 96.6628 103.133C94.9359 103.547 93.2738 104.07 91.9112 102.974C90.3365 101.671 90.3869 97.9284 91.5315 94.7402C92.8589 90.7802 96.7376 86.6337 100.533 85.6078L100.672 85.5666L100.655 85.5823Z" fill="#FAF5EA"/>
<path d="M107.245 102.123C111.448 100.88 113.86 96.5058 112.632 92.3522C111.404 88.1986 107.001 85.8389 102.798 87.0817C98.5946 88.3245 96.183 92.6992 97.4112 96.8528C98.6393 101.006 103.042 103.366 107.245 102.123Z" fill="black"/>
<path d="M111.208 99.3907C106.256 99.7517 101.293 100.116 96.341 100.477L111.208 99.3907Z" fill="#F9F5EB"/>
<path d="M94.7585 103.682L111.315 99.7484L108.456 98.2572L94.7585 103.682Z" fill="#F9F5EB"/>
<path d="M107.245 102.123C111.448 100.88 113.86 96.5058 112.632 92.3522C111.404 88.1986 107.001 85.8389 102.798 87.0817C98.5946 88.3245 96.183 92.6992 97.4112 96.8528C98.6393 101.006 103.042 103.366 107.245 102.123Z" fill="#1F7E8E"/>
<path d="M160.509 70.0275C165.129 68.8627 170.847 71.7796 173.668 75.5748C174.785 77.0874 175.989 78.9985 175.404 80.898C174.875 82.622 172.783 83.4101 172.177 83.6636C170.741 84.2576 170.06 84.0035 167.767 84.3319C166.512 84.5124 165.364 84.8731 163.039 85.4969C160.946 86.0628 158.673 86.7879 156.466 87.4086C154.74 87.8239 153.078 88.3471 151.72 87.2657C150.15 85.9819 150.212 82.2774 151.365 79.1187C152.704 75.1955 156.591 71.08 160.387 70.053L160.526 70.0119L160.509 70.0275Z" fill="#FAF5EA"/>
<path d="M167.188 86.5375C171.44 85.2801 173.88 80.8535 172.637 76.6505C171.394 72.4474 166.939 70.0595 162.687 71.317C158.434 72.5744 155.995 77.001 157.237 81.204C158.48 85.4071 162.935 87.795 167.188 86.5375Z" fill="#1F7E8E"/>
</svg>
