<svg width="214" height="31" viewBox="0 0 214 31" fill="none" xmlns="http://www.w3.org/2000/svg">
<path d="M7.68 24.08H18.56C19.44 24.08 20.08 24.1867 20.48 24.4C20.88 24.5867 21.1467 24.8933 21.28 25.32C21.4133 25.7467 21.48 26.32 21.48 27.04C21.48 27.7333 21.4133 28.2933 21.28 28.72C21.1467 29.1467 20.92 29.44 20.6 29.6C20.0933 29.8667 19.4 30 18.52 30H4.12C2.25333 30 1.16 29.4933 0.84 28.48C0.68 28.0533 0.6 27.3733 0.6 26.44V4.2C0.6 3.58666 0.613333 3.13333 0.64 2.84C0.693333 2.52 0.826667 2.16 1.04 1.76C1.41333 1.04 2.45333 0.679998 4.16 0.679998C6.02667 0.679998 7.13333 1.17333 7.48 2.16C7.61333 2.61333 7.68 3.30667 7.68 4.24V24.08ZM32.6553 29.92C29.962 29.92 27.722 28.9067 25.9353 26.88C24.1753 24.8267 23.2953 22.3333 23.2953 19.4V12.4C23.2953 11.76 23.3086 11.2933 23.3353 11C23.3886 10.7067 23.5086 10.36 23.6953 9.96C24.0686 9.24 25.1086 8.88 26.8153 8.88C28.682 8.88 29.7753 9.38667 30.0953 10.4C30.2553 10.8267 30.3353 11.5067 30.3353 12.44V19.44C30.3353 20.5333 30.642 21.3867 31.2553 22C31.8953 22.6133 32.7353 22.92 33.7753 22.92C34.842 22.92 35.6953 22.6 36.3353 21.96C37.002 21.32 37.3353 20.48 37.3353 19.44V12.36C37.3353 11.7467 37.3486 11.2933 37.3753 11C37.4286 10.68 37.562 10.32 37.7753 9.92C38.122 9.22667 39.1486 8.88 40.8553 8.88C42.5353 8.88 43.562 9.24 43.9353 9.96C44.122 10.36 44.2286 10.72 44.2553 11.04C44.3086 11.3333 44.3353 11.7867 44.3353 12.4V26.56C44.3353 27.1467 44.3086 27.6 44.2553 27.92C44.2286 28.2133 44.1086 28.5467 43.8953 28.92C43.4953 29.6133 42.4686 29.96 40.8153 29.96C39.1886 29.96 38.1886 29.64 37.8153 29C37.5486 28.5467 37.4153 28 37.4153 27.36C37.3086 27.5467 37.0686 27.8133 36.6953 28.16C36.322 28.5067 35.962 28.8 35.6153 29.04C34.7086 29.6267 33.722 29.92 32.6553 29.92ZM54.4331 11.72C55.6865 9.82667 57.1931 8.88 58.9531 8.88C61.6731 8.88 63.6998 10.04 65.0331 12.36C65.3265 11.96 65.6731 11.5467 66.0731 11.12C66.4998 10.6667 67.1665 10.1867 68.0731 9.68C68.9798 9.14667 69.9131 8.88 70.8731 8.88C73.0065 8.88 74.7931 9.70667 76.2331 11.36C77.6731 12.9867 78.3931 15.6933 78.3931 19.48V26.48C78.3931 27.0933 78.3665 27.56 78.3131 27.88C78.2865 28.1733 78.1665 28.52 77.9531 28.92C77.6065 29.64 76.5798 30 74.8731 30C73.1931 30 72.1665 29.6267 71.7931 28.88C71.6065 28.48 71.4865 28.1333 71.4331 27.84C71.4065 27.52 71.3931 27.0533 71.3931 26.44V19.44C71.3931 17.12 70.5665 15.96 68.9131 15.96C67.9798 15.96 67.3398 16.2667 66.9931 16.88C66.6731 17.4933 66.5131 18.36 66.5131 19.48V26.48C66.5131 27.12 66.4865 27.5867 66.4331 27.88C66.4065 28.1733 66.2865 28.52 66.0731 28.92C65.6998 29.64 64.6598 30 62.9531 30C61.2731 30 60.2465 29.6267 59.8731 28.88C59.6865 28.48 59.5665 28.1333 59.5131 27.84C59.4865 27.52 59.4731 27.0533 59.4731 26.44V19.44C59.4731 17.12 58.6465 15.96 56.9931 15.96C55.3931 15.96 54.5931 17.12 54.5931 19.44V26.52C54.5931 27.1333 54.5665 27.6 54.5131 27.92C54.4865 28.2133 54.3665 28.56 54.1531 28.96C53.7531 29.6533 52.7131 30 51.0331 30C49.3531 30 48.3265 29.64 47.9531 28.92C47.7665 28.52 47.6465 28.1733 47.5931 27.88C47.5665 27.5867 47.5531 27.12 47.5531 26.48V12.4C47.5531 11.7867 47.5665 11.3333 47.5931 11.04C47.6465 10.72 47.7798 10.3733 47.9931 10C48.3931 9.28 49.3398 8.92 50.8331 8.92C52.3265 8.92 53.2998 9.16 53.7531 9.64C54.2065 10.12 54.4331 10.8133 54.4331 11.72ZM80.9766 19.48C80.9766 16.28 82.0966 13.64 84.3366 11.56C86.5766 9.48 89.1366 8.44 92.0166 8.44C94.8966 8.44 97.4432 9.48 99.6566 11.56C101.87 13.6133 102.977 16.24 102.977 19.44C102.977 21.6533 102.403 23.6267 101.257 25.36C100.11 27.0667 98.7099 28.3333 97.0566 29.16C95.4299 29.96 93.7366 30.36 91.9766 30.36C90.2166 30.36 88.5099 29.9333 86.8566 29.08C85.2032 28.2 83.8032 26.92 82.6566 25.24C81.5366 23.5333 80.9766 21.6133 80.9766 19.48ZM89.3366 22.36C90.1899 23 91.0566 23.32 91.9366 23.32C92.8166 23.32 93.6966 22.9867 94.5766 22.32C95.4566 21.6533 95.8966 20.6667 95.8966 19.36C95.8966 18.0533 95.4832 17.08 94.6566 16.44C93.8299 15.8 92.9366 15.48 91.9766 15.48C91.0166 15.48 90.1232 15.8133 89.2966 16.48C88.4699 17.1467 88.0566 18.1333 88.0566 19.44C88.0566 20.72 88.4832 21.6933 89.3366 22.36Z" fill="#60489C"/>
<path d="M112.641 24.08H123.521C124.401 24.08 125.041 24.1867 125.441 24.4C125.841 24.5867 126.108 24.8933 126.241 25.32C126.374 25.7467 126.441 26.32 126.441 27.04C126.441 27.7333 126.374 28.2933 126.241 28.72C126.108 29.1467 125.881 29.44 125.561 29.6C125.054 29.8667 124.361 30 123.481 30H109.081C107.214 30 106.121 29.4933 105.801 28.48C105.641 28.0533 105.561 27.3733 105.561 26.44V4.2C105.561 3.58666 105.574 3.13333 105.601 2.84C105.654 2.52 105.788 2.16 106.001 1.76C106.374 1.04 107.414 0.679998 109.121 0.679998C110.988 0.679998 112.094 1.17333 112.441 2.16C112.574 2.61333 112.641 3.30667 112.641 4.24V24.08ZM147.756 16.96C147.756 18.5867 147.343 19.8 146.516 20.6C145.716 21.3733 144.823 21.76 143.836 21.76H134.356C134.356 22.5067 134.796 23.1333 135.676 23.64C136.556 24.1467 137.436 24.4 138.316 24.4C139.863 24.4 141.076 24.24 141.956 23.92L142.396 23.76C143.036 23.4667 143.569 23.32 143.996 23.32C144.849 23.32 145.583 23.92 146.196 25.12C146.543 25.84 146.716 26.4533 146.716 26.96C146.716 29.3333 143.876 30.52 138.196 30.52C136.223 30.52 134.463 30.1867 132.916 29.52C131.396 28.8267 130.209 27.92 129.356 26.8C127.676 24.64 126.836 22.2267 126.836 19.56C126.836 16.2 127.916 13.52 130.076 11.52C132.263 9.49333 134.983 8.48 138.236 8.48C141.943 8.48 144.663 9.78667 146.396 12.4C147.303 13.7867 147.756 15.3067 147.756 16.96ZM139.316 18.12C140.329 18.12 140.836 17.6933 140.836 16.84C140.836 16.2267 140.596 15.7333 140.116 15.36C139.663 14.9867 138.996 14.8 138.116 14.8C137.263 14.8 136.409 15.16 135.556 15.88C134.703 16.5733 134.276 17.32 134.276 18.12H139.316ZM164.046 11.16C164.206 9.66667 165.259 8.92 167.206 8.92C168.246 8.92 169.019 9 169.526 9.16C170.032 9.32 170.379 9.6 170.566 10C170.779 10.4 170.899 10.76 170.926 11.08C170.979 11.3733 171.006 11.8267 171.006 12.44V26.44C171.006 27.0533 170.979 27.52 170.926 27.84C170.899 28.1333 170.792 28.48 170.606 28.88C170.232 29.5733 169.312 29.92 167.846 29.92C166.406 29.92 165.432 29.7467 164.926 29.4C164.446 29.0267 164.166 28.4933 164.086 27.8C163.099 29.2133 161.446 29.92 159.126 29.92C156.832 29.92 154.699 28.8667 152.726 26.76C150.752 24.6533 149.766 22.2133 149.766 19.44C149.766 16.64 150.752 14.2 152.726 12.12C154.726 10.0133 156.912 8.96 159.286 8.96C160.192 8.96 161.019 9.12 161.766 9.44C162.512 9.76 163.032 10.0667 163.326 10.36C163.619 10.6267 163.859 10.8933 164.046 11.16ZM156.766 19.48C156.766 20.36 157.112 21.16 157.806 21.88C158.499 22.5733 159.339 22.92 160.326 22.92C161.312 22.92 162.126 22.56 162.766 21.84C163.432 21.12 163.766 20.3333 163.766 19.48C163.766 18.6 163.446 17.7867 162.806 17.04C162.192 16.2933 161.352 15.92 160.286 15.92C159.246 15.92 158.392 16.2933 157.726 17.04C157.086 17.7867 156.766 18.6 156.766 19.48ZM188.514 9.16C189.02 9.32 189.434 9.6 189.754 10C190.1 10.3733 190.274 10.9867 190.274 11.84C190.274 12.6933 190.02 13.6267 189.514 14.64C189.007 15.6533 188.274 16.16 187.314 16.16C186.834 16.16 186.367 16.0533 185.914 15.84C185.487 15.6267 184.914 15.52 184.194 15.52C183.474 15.52 182.794 15.7733 182.154 16.28C181.54 16.7867 181.234 17.4 181.234 18.12V26.52C181.234 27.1333 181.207 27.6 181.154 27.92C181.127 28.2133 181.007 28.56 180.794 28.96C180.394 29.6533 179.354 30 177.674 30C176.394 30 175.474 29.7733 174.914 29.32C174.487 28.9467 174.247 28.3733 174.194 27.6C174.194 27.3333 174.194 26.9467 174.194 26.44V12.4C174.194 11.7867 174.207 11.3333 174.234 11.04C174.287 10.72 174.407 10.3733 174.594 10C174.967 9.28 176.007 8.92 177.714 8.92C179.314 8.92 180.314 9.22667 180.714 9.84C181.007 10.2667 181.154 10.7067 181.154 11.16C181.287 10.9733 181.474 10.7467 181.714 10.48C181.98 10.2133 182.527 9.85333 183.354 9.4C184.18 8.94667 184.9 8.72 185.514 8.72C186.154 8.72 186.687 8.76 187.114 8.84C187.54 8.89333 188.007 9 188.514 9.16ZM204.195 8.92C206.862 8.92 209.075 9.94667 210.835 12C212.622 14.0267 213.515 16.5067 213.515 19.44V26.48C213.515 27.0933 213.488 27.56 213.435 27.88C213.408 28.1733 213.302 28.5067 213.115 28.88C212.742 29.6 211.702 29.96 209.995 29.96C208.102 29.96 207.008 29.4667 206.715 28.48C206.555 28.0267 206.475 27.3467 206.475 26.44V19.4C206.475 18.3067 206.155 17.4533 205.515 16.84C204.902 16.2267 204.062 15.92 202.995 15.92C201.955 15.92 201.102 16.24 200.435 16.88C199.795 17.52 199.475 18.36 199.475 19.4V26.48C199.475 27.0933 199.448 27.56 199.395 27.88C199.368 28.1733 199.248 28.5067 199.035 28.88C198.688 29.6 197.662 29.96 195.955 29.96C194.275 29.96 193.248 29.6 192.875 28.88C192.688 28.48 192.568 28.1333 192.515 27.84C192.488 27.52 192.475 27.0533 192.475 26.44V12.28C192.475 11.6933 192.488 11.2533 192.515 10.96C192.568 10.64 192.702 10.2933 192.915 9.92C193.288 9.25333 194.315 8.92 195.995 8.92C197.622 8.92 198.622 9.22667 198.995 9.84C199.262 10.2933 199.395 10.84 199.395 11.48C199.502 11.2933 199.742 11.0267 200.115 10.68C200.488 10.3333 200.848 10.0533 201.195 9.84C202.102 9.22667 203.102 8.92 204.195 8.92Z" fill="#1F7E8E"/>
</svg>
