<svg width="66" height="66" viewBox="0 0 66 66" fill="none" xmlns="http://www.w3.org/2000/svg">
<rect width="66" height="66" rx="20" fill="#60489C"/>
<path d="M53.1244 35.7504C52.8976 35.998 52.6391 36.2038 52.464 36.5171H51.8897C50.2414 32.9102 47.2407 29.1751 43.815 27.2717C38.0547 24.0705 33.3282 30.9502 37.1588 35.3506C38.0892 36.4187 39.6197 37.1138 40.6132 38.158C42.0117 39.6287 43.2206 41.9588 43.479 44.0262C43.3785 44.4051 42.5343 44.79 42.1696 45.0078C40.6534 45.9177 38.5371 47.0156 36.9176 47.6898C36.2112 47.9851 33.5579 49.0263 32.9807 48.9995C32.0102 48.9518 28.461 47.3616 27.3928 46.8545C26.4308 46.395 23.8378 45.1122 23.1056 44.5274C22.293 43.8771 22.9477 42.5316 23.2922 41.6723C24.7826 37.9521 27.0223 37.7254 29.0496 35.2522C30.6921 33.2473 30.741 30.5683 29.2191 28.4859C24.5557 22.0955 16.0876 31.872 14.2125 36.6006C13.9455 36.6663 13.7703 36.6006 13.5578 36.4276C13.2132 36.1502 11.8119 34.2945 11.43 33.7933C11.1773 33.4621 10.0029 31.9048 10 31.6691C11.3467 29.1124 13.3884 26.5706 15.5277 24.6881C20.4207 20.3831 25.845 17.9964 31.746 22.185C32.2026 22.5072 32.5529 23.3098 33.1473 23.2501C33.354 23.2292 35.3785 21.5555 35.9183 21.2662C37.9542 20.1743 40.5874 19.8491 42.8588 20.1325C46.7123 20.6158 53.7188 27.0509 55.5939 30.5414C55.904 31.1202 56.1424 31.4543 55.9012 32.1435C55.7461 32.591 53.5867 35.2462 53.1244 35.7534V35.7504ZM32.5529 44.1008L32.9922 44.3216C33.6039 43.9397 36.975 40.5715 36.9808 40.1896C36.9836 39.6974 35.054 38.683 34.6003 38.5876C32.7568 38.1967 30.6835 38.6621 29.2277 39.8973C29.064 40.1031 29.1358 40.2672 29.2305 40.479C29.6383 41.3919 32.0762 42.9433 32.5529 44.1008Z" fill="white"/>
<path d="M32.4878 44.7367C32.0021 43.3564 29.5177 41.5064 29.1022 40.4178C29.0056 40.1652 28.9325 39.9695 29.0993 39.724C30.5858 38.2512 32.6956 37.6926 34.5742 38.1623C35.0365 38.2761 37.0029 39.4892 37 40.0727C36.9971 40.5281 33.5617 44.5446 32.9355 45L32.4878 44.7367Z" fill="#232D2B"/>
<path d="M41.9561 29.0585C39.9844 29.3123 38.6087 31.2752 38.8833 33.4417L46.022 32.5208C45.7475 30.3543 43.9277 28.8046 41.9561 29.0585Z" fill="white"/>
<path d="M41.7686 29.3904C40.4303 29.5905 39.2567 31.0086 38.9391 32.3355C38.8126 32.8651 38.7067 33.5094 39.0714 33.9537C39.5862 34.5156 40.6097 34.392 41.448 34.0243C41.8774 33.836 42.351 33.8713 42.8128 33.8124C43.4246 33.733 44.0981 33.6742 44.7423 33.5947C45.2394 33.5123 45.7306 33.4712 45.9688 33.0298C46.2365 32.515 45.8129 31.5264 45.1658 30.8115C44.3834 29.9112 42.9157 29.2404 41.8127 29.3875L41.7716 29.3934L41.7686 29.3904Z" fill="white"/>
<path d="M43.6216 33.7969C45.004 32.1669 42.8863 29.722 40.9686 30.6047C39.7097 31.0931 39.1332 32.9319 40.095 33.9352C40.7362 34.5913 42.9422 34.3588 43.5834 33.8292L43.6187 33.7969H43.6216Z" fill="white"/>
<path d="M41.8507 34.8253C43.0979 34.8253 44.109 33.8142 44.109 32.567C44.109 31.3197 43.0979 30.3086 41.8507 30.3086C40.6034 30.3086 39.5923 31.3197 39.5923 32.567C39.5923 33.8142 40.6034 34.8253 41.8507 34.8253Z" fill="#232D2B"/>
<path d="M25.9842 29.1132C27.9704 29.367 29.3564 31.3299 29.0797 33.4964L21.8881 32.5755C22.1647 30.409 23.9979 28.8593 25.9842 29.1132Z" fill="white"/>
<path d="M26.1515 29.41C27.4898 29.61 28.6634 31.0281 28.9811 32.355C29.1075 32.8846 29.2134 33.5289 28.8487 33.9732C28.334 34.5352 27.3104 34.4116 26.4721 34.0438C26.0427 33.8555 25.5691 33.8908 25.1073 33.832C24.4956 33.7525 23.822 33.6937 23.1778 33.6143C22.6808 33.5319 22.1896 33.4907 21.9513 33.0494C21.6837 32.5345 22.1072 31.5459 22.7543 30.831C23.5367 29.9307 25.0044 29.2599 26.1074 29.407L26.1486 29.4129L26.1515 29.41Z" fill="white"/>
<path d="M24.2985 33.8164C22.9161 32.1865 25.0338 29.7416 26.9516 30.6242C28.2104 31.1126 28.7869 32.9514 27.8251 33.9547C27.1839 34.6108 24.9779 34.3784 24.3367 33.8488L24.3014 33.8164H24.2985Z" fill="white"/>
<path d="M26.086 34.8785C27.3186 34.8785 28.3178 33.8555 28.3178 32.5935C28.3178 31.3316 27.3186 30.3086 26.086 30.3086C24.8534 30.3086 23.8542 31.3316 23.8542 32.5935C23.8542 33.8555 24.8534 34.8785 26.086 34.8785Z" fill="#232D2B"/>
</svg>
