<svg width="834" height="1194" viewBox="0 0 834 1194" fill="none" xmlns="http://www.w3.org/2000/svg">
<g filter="url(#filter0_d_380_2997)">
<rect x="69" y="133" width="696" height="926" rx="20" fill="#FAF5EA"/>
<path d="M180.3 700C174.7 700 169.633 699.1 165.1 697.3C160.567 695.5 156.667 692.967 153.4 689.7C150.133 686.433 147.633 682.6 145.9 678.2C144.167 673.733 143.3 668.9 143.3 663.7C143.3 658.5 144.2 653.733 146 649.4C147.867 645 150.5 641.167 153.9 637.9C157.3 634.633 161.3 632.1 165.9 630.3C170.567 628.5 175.633 627.6 181.1 627.6C184.967 627.6 188.6 628.1 192 629.1C195.467 630.1 198.6 631.467 201.4 633.2C204.2 634.933 206.567 636.933 208.5 639.2L198.2 650.1C196.533 648.5 194.8 647.167 193 646.1C191.267 645.033 189.4 644.2 187.4 643.6C185.4 642.933 183.267 642.6 181 642.6C178.067 642.6 175.367 643.133 172.9 644.2C170.5 645.267 168.367 646.767 166.5 648.7C164.7 650.567 163.3 652.8 162.3 655.4C161.3 657.933 160.8 660.7 160.8 663.7C160.8 666.7 161.333 669.5 162.4 672.1C163.467 674.7 164.933 676.967 166.8 678.9C168.667 680.767 170.867 682.267 173.4 683.4C176 684.467 178.767 685 181.7 685C183.767 685 185.7 684.667 187.5 684C189.367 683.333 190.967 682.433 192.3 681.3C193.633 680.167 194.7 678.833 195.5 677.3C196.3 675.7 196.7 674 196.7 672.2V669.6L198.9 673H179.6V659.7H212.5C212.633 660.433 212.733 661.433 212.8 662.7C212.867 663.967 212.9 665.2 212.9 666.4C212.967 667.6 213 668.5 213 669.1C213 673.633 212.167 677.8 210.5 681.6C208.9 685.333 206.633 688.567 203.7 691.3C200.767 694.033 197.3 696.167 193.3 697.7C189.3 699.233 184.967 700 180.3 700ZM224.323 699V645.9H239.523L240.223 663.2L237.223 659.9C238.023 657.033 239.323 654.467 241.123 652.2C242.989 649.933 245.156 648.133 247.623 646.8C250.089 645.467 252.723 644.8 255.523 644.8C256.723 644.8 257.823 644.9 258.823 645.1C259.889 645.3 260.856 645.533 261.723 645.8L257.323 663.5C256.589 663.033 255.589 662.667 254.323 662.4C253.123 662.067 251.856 661.9 250.523 661.9C249.056 661.9 247.689 662.167 246.423 662.7C245.156 663.167 244.089 663.867 243.223 664.8C242.356 665.733 241.656 666.833 241.123 668.1C240.656 669.367 240.423 670.8 240.423 672.4V699H224.323ZM292.884 700C287.018 700 281.918 698.833 277.584 696.5C273.251 694.1 269.884 690.867 267.484 686.8C265.084 682.667 263.884 677.967 263.884 672.7C263.884 668.633 264.551 664.9 265.884 661.5C267.218 658.1 269.084 655.167 271.484 652.7C273.884 650.167 276.718 648.233 279.984 646.9C283.318 645.5 286.951 644.8 290.884 644.8C294.618 644.8 298.018 645.467 301.084 646.8C304.218 648.133 306.918 650 309.184 652.4C311.451 654.8 313.184 657.633 314.384 660.9C315.584 664.167 316.118 667.733 315.984 671.6L315.884 675.9H273.584L271.284 666.9H302.884L301.184 668.8V666.8C301.051 665.133 300.518 663.667 299.584 662.4C298.718 661.067 297.551 660.033 296.084 659.3C294.618 658.567 292.951 658.2 291.084 658.2C288.484 658.2 286.251 658.733 284.384 659.8C282.584 660.8 281.218 662.3 280.284 664.3C279.351 666.233 278.884 668.633 278.884 671.5C278.884 674.433 279.484 677 280.684 679.2C281.951 681.333 283.751 683 286.084 684.2C288.484 685.4 291.318 686 294.584 686C296.851 686 298.851 685.667 300.584 685C302.384 684.333 304.318 683.2 306.384 681.6L313.884 692.2C311.818 694 309.618 695.467 307.284 696.6C304.951 697.733 302.551 698.567 300.084 699.1C297.684 699.7 295.284 700 292.884 700ZM345.778 699.9C341.311 699.9 337.311 698.733 333.778 696.4C330.311 694 327.545 690.733 325.478 686.6C323.411 682.4 322.378 677.667 322.378 672.4C322.378 667 323.411 662.233 325.478 658.1C327.545 653.967 330.378 650.733 333.978 648.4C337.578 646 341.678 644.8 346.278 644.8C348.811 644.8 351.111 645.167 353.178 645.9C355.311 646.633 357.178 647.667 358.778 649C360.378 650.267 361.745 651.767 362.878 653.5C364.011 655.167 364.845 656.967 365.378 658.9L362.078 658.5V645.9H377.978V699H361.778V686.2L365.378 686.1C364.845 687.967 363.978 689.733 362.778 691.4C361.578 693.067 360.111 694.533 358.378 695.8C356.645 697.067 354.711 698.067 352.578 698.8C350.445 699.533 348.178 699.9 345.778 699.9ZM350.178 686.4C352.645 686.4 354.778 685.833 356.578 684.7C358.378 683.567 359.778 681.967 360.778 679.9C361.778 677.767 362.278 675.267 362.278 672.4C362.278 669.533 361.778 667.067 360.778 665C359.778 662.867 358.378 661.233 356.578 660.1C354.778 658.9 352.645 658.3 350.178 658.3C347.778 658.3 345.678 658.9 343.878 660.1C342.145 661.233 340.778 662.867 339.778 665C338.778 667.067 338.278 669.533 338.278 672.4C338.278 675.267 338.778 677.767 339.778 679.9C340.778 681.967 342.145 683.567 343.878 684.7C345.678 685.833 347.778 686.4 350.178 686.4ZM396.496 699V632.5H412.496V699H396.496ZM387.096 659.9V645.9H422.796V659.9H387.096ZM482.971 700C480.438 700 478.038 699.7 475.771 699.1C473.504 698.567 471.438 697.767 469.571 696.7C467.704 695.567 466.038 694.233 464.571 692.7C463.104 691.1 461.838 689.333 460.771 687.4L470.471 677.3C471.404 678.7 472.304 679.867 473.171 680.8C474.038 681.667 474.871 682.4 475.671 683C476.538 683.6 477.404 684.033 478.271 684.3C479.204 684.567 480.171 684.7 481.171 684.7C482.771 684.7 484.171 684.333 485.371 683.6C486.638 682.8 487.604 681.733 488.271 680.4C488.938 679.067 489.271 677.5 489.271 675.7V643.8H476.471V629H516.671V643.8H505.871V677.7C505.871 681.1 505.271 684.167 504.071 686.9C502.938 689.633 501.338 692 499.271 694C497.204 695.933 494.771 697.433 491.971 698.5C489.238 699.5 486.238 700 482.971 700ZM550.495 700C544.961 700 540.028 698.8 535.695 696.4C531.428 694 528.028 690.733 525.495 686.6C523.028 682.467 521.795 677.733 521.795 672.4C521.795 667.067 523.028 662.333 525.495 658.2C528.028 654.067 531.428 650.8 535.695 648.4C540.028 646 544.961 644.8 550.495 644.8C556.028 644.8 560.928 646 565.195 648.4C569.528 650.8 572.928 654.067 575.395 658.2C577.861 662.333 579.095 667.067 579.095 672.4C579.095 677.733 577.861 682.467 575.395 686.6C572.928 690.733 569.528 694 565.195 696.4C560.928 698.8 556.028 700 550.495 700ZM550.495 686.2C552.895 686.2 555.028 685.6 556.895 684.4C558.761 683.2 560.228 681.567 561.295 679.5C562.361 677.433 562.861 675.067 562.795 672.4C562.861 669.733 562.361 667.367 561.295 665.3C560.228 663.167 558.761 661.5 556.895 660.3C555.028 659.1 552.895 658.5 550.495 658.5C548.095 658.5 545.928 659.1 543.995 660.3C542.128 661.5 540.661 663.167 539.595 665.3C538.528 667.367 538.028 669.733 538.095 672.4C538.028 675.067 538.528 677.433 539.595 679.5C540.661 681.567 542.128 683.2 543.995 684.4C545.928 685.6 548.095 686.2 550.495 686.2ZM621.457 700.1C619.057 700.1 616.757 699.767 614.557 699.1C612.357 698.433 610.357 697.533 608.557 696.4C606.824 695.267 605.357 693.967 604.157 692.5C603.024 690.967 602.257 689.4 601.857 687.8L605.357 686.6L604.457 698.9H589.557V625H605.657V658.6L602.357 657.4C602.757 655.667 603.524 654.067 604.657 652.6C605.79 651.067 607.224 649.733 608.957 648.6C610.69 647.4 612.59 646.467 614.657 645.8C616.724 645.133 618.857 644.8 621.057 644.8C625.657 644.8 629.724 646 633.257 648.4C636.857 650.733 639.69 654 641.757 658.2C643.824 662.333 644.857 667.067 644.857 672.4C644.857 677.8 643.824 682.6 641.757 686.8C639.757 690.933 636.99 694.2 633.457 696.6C629.924 698.933 625.924 700.1 621.457 700.1ZM617.257 686.6C619.657 686.6 621.757 686 623.557 684.8C625.357 683.6 626.724 681.967 627.657 679.9C628.657 677.767 629.157 675.267 629.157 672.4C629.157 669.6 628.657 667.133 627.657 665C626.724 662.867 625.357 661.233 623.557 660.1C621.757 658.967 619.657 658.4 617.257 658.4C614.79 658.4 612.657 658.967 610.857 660.1C609.057 661.233 607.657 662.867 606.657 665C605.657 667.133 605.157 669.6 605.157 672.4C605.157 675.267 605.657 677.767 606.657 679.9C607.657 681.967 609.057 683.6 610.857 684.8C612.657 686 614.79 686.6 617.257 686.6ZM658.677 673.5C658.144 669.433 657.611 665.233 657.077 660.9C656.544 656.567 656.111 652.267 655.777 648C655.444 643.733 655.277 639.633 655.277 635.7V627.9H672.177V635.7C672.177 639.7 672.011 643.867 671.677 648.2C671.344 652.533 670.911 656.867 670.377 661.2C669.844 665.467 669.277 669.567 668.677 673.5H658.677ZM663.677 700.1C660.944 700.1 658.811 699.333 657.277 697.8C655.744 696.267 654.977 694.067 654.977 691.2C654.977 688.533 655.777 686.367 657.377 684.7C658.977 683.033 661.077 682.2 663.677 682.2C666.411 682.2 668.511 683 669.977 684.6C671.511 686.133 672.277 688.333 672.277 691.2C672.277 693.8 671.477 695.933 669.877 697.6C668.277 699.267 666.211 700.1 663.677 700.1Z" fill="#60489C"/>
<path d="M231.881 761V750.53L232.091 752L223.601 740H228.161L234.641 749.3L233.231 749.21L239.081 740H243.461L235.331 752.33L235.781 750.29V761H231.881ZM250.567 761.3C248.987 761.3 247.577 760.95 246.337 760.25C245.097 759.53 244.117 758.55 243.397 757.31C242.677 756.07 242.317 754.66 242.317 753.08C242.317 751.5 242.677 750.09 243.397 748.85C244.117 747.61 245.097 746.64 246.337 745.94C247.577 745.22 248.987 744.86 250.567 744.86C252.127 744.86 253.527 745.22 254.767 745.94C256.007 746.64 256.977 747.61 257.677 748.85C258.397 750.09 258.757 751.5 258.757 753.08C258.757 754.66 258.397 756.07 257.677 757.31C256.977 758.55 256.007 759.53 254.767 760.25C253.527 760.95 252.127 761.3 250.567 761.3ZM250.567 758.03C251.427 758.03 252.187 757.81 252.847 757.37C253.527 756.93 254.057 756.34 254.437 755.6C254.837 754.86 255.027 754.02 255.007 753.08C255.027 752.12 254.837 751.27 254.437 750.53C254.057 749.79 253.527 749.21 252.847 748.79C252.187 748.35 251.427 748.13 250.567 748.13C249.707 748.13 248.927 748.35 248.227 748.79C247.547 749.21 247.017 749.8 246.637 750.56C246.257 751.3 246.067 752.14 246.067 753.08C246.067 754.02 246.257 754.86 246.637 755.6C247.017 756.34 247.547 756.93 248.227 757.37C248.927 757.81 249.707 758.03 250.567 758.03ZM267.547 761.3C266.407 761.3 265.417 761.05 264.577 760.55C263.737 760.03 263.097 759.3 262.657 758.36C262.217 757.4 261.997 756.26 261.997 754.94V745.19H265.687V754.16C265.687 755 265.817 755.72 266.077 756.32C266.337 756.9 266.717 757.35 267.217 757.67C267.717 757.99 268.317 758.15 269.017 758.15C269.537 758.15 270.007 758.07 270.427 757.91C270.867 757.73 271.247 757.49 271.567 757.19C271.887 756.87 272.137 756.5 272.317 756.08C272.497 755.64 272.587 755.17 272.587 754.67V745.19H276.277V761H272.677L272.617 757.7L273.277 757.34C273.037 758.1 272.627 758.78 272.047 759.38C271.487 759.96 270.817 760.43 270.037 760.79C269.257 761.13 268.427 761.3 267.547 761.3ZM289.421 767.6V745.19H293.051L293.111 748.79L292.481 748.52C292.601 747.9 292.941 747.32 293.501 746.78C294.061 746.22 294.741 745.77 295.541 745.43C296.361 745.09 297.211 744.92 298.091 744.92C299.491 744.92 300.731 745.27 301.811 745.97C302.911 746.67 303.771 747.63 304.391 748.85C305.031 750.07 305.351 751.48 305.351 753.08C305.351 754.66 305.031 756.07 304.391 757.31C303.771 758.53 302.911 759.5 301.811 760.22C300.731 760.92 299.511 761.27 298.151 761.27C297.231 761.27 296.341 761.09 295.481 760.73C294.641 760.37 293.921 759.9 293.321 759.32C292.741 758.74 292.381 758.13 292.241 757.49L293.141 757.07V767.6H289.421ZM297.401 758C298.241 758 298.991 757.79 299.651 757.37C300.311 756.95 300.821 756.37 301.181 755.63C301.561 754.89 301.751 754.04 301.751 753.08C301.751 752.12 301.571 751.28 301.211 750.56C300.851 749.82 300.341 749.24 299.681 748.82C299.021 748.4 298.261 748.19 297.401 748.19C296.521 748.19 295.751 748.4 295.091 748.82C294.451 749.22 293.941 749.79 293.561 750.53C293.181 751.27 292.991 752.12 292.991 753.08C292.991 754.04 293.181 754.89 293.561 755.63C293.941 756.37 294.451 756.95 295.091 757.37C295.751 757.79 296.521 758 297.401 758ZM314.609 761.3C313.309 761.3 312.129 760.94 311.069 760.22C310.009 759.5 309.159 758.52 308.519 757.28C307.879 756.04 307.559 754.63 307.559 753.05C307.559 751.47 307.879 750.06 308.519 748.82C309.159 747.58 310.029 746.61 311.129 745.91C312.229 745.21 313.469 744.86 314.849 744.86C315.649 744.86 316.379 744.98 317.039 745.22C317.699 745.44 318.279 745.76 318.779 746.18C319.279 746.6 319.689 747.08 320.009 747.62C320.349 748.16 320.579 748.74 320.699 749.36L319.889 749.15V745.19H323.609V761H319.859V757.22L320.729 757.07C320.589 757.61 320.329 758.14 319.949 758.66C319.589 759.16 319.129 759.61 318.569 760.01C318.029 760.39 317.419 760.7 316.739 760.94C316.079 761.18 315.369 761.3 314.609 761.3ZM315.629 758.03C316.489 758.03 317.249 757.82 317.909 757.4C318.569 756.98 319.079 756.4 319.439 755.66C319.819 754.9 320.009 754.03 320.009 753.05C320.009 752.09 319.819 751.24 319.439 750.5C319.079 749.76 318.569 749.18 317.909 748.76C317.249 748.34 316.489 748.13 315.629 748.13C314.769 748.13 314.009 748.34 313.349 748.76C312.709 749.18 312.209 749.76 311.849 750.5C311.489 751.24 311.309 752.09 311.309 753.05C311.309 754.03 311.489 754.9 311.849 755.66C312.209 756.4 312.709 756.98 313.349 757.4C314.009 757.82 314.769 758.03 315.629 758.03ZM333.168 761.3C331.768 761.3 330.508 761.07 329.388 760.61C328.288 760.13 327.388 759.45 326.688 758.57L329.088 756.5C329.688 757.18 330.358 757.67 331.098 757.97C331.838 758.27 332.618 758.42 333.438 758.42C333.778 758.42 334.078 758.38 334.338 758.3C334.618 758.22 334.858 758.1 335.058 757.94C335.258 757.78 335.408 757.6 335.508 757.4C335.628 757.18 335.688 756.94 335.688 756.68C335.688 756.2 335.508 755.82 335.148 755.54C334.948 755.4 334.628 755.25 334.188 755.09C333.768 754.93 333.218 754.77 332.538 754.61C331.458 754.33 330.558 754.01 329.838 753.65C329.118 753.27 328.558 752.85 328.158 752.39C327.818 752.01 327.558 751.58 327.378 751.1C327.218 750.62 327.138 750.1 327.138 749.54C327.138 748.84 327.288 748.21 327.588 747.65C327.908 747.07 328.338 746.57 328.878 746.15C329.418 745.73 330.048 745.41 330.768 745.19C331.488 744.97 332.238 744.86 333.018 744.86C333.818 744.86 334.588 744.96 335.328 745.16C336.088 745.36 336.788 745.65 337.428 746.03C338.088 746.39 338.648 746.83 339.108 747.35L337.068 749.6C336.688 749.24 336.268 748.92 335.808 748.64C335.368 748.36 334.918 748.14 334.458 747.98C333.998 747.8 333.568 747.71 333.168 747.71C332.788 747.71 332.448 747.75 332.148 747.83C331.848 747.89 331.598 747.99 331.398 748.13C331.198 748.27 331.038 748.45 330.918 748.67C330.818 748.87 330.768 749.11 330.768 749.39C330.788 749.63 330.848 749.86 330.948 750.08C331.068 750.28 331.228 750.45 331.428 750.59C331.648 750.73 331.978 750.89 332.418 751.07C332.858 751.25 333.428 751.42 334.128 751.58C335.108 751.84 335.928 752.13 336.588 752.45C337.248 752.77 337.768 753.14 338.148 753.56C338.528 753.92 338.798 754.34 338.958 754.82C339.118 755.3 339.198 755.83 339.198 756.41C339.198 757.35 338.928 758.19 338.388 758.93C337.868 759.67 337.148 760.25 336.228 760.67C335.328 761.09 334.308 761.3 333.168 761.3ZM347.728 761.3C346.328 761.3 345.068 761.07 343.948 760.61C342.848 760.13 341.948 759.45 341.248 758.57L343.648 756.5C344.248 757.18 344.918 757.67 345.658 757.97C346.398 758.27 347.178 758.42 347.998 758.42C348.338 758.42 348.638 758.38 348.898 758.3C349.178 758.22 349.418 758.1 349.618 757.94C349.818 757.78 349.968 757.6 350.068 757.4C350.188 757.18 350.248 756.94 350.248 756.68C350.248 756.2 350.068 755.82 349.708 755.54C349.508 755.4 349.188 755.25 348.748 755.09C348.328 754.93 347.778 754.77 347.098 754.61C346.018 754.33 345.118 754.01 344.398 753.65C343.678 753.27 343.118 752.85 342.718 752.39C342.378 752.01 342.118 751.58 341.938 751.1C341.778 750.62 341.698 750.1 341.698 749.54C341.698 748.84 341.848 748.21 342.148 747.65C342.468 747.07 342.898 746.57 343.438 746.15C343.978 745.73 344.608 745.41 345.328 745.19C346.048 744.97 346.798 744.86 347.578 744.86C348.378 744.86 349.148 744.96 349.888 745.16C350.648 745.36 351.348 745.65 351.988 746.03C352.648 746.39 353.208 746.83 353.668 747.35L351.628 749.6C351.248 749.24 350.828 748.92 350.368 748.64C349.928 748.36 349.478 748.14 349.018 747.98C348.558 747.8 348.128 747.71 347.728 747.71C347.348 747.71 347.008 747.75 346.708 747.83C346.408 747.89 346.158 747.99 345.958 748.13C345.758 748.27 345.598 748.45 345.478 748.67C345.378 748.87 345.328 749.11 345.328 749.39C345.348 749.63 345.408 749.86 345.508 750.08C345.628 750.28 345.788 750.45 345.988 750.59C346.208 750.73 346.538 750.89 346.978 751.07C347.418 751.25 347.988 751.42 348.688 751.58C349.668 751.84 350.488 752.13 351.148 752.45C351.808 752.77 352.328 753.14 352.708 753.56C353.088 753.92 353.358 754.34 353.518 754.82C353.678 755.3 353.758 755.83 353.758 756.41C353.758 757.35 353.488 758.19 352.948 758.93C352.428 759.67 351.708 760.25 350.788 760.67C349.888 761.09 348.868 761.3 347.728 761.3ZM364.419 761.3C362.759 761.3 361.289 760.95 360.009 760.25C358.749 759.55 357.759 758.6 357.039 757.4C356.339 756.18 355.989 754.79 355.989 753.23C355.989 751.99 356.189 750.86 356.589 749.84C356.989 748.82 357.539 747.94 358.239 747.2C358.959 746.44 359.809 745.86 360.789 745.46C361.789 745.04 362.879 744.83 364.059 744.83C365.099 744.83 366.069 745.03 366.969 745.43C367.869 745.83 368.649 746.38 369.309 747.08C369.969 747.76 370.469 748.58 370.809 749.54C371.169 750.48 371.339 751.51 371.319 752.63L371.289 753.92H358.479L357.789 751.4H368.199L367.719 751.91V751.25C367.659 750.63 367.459 750.09 367.119 749.63C366.779 749.15 366.339 748.78 365.799 748.52C365.279 748.24 364.699 748.1 364.059 748.1C363.079 748.1 362.249 748.29 361.569 748.67C360.909 749.05 360.409 749.6 360.069 750.32C359.729 751.02 359.559 751.9 359.559 752.96C359.559 753.98 359.769 754.87 360.189 755.63C360.629 756.39 361.239 756.98 362.019 757.4C362.819 757.8 363.749 758 364.809 758C365.549 758 366.229 757.88 366.849 757.64C367.469 757.4 368.139 756.97 368.859 756.35L370.689 758.9C370.149 759.4 369.529 759.83 368.829 760.19C368.149 760.53 367.429 760.8 366.669 761C365.909 761.2 365.159 761.3 364.419 761.3ZM380.947 761.3C379.547 761.3 378.287 760.95 377.167 760.25C376.067 759.53 375.187 758.56 374.527 757.34C373.887 756.1 373.567 754.68 373.567 753.08C373.567 751.5 373.887 750.09 374.527 748.85C375.167 747.61 376.037 746.64 377.137 745.94C378.257 745.22 379.517 744.86 380.917 744.86C381.677 744.86 382.407 744.98 383.107 745.22C383.827 745.46 384.467 745.79 385.027 746.21C385.587 746.61 386.027 747.06 386.347 747.56C386.687 748.06 386.877 748.58 386.917 749.12L385.927 749.24V738.8H389.617V761H386.047L385.957 757.28L386.677 757.34C386.657 757.84 386.477 758.32 386.137 758.78C385.817 759.24 385.397 759.66 384.877 760.04C384.357 760.42 383.747 760.73 383.047 760.97C382.367 761.19 381.667 761.3 380.947 761.3ZM381.667 758.18C382.527 758.18 383.287 757.96 383.947 757.52C384.607 757.08 385.117 756.48 385.477 755.72C385.857 754.96 386.047 754.08 386.047 753.08C386.047 752.1 385.857 751.23 385.477 750.47C385.117 749.69 384.607 749.09 383.947 748.67C383.287 748.23 382.527 748.01 381.667 748.01C380.807 748.01 380.047 748.23 379.387 748.67C378.727 749.09 378.207 749.69 377.827 750.47C377.467 751.23 377.287 752.1 377.287 753.08C377.287 754.08 377.467 754.96 377.827 755.72C378.207 756.48 378.727 757.08 379.387 757.52C380.047 757.96 380.807 758.18 381.667 758.18ZM404.334 761V741.17H408.024V761H404.334ZM401.214 748.61V745.19H411.474V748.61H401.214ZM414.284 761V738.8H417.944V748.43L417.254 748.79C417.454 748.07 417.844 747.42 418.424 746.84C419.004 746.24 419.694 745.76 420.494 745.4C421.294 745.04 422.114 744.86 422.954 744.86C424.154 744.86 425.154 745.1 425.954 745.58C426.774 746.06 427.384 746.78 427.784 747.74C428.204 748.7 428.414 749.9 428.414 751.34V761H424.724V751.61C424.724 750.81 424.614 750.15 424.394 749.63C424.174 749.09 423.834 748.7 423.374 748.46C422.914 748.2 422.354 748.08 421.694 748.1C421.154 748.1 420.654 748.19 420.194 748.37C419.754 748.53 419.364 748.77 419.024 749.09C418.704 749.39 418.444 749.74 418.244 750.14C418.064 750.54 417.974 750.98 417.974 751.46V761H416.144C415.784 761 415.444 761 415.124 761C414.824 761 414.544 761 414.284 761ZM439.975 761.3C438.315 761.3 436.845 760.95 435.565 760.25C434.305 759.55 433.315 758.6 432.595 757.4C431.895 756.18 431.545 754.79 431.545 753.23C431.545 751.99 431.745 750.86 432.145 749.84C432.545 748.82 433.095 747.94 433.795 747.2C434.515 746.44 435.365 745.86 436.345 745.46C437.345 745.04 438.435 744.83 439.615 744.83C440.655 744.83 441.625 745.03 442.525 745.43C443.425 745.83 444.205 746.38 444.865 747.08C445.525 747.76 446.025 748.58 446.365 749.54C446.725 750.48 446.895 751.51 446.875 752.63L446.845 753.92H434.035L433.345 751.4H443.755L443.275 751.91V751.25C443.215 750.63 443.015 750.09 442.675 749.63C442.335 749.15 441.895 748.78 441.355 748.52C440.835 748.24 440.255 748.1 439.615 748.1C438.635 748.1 437.805 748.29 437.125 748.67C436.465 749.05 435.965 749.6 435.625 750.32C435.285 751.02 435.115 751.9 435.115 752.96C435.115 753.98 435.325 754.87 435.745 755.63C436.185 756.39 436.795 756.98 437.575 757.4C438.375 757.8 439.305 758 440.365 758C441.105 758 441.785 757.88 442.405 757.64C443.025 757.4 443.695 756.97 444.415 756.35L446.245 758.9C445.705 759.4 445.085 759.83 444.385 760.19C443.705 760.53 442.985 760.8 442.225 761C441.465 761.2 440.715 761.3 439.975 761.3ZM458.992 761V738.8H462.712V761H458.992ZM474.165 761.3C472.505 761.3 471.035 760.95 469.755 760.25C468.495 759.55 467.505 758.6 466.785 757.4C466.085 756.18 465.735 754.79 465.735 753.23C465.735 751.99 465.935 750.86 466.335 749.84C466.735 748.82 467.285 747.94 467.985 747.2C468.705 746.44 469.555 745.86 470.535 745.46C471.535 745.04 472.625 744.83 473.805 744.83C474.845 744.83 475.815 745.03 476.715 745.43C477.615 745.83 478.395 746.38 479.055 747.08C479.715 747.76 480.215 748.58 480.555 749.54C480.915 750.48 481.085 751.51 481.065 752.63L481.035 753.92H468.225L467.535 751.4H477.945L477.465 751.91V751.25C477.405 750.63 477.205 750.09 476.865 749.63C476.525 749.15 476.085 748.78 475.545 748.52C475.025 748.24 474.445 748.1 473.805 748.1C472.825 748.1 471.995 748.29 471.315 748.67C470.655 749.05 470.155 749.6 469.815 750.32C469.475 751.02 469.305 751.9 469.305 752.96C469.305 753.98 469.515 754.87 469.935 755.63C470.375 756.39 470.985 756.98 471.765 757.4C472.565 757.8 473.495 758 474.555 758C475.295 758 475.975 757.88 476.595 757.64C477.215 757.4 477.885 756.97 478.605 756.35L480.435 758.9C479.895 759.4 479.275 759.83 478.575 760.19C477.895 760.53 477.175 760.8 476.415 761C475.655 761.2 474.905 761.3 474.165 761.3ZM489.11 761L482.45 745.19H486.47L490.97 757.01L490.19 757.22L494.93 745.19H498.86L491.87 761H489.11ZM508.53 761.3C506.87 761.3 505.4 760.95 504.12 760.25C502.86 759.55 501.87 758.6 501.15 757.4C500.45 756.18 500.1 754.79 500.1 753.23C500.1 751.99 500.3 750.86 500.7 749.84C501.1 748.82 501.65 747.94 502.35 747.2C503.07 746.44 503.92 745.86 504.9 745.46C505.9 745.04 506.99 744.83 508.17 744.83C509.21 744.83 510.18 745.03 511.08 745.43C511.98 745.83 512.76 746.38 513.42 747.08C514.08 747.76 514.58 748.58 514.92 749.54C515.28 750.48 515.45 751.51 515.43 752.63L515.4 753.92H502.59L501.9 751.4H512.31L511.83 751.91V751.25C511.77 750.63 511.57 750.09 511.23 749.63C510.89 749.15 510.45 748.78 509.91 748.52C509.39 748.24 508.81 748.1 508.17 748.1C507.19 748.1 506.36 748.29 505.68 748.67C505.02 749.05 504.52 749.6 504.18 750.32C503.84 751.02 503.67 751.9 503.67 752.96C503.67 753.98 503.88 754.87 504.3 755.63C504.74 756.39 505.35 756.98 506.13 757.4C506.93 757.8 507.86 758 508.92 758C509.66 758 510.34 757.88 510.96 757.64C511.58 757.4 512.25 756.97 512.97 756.35L514.8 758.9C514.26 759.4 513.64 759.83 512.94 760.19C512.26 760.53 511.54 760.8 510.78 761C510.02 761.2 509.27 761.3 508.53 761.3ZM518.728 761V738.8H522.448V761H518.728ZM539.322 761L534.012 745.19L537.792 745.16L541.332 756.44L540.672 756.38L544.512 747.56H546.732L550.662 756.38L549.882 756.47L553.452 745.19H557.232L551.892 761H549.252L545.202 751.52L545.772 751.58L541.932 761H539.322ZM560.368 761V745.19H564.058V761H560.368ZM562.168 741.83C561.428 741.83 560.848 741.65 560.428 741.29C560.028 740.91 559.828 740.38 559.828 739.7C559.828 739.06 560.038 738.54 560.458 738.14C560.878 737.74 561.448 737.54 562.168 737.54C562.928 737.54 563.508 737.73 563.908 738.11C564.328 738.47 564.538 739 564.538 739.7C564.538 740.32 564.328 740.83 563.908 741.23C563.488 741.63 562.908 741.83 562.168 741.83ZM570.447 761V741.17H574.137V761H570.447ZM567.327 748.61V745.19H577.587V748.61H567.327ZM580.397 761V738.8H584.057V748.43L583.367 748.79C583.567 748.07 583.957 747.42 584.537 746.84C585.117 746.24 585.807 745.76 586.607 745.4C587.407 745.04 588.227 744.86 589.067 744.86C590.267 744.86 591.267 745.1 592.067 745.58C592.887 746.06 593.497 746.78 593.897 747.74C594.317 748.7 594.527 749.9 594.527 751.34V761H590.837V751.61C590.837 750.81 590.727 750.15 590.507 749.63C590.287 749.09 589.947 748.7 589.487 748.46C589.027 748.2 588.467 748.08 587.807 748.1C587.267 748.1 586.767 748.19 586.307 748.37C585.867 748.53 585.477 748.77 585.137 749.09C584.817 749.39 584.557 749.74 584.357 750.14C584.177 750.54 584.087 750.98 584.087 751.46V761H582.257C581.897 761 581.557 761 581.237 761C580.937 761 580.657 761 580.397 761Z" fill="#60489C"/>
</g>
<path d="M219.298 337.03C225.906 335.739 226.855 344.655 221.702 345.747C214.836 347.2 214.342 337.994 219.298 337.03Z" fill="#1F7E8E"/>
<path d="M401.571 312.659C393.983 318.728 388.31 300.534 398.55 301.985C404.161 302.786 405.905 309.193 401.571 312.659Z" fill="#F5BC63"/>
<path d="M595.79 337.035C598.621 336.437 602.177 343.613 601.993 345.562C601.717 348.528 595.353 351.517 592.764 349.137C592.384 348.791 589.012 343.565 589.001 343.206C588.932 340.97 594.041 337.406 595.79 337.035Z" fill="#F5BC63"/>
<path d="M556.836 467.316C550.384 460.555 562.661 450.946 567.091 459.168C571.021 466.457 561.202 471.894 556.836 467.316Z" fill="#77B1A3"/>
<path d="M430.855 262.256C443.635 259.599 443.912 278.499 432.61 279.28C420.563 280.122 422.282 264.035 430.855 262.256Z" fill="#1F7E8E"/>
<path d="M435.501 273.775C429.947 279.69 422.252 267.896 430.86 266.116C435.802 265.095 438.05 271.058 435.501 273.775Z" fill="#FAF5EA"/>
<g clip-path="url(#clip0_380_2997)">
<path d="M465.941 304.217C466.73 304.723 466.36 309.326 466.551 309.526C466.921 309.903 471.294 308.69 471.891 310.479C472.728 312.998 468.988 313.94 468.952 315.694C468.928 317.201 475.356 327.265 469.549 324.534C468.403 323.993 464.388 318.967 463.851 318.955C457.447 325.923 452.907 324.911 458.164 315.412C456.634 314.847 452.823 314.917 452.274 313.246C450.374 307.525 458.916 311.904 461.055 310.597C461.76 310.162 463.48 302.64 465.929 304.217H465.941Z" fill="#AFC901"/>
</g>
<path d="M383.179 380.346C385.646 379.634 382.567 376.11 382.075 374.926C377.964 364.959 373.651 345.837 385.225 339.363C396.798 332.889 408.672 343.689 415.752 351.649C416.885 352.924 420.014 358.133 420.636 358.505C422.562 359.689 428.509 356.537 431.046 355.885C448.797 351.318 465.434 351.318 483.175 355.885C486.354 356.708 489.313 358.485 492.592 358.866C493.926 358.655 497.707 352.582 499.111 350.997C506.422 342.776 521.716 331.112 531.785 341.461C541.743 351.689 534.001 371.644 528.736 382.605C531.965 387.623 536.257 391.618 539.447 396.697C540.74 398.765 543.629 402.419 542.967 404.647C542.646 405.741 536.217 414.022 534.944 415.558C526.309 426.077 514.575 436.817 503.554 444.767C500.365 447.065 495.942 448.822 493.575 451.733V572.354L492.602 573.327H477.619L455.466 493.128C452.467 493.168 454.483 499.431 454.523 501.248C455.045 524.063 454.042 546.949 454.523 569.774C454.613 572.143 453.901 573.046 451.585 573.347C449.739 573.588 439.37 573.548 438.196 572.996C437.554 572.695 437.093 571.812 436.742 571.189C432.189 551.847 426.362 532.836 421.298 513.634C420.476 510.523 420.155 506.176 419.172 503.376C418.761 502.222 418.159 502.121 417.036 502.252L377.532 571.601C375.356 574.763 368.998 573.317 365.678 573.317L350.365 573.337C346.333 573.337 347.657 567.415 347.657 564.474V528.329C346.524 528.128 345.962 528.871 345.43 529.684C339.584 538.547 334.479 550.03 328.883 559.415C325.804 564.575 323.257 572.002 317.43 573.307C310.54 574.853 301.495 573.327 294.404 573.337C293.672 573.337 292.89 573.327 292.268 572.936C290.383 571.731 291.646 560.57 291.646 558.391V437.701C291.646 436.004 290.192 419.984 291.646 419.131L293.181 418.228C311.393 430.032 336.836 429.65 354.878 417.876C355.65 416.812 355.81 405.831 355.79 403.483C355.79 402.84 355.63 401.395 354.516 401.867C352.832 402.579 348.419 406.644 345.721 408.06C327.85 417.455 305.616 415.136 291.646 400.22V382.615L293.181 381.711C309.167 391.026 326.817 392.652 344.257 386.379C346.604 385.536 356.402 380.336 357.104 380.336H383.159L383.179 380.346ZM527.191 417.234C528.796 415.528 536.338 406.594 536.889 405.089C537.732 402.77 536.899 401.646 535.816 399.699C529.257 387.955 504.797 366.314 491.339 364.678C483.396 363.714 474.21 364.808 467.099 368.492C465.204 369.466 458.144 375.097 457.421 375.167C455.345 375.368 454.122 372.667 452.527 371.583C431.918 357.501 412.974 365.531 395.885 380.005C388.424 386.329 381.293 394.891 376.58 403.493C376.58 404.286 380.702 409.535 381.574 410.639C382.908 412.326 387.802 418.569 389.005 419.502C389.747 420.075 390.359 420.306 391.292 420.085C397.841 404.175 427.415 371.292 443.702 392.783C449.017 399.799 448.847 408.813 443.11 415.548C436.03 423.869 428.208 424.632 423.003 437.148C421.799 440.029 419.523 444.556 422.351 446.754C424.908 448.732 433.954 453.048 437.324 454.584C441.055 456.29 453.45 461.65 456.84 461.801C458.856 461.891 468.122 458.388 470.589 457.394C476.245 455.116 483.637 451.432 488.932 448.37C490.195 447.638 493.144 446.353 493.505 445.068C492.602 438.112 488.38 430.273 483.496 425.324C480.026 421.811 474.681 419.482 471.432 415.879C458.053 401.074 474.561 377.917 494.678 388.697C506.632 395.101 517.123 407.668 522.879 419.814H524.885C525.497 418.75 526.409 418.057 527.191 417.224V417.234ZM435.168 403.764C435.168 400.652 432.64 398.123 429.531 398.123C426.423 398.123 423.895 400.652 423.895 403.764C423.895 406.875 426.423 409.405 429.531 409.405C432.64 409.405 435.168 406.875 435.168 403.764ZM490.316 403.744C490.316 400.632 487.799 398.113 484.69 398.113C481.581 398.113 479.063 400.632 479.063 403.744C479.063 406.855 481.581 409.375 484.69 409.375C487.799 409.375 490.316 406.855 490.316 403.744Z" fill="#60489C"/>
<path d="M291.712 345.325L293.258 344.402C295.76 346.127 298.841 347.891 301.633 349.024C316.878 355.2 334.576 354.317 349.363 347.3C351.547 346.267 355.665 341.886 355.595 346.498C355.505 352.232 355.076 358.127 354.837 363.872C338.216 381.356 308.284 380.694 291.702 363.561V345.325H291.712Z" fill="#60489C"/>
<path d="M295.557 309.458C312.892 318.868 334.831 319.049 352.075 309.297C353.815 309.679 355.748 324.609 355.586 327.123C341.561 341.902 317.871 344.074 300.293 334C298.502 332.974 292.886 329.325 292.066 327.756C291.084 325.896 292.349 319.411 292.815 317.018C293.118 315.44 293.847 309.588 295.557 309.458Z" fill="#60489C"/>
<path d="M320.689 277.186C332.739 275.446 342.99 286.224 347.17 296.405C339.87 302.43 327.899 304.349 318.579 303.484C315.578 303.206 300.768 299.089 300.128 296.594C302.408 288.441 311.948 278.449 320.689 277.186Z" fill="#60489C"/>
<path d="M429.319 409.703C432.421 409.703 434.936 407.188 434.936 404.086C434.936 400.984 432.421 398.469 429.319 398.469C426.217 398.469 423.702 400.984 423.702 404.086C423.702 407.188 426.217 409.703 429.319 409.703Z" fill="#AFC901"/>
<path d="M484.787 409.703C487.889 409.703 490.404 407.188 490.404 404.086C490.404 400.984 487.889 398.469 484.787 398.469C481.685 398.469 479.17 400.984 479.17 404.086C479.17 407.188 481.685 409.703 484.787 409.703Z" fill="#AFC901"/>
<path d="M455.3 445.475C453.637 441.598 445.134 436.402 443.712 433.345C443.381 432.636 443.131 432.086 443.702 431.397C448.79 427.26 456.011 425.691 462.441 427.01C464.024 427.33 470.755 430.737 470.745 432.376C470.735 433.655 458.976 444.935 456.832 446.214L455.3 445.475Z" fill="#60489C"/>
<path d="M486.983 393.896C480.104 394.781 475.304 401.63 476.262 409.189L501.17 405.976C500.212 398.417 493.862 393.01 486.983 393.896Z" fill="#FAF5EA"/>
<path d="M486.616 414.009C490.967 414.009 494.495 410.481 494.495 406.13C494.495 401.778 490.967 398.25 486.616 398.25C482.264 398.25 478.736 401.778 478.736 406.13C478.736 410.481 482.264 414.009 486.616 414.009Z" fill="#60489C"/>
<path d="M431.257 394.079C438.187 394.965 443.023 401.814 442.058 409.373L416.966 406.16C417.931 398.6 424.327 393.194 431.257 394.079Z" fill="#FAF5EA"/>
<path d="M431.612 414.194C435.913 414.194 439.399 410.625 439.399 406.222C439.399 401.819 435.913 398.25 431.612 398.25C427.312 398.25 423.825 401.819 423.825 406.222C423.825 410.625 427.312 414.194 431.612 414.194Z" fill="#60489C"/>
<path d="M252.052 243.181C250.58 248.217 249.11 253.253 247.638 258.289C247.319 259.379 248.003 260.403 249.018 260.765C253.957 262.534 258.896 264.301 263.837 266.068L262.457 263.592C260.985 268.628 259.514 273.663 258.043 278.699C257.724 279.789 258.407 280.814 259.423 281.176C264.362 282.944 269.3 284.711 274.241 286.479L272.861 284.002C271.389 289.038 269.919 294.074 268.447 299.11C268.128 300.2 268.812 301.224 269.827 301.586C274.766 303.355 279.705 305.122 284.646 306.889C287.08 307.761 288.164 303.899 285.742 303.033C280.803 301.265 275.864 299.498 270.924 297.73L272.304 300.206C273.775 295.17 275.246 290.135 276.718 285.099C277.036 284.009 276.353 282.985 275.338 282.622C270.398 280.854 265.46 279.087 260.519 277.319L261.899 279.796C263.371 274.76 264.841 269.724 266.313 264.688C266.632 263.598 265.948 262.574 264.933 262.212C259.994 260.443 255.055 258.676 250.115 256.909L251.495 259.385C252.966 254.349 254.437 249.314 255.909 244.278C256.634 241.797 252.776 240.701 252.052 243.181Z" fill="#EE755D"/>
<path d="M515.198 299.099C512.233 301.43 510.442 304.812 510.582 308.641C510.672 311.057 511.601 313.329 513.065 315.233L520.041 324.312C520.83 325.338 521.618 326.366 522.41 327.392C523.333 328.593 524.929 329.123 526.287 328.267C527.481 327.516 528.076 325.613 527.148 324.405C525.359 322.074 523.568 319.745 521.776 317.414C520.666 315.969 519.556 314.525 518.445 313.08C518.17 312.722 517.892 312.363 517.618 312.003C517.558 311.924 517.497 311.845 517.437 311.763C517.238 311.492 517.051 311.212 516.883 310.92C516.815 310.803 516.566 310.312 516.793 310.799C516.707 310.614 516.634 310.424 516.564 310.234C516.508 310.082 516.457 309.928 516.411 309.774C516.387 309.695 516.211 308.984 516.277 309.308C516.344 309.644 516.254 309.15 516.247 309.071C516.225 308.874 516.204 308.677 516.195 308.477C516.183 308.267 516.273 307.192 516.186 307.781C516.243 307.39 516.305 307.001 516.404 306.618C516.443 306.465 516.497 306.315 516.538 306.163C516.369 306.789 516.577 306.098 516.629 305.981C516.795 305.614 516.995 305.273 517.201 304.926C517.144 305.02 516.845 305.376 517.188 304.946C517.316 304.786 517.443 304.628 517.578 304.475C517.717 304.32 517.858 304.172 518.007 304.028C518.098 303.942 518.657 303.485 518.215 303.834C519.403 302.902 519.948 301.344 519.076 299.972C518.328 298.795 516.393 298.159 515.199 299.097L515.198 299.099Z" fill="#AFC901"/>
<path d="M569.781 287.624C566.99 289.597 563.663 289.17 561.496 286.5C560.082 284.759 558.792 282.919 557.389 281.167C551.704 274.068 540.225 275.684 537.579 284.646C535.689 291.043 540.37 295.308 543.752 300.008C545.911 303.011 545.265 307.252 541.66 308.805C538.635 310.108 536.04 308.466 534.24 306.128C532.499 303.868 530.806 301.055 528.528 299.291C524.562 296.22 519.065 296.166 515.011 299.03C512.104 301.083 515.087 305.775 518.001 303.718C520.792 301.744 524.119 302.171 526.286 304.841C527.7 306.583 528.989 308.423 530.393 310.175C536.077 317.273 547.556 315.658 550.203 306.695C552.093 300.298 547.412 296.034 544.03 291.333C541.871 288.33 542.517 284.09 546.122 282.537C549.146 281.234 551.742 282.875 553.542 285.214C555.283 287.474 556.976 290.286 559.254 292.05C563.22 295.121 568.717 295.175 572.771 292.312C575.678 290.258 572.694 285.566 569.781 287.624Z" fill="#AFC901"/>
<path d="M561.184 267.216C562.974 269.547 564.764 271.876 566.556 274.208C567.666 275.652 568.777 277.097 569.887 278.541C570.163 278.899 570.44 279.258 570.714 279.618C570.775 279.698 570.835 279.777 570.895 279.858C571.095 280.129 571.282 280.41 571.449 280.701C571.517 280.819 571.766 281.31 571.539 280.822C571.625 281.008 571.699 281.198 571.769 281.388C571.824 281.54 571.876 281.694 571.922 281.848C571.945 281.927 572.121 282.638 572.055 282.314C571.988 281.978 572.078 282.472 572.086 282.551C572.107 282.748 572.128 282.945 572.137 283.144C572.149 283.355 572.059 284.43 572.146 283.841C572.089 284.232 572.027 284.621 571.928 285.004C571.889 285.157 571.836 285.308 571.794 285.46C571.963 284.833 571.756 285.525 571.703 285.641C571.538 286.008 571.337 286.35 571.131 286.696C571.188 286.602 571.487 286.246 571.144 286.676C571.016 286.836 570.889 286.994 570.754 287.148C570.615 287.302 570.474 287.45 570.325 287.594C570.234 287.681 569.675 288.137 570.117 287.788C568.929 288.721 568.383 290.279 569.256 291.651C570.004 292.828 571.939 293.464 573.133 292.526C576.098 290.195 577.889 286.812 577.749 282.983C577.66 280.567 576.731 278.295 575.267 276.39C572.94 273.364 570.617 270.337 568.29 267.311C567.501 266.285 566.713 265.257 565.922 264.231C564.999 263.029 563.402 262.5 562.045 263.356C560.851 264.107 560.256 266.01 561.183 267.219L561.184 267.216Z" fill="#AFC901"/>
<defs>
<filter id="filter0_d_380_2997" x="65" y="133" width="704" height="934" filterUnits="userSpaceOnUse" color-interpolation-filters="sRGB">
<feFlood flood-opacity="0" result="BackgroundImageFix"/>
<feColorMatrix in="SourceAlpha" type="matrix" values="0 0 0 0 0 0 0 0 0 0 0 0 0 0 0 0 0 0 127 0" result="hardAlpha"/>
<feOffset dy="4"/>
<feGaussianBlur stdDeviation="2"/>
<feComposite in2="hardAlpha" operator="out"/>
<feColorMatrix type="matrix" values="0 0 0 0 0 0 0 0 0 0 0 0 0 0 0 0 0 0 0.25 0"/>
<feBlend mode="normal" in2="BackgroundImageFix" result="effect1_dropShadow_380_2997"/>
<feBlend mode="normal" in="SourceGraphic" in2="effect1_dropShadow_380_2997" result="shape"/>
</filter>
<clipPath id="clip0_380_2997">
<rect width="20" height="21" fill="white" transform="translate(452 304)"/>
</clipPath>
</defs>
</svg>
