<svg width="174" height="203" viewBox="0 0 174 203" fill="none" xmlns="http://www.w3.org/2000/svg">
<g clip-path="url(#clip0_390_4192)">
<path d="M63.6215 70.7879C65.3245 70.3014 63.1992 67.8961 62.86 67.0875C60.0216 60.2829 57.0448 47.2288 65.0338 42.8089C73.0228 38.389 81.2195 45.7624 86.1071 51.1965C86.8893 52.0667 89.0493 55.6232 89.4785 55.8768C90.8077 56.6854 94.913 54.5337 96.6645 54.0882C108.918 50.9703 120.403 50.9703 132.65 54.0882C134.844 54.6501 136.886 55.8631 139.15 56.1234C140.071 55.9795 142.681 51.8337 143.65 50.751C148.697 45.1388 159.254 37.1761 166.205 44.2411C173.079 51.2239 167.735 64.8467 164.1 72.3297C166.33 75.756 169.293 78.4833 171.494 81.9507C172.387 83.3623 174.381 85.8567 173.924 87.3779C173.702 88.1249 169.265 93.7782 168.386 94.8267C162.425 102.008 154.325 109.34 146.717 114.768C144.516 116.337 141.463 117.536 139.829 119.523V201.87L139.157 202.535H128.814L113.522 147.783C111.452 147.811 112.843 152.087 112.871 153.327C113.231 168.903 112.539 184.527 112.871 200.109C112.933 201.726 112.442 202.343 110.843 202.549C109.569 202.713 102.41 202.686 101.6 202.309C101.157 202.103 100.839 201.5 100.597 201.075C97.4537 187.871 93.4315 174.892 89.9354 161.783C89.3678 159.659 89.1462 156.692 88.4678 154.78C88.1839 153.992 87.7686 153.923 86.9932 154.012L59.7239 201.356C58.2216 203.515 53.8325 202.528 51.541 202.528L40.9698 202.542C38.1868 202.542 39.1006 198.499 39.1006 196.491V171.815C38.3183 171.678 37.9306 172.185 37.5637 172.74C33.5277 178.791 30.0039 186.63 26.141 193.037C24.0156 196.56 22.2572 201.631 18.235 202.521C13.479 203.577 7.23454 202.535 2.34005 202.542C1.83468 202.542 1.29469 202.535 0.865474 202.268C-0.43603 201.446 0.436254 193.825 0.436254 192.338V109.943C0.436254 108.785 -0.567565 97.8486 0.436254 97.2662L1.49546 96.6494C14.0674 104.708 31.6308 104.448 44.0851 96.4096C44.6182 95.6832 44.7289 88.1865 44.7151 86.583C44.7151 86.1445 44.6043 85.1577 43.8359 85.4798C42.6728 85.9663 39.6268 88.7416 37.7645 89.7078C25.4279 96.1218 10.0798 94.5389 0.436254 84.356V72.3366L1.49546 71.7199C12.5305 78.079 24.7148 79.1891 36.7538 74.9063C38.3737 74.3307 45.1374 70.7811 45.622 70.7811H63.6077L63.6215 70.7879ZM163.034 95.971C164.142 94.8061 169.348 88.7073 169.729 87.6795C170.31 86.0965 169.736 85.329 168.988 83.9996C164.46 75.9821 147.575 61.208 138.285 60.0911C132.802 59.4332 126.461 60.1802 121.552 62.695C120.244 63.3597 115.37 67.204 114.872 67.252C113.439 67.389 112.594 65.5457 111.493 64.8056C97.2668 55.1915 84.1894 60.6735 72.3928 70.5549C67.2422 74.872 62.32 80.7173 59.0662 86.5899C59.0662 87.1312 61.9115 90.7151 62.5138 91.4689C63.4346 92.6201 66.813 96.8824 67.6437 97.5197C68.156 97.9103 68.5783 98.0679 69.2221 97.9172C73.7428 87.0559 94.1584 64.6069 105.401 79.2782C109.07 84.0682 108.953 90.2217 104.993 94.8198C100.105 100.501 94.7053 101.021 91.1123 109.567C90.2816 111.533 88.7101 114.624 90.6623 116.124C92.4277 117.474 98.6721 120.421 100.998 121.469C103.574 122.634 112.13 126.294 114.47 126.396C115.862 126.458 122.258 124.067 123.961 123.388C127.866 121.833 132.968 119.318 136.623 117.228C137.496 116.727 139.531 115.85 139.78 114.973C139.157 110.224 136.243 104.873 132.871 101.494C130.476 99.0958 126.786 97.506 124.543 95.0459C115.308 84.9384 126.703 69.1296 140.59 76.4892C148.842 80.8612 156.084 89.4406 160.057 97.7321H161.442C161.864 97.0058 162.494 96.5329 163.034 95.9642V95.971ZM99.5098 86.7749C99.5098 84.6506 97.7652 82.9238 95.6191 82.9238C93.473 82.9238 91.7285 84.6506 91.7285 86.7749C91.7285 88.8992 93.473 90.626 95.6191 90.626C97.7652 90.626 99.5098 88.8992 99.5098 86.7749ZM137.579 86.7612C137.579 84.6369 135.841 82.9169 133.695 82.9169C131.549 82.9169 129.811 84.6369 129.811 86.7612C129.811 88.8855 131.549 90.6055 133.695 90.6055C135.841 90.6055 137.579 88.8855 137.579 86.7612Z" fill="#60489C"/>
<path d="M0.44308 46.9664L1.51613 46.3359C3.25377 47.5146 5.39295 48.7206 7.33136 49.495C17.9165 53.7161 30.2046 53.1131 40.4712 48.3163C41.9874 47.6105 44.8465 44.6159 44.7981 47.7681C44.7358 51.6878 44.4381 55.7171 44.2719 59.6436C32.7315 71.5944 11.9489 71.1422 0.436157 59.4312V46.9664H0.44308Z" fill="#60489C"/>
<path d="M3.36443 22.3753C15.2234 28.7893 30.2322 28.9126 42.0288 22.2656C43.2195 22.526 44.5418 32.7021 44.431 34.4152C34.8359 44.4885 18.6294 45.9686 6.60435 39.1023C5.379 38.4034 1.53679 35.9159 0.976036 34.8469C0.304515 33.5792 1.16988 29.1593 1.48833 27.5284C1.69602 26.4525 2.19447 22.4643 3.36443 22.3753Z" fill="#60489C"/>
<path d="M20.575 0.128229C28.917 -1.07097 36.013 6.3572 38.9068 13.3742C33.8531 17.5269 25.5664 18.8494 19.1142 18.2532C17.0374 18.0614 6.78456 15.2244 6.34149 13.5044C7.91991 7.88532 14.5244 0.998503 20.575 0.128229Z" fill="#60489C"/>
<path d="M95.619 90.6241C97.7678 90.6241 99.5097 88.8999 99.5097 86.773C99.5097 84.6461 97.7678 82.9219 95.619 82.9219C93.4702 82.9219 91.7283 84.6461 91.7283 86.773C91.7283 88.8999 93.4702 90.6241 95.619 90.6241Z" fill="white"/>
<path d="M133.695 90.6026C135.84 90.6026 137.579 88.8815 137.579 86.7583C137.579 84.6352 135.84 82.9141 133.695 82.9141C131.55 82.9141 129.811 84.6352 129.811 86.7583C129.811 88.8815 131.55 90.6026 133.695 90.6026Z" fill="white"/>
<path d="M113.438 115.152C112.289 112.493 106.412 108.93 105.429 106.833C105.2 106.346 105.027 105.969 105.422 105.497C108.939 102.66 113.93 101.584 118.374 102.488C119.468 102.708 124.12 105.044 124.114 106.168C124.107 107.045 115.979 114.782 114.498 115.659L113.438 115.152Z" fill="#60489C"/>
<path d="M102.404 86.9175C102.127 95.0035 90.3438 95.4832 89.4439 87.4109C88.9731 78.5916 101.995 77.9886 102.404 86.7873V86.9244V86.9175Z" fill="white"/>
<path d="M101.033 87.7924C100.693 94.6998 90.4753 94.2475 90.8076 87.3128C91.4375 80.9536 100.825 81.2825 101.033 87.6622V87.7924Z" fill="#60489C"/>
<path d="M137.669 88.4816C137.461 94.8613 128.074 95.1902 127.444 88.8311C127.111 81.8963 137.329 81.444 137.669 88.3514V88.4816Z" fill="#60489C"/>
<path d="M95.779 93.0469C99.3363 93.0469 102.22 90.1927 102.22 86.6719C102.22 83.1511 99.3363 80.2969 95.779 80.2969C92.2217 80.2969 89.338 83.1511 89.338 86.6719C89.338 90.1927 92.2217 93.0469 95.779 93.0469Z" fill="white"/>
<path d="M94.9023 93.7436C97.708 93.7436 99.9824 91.4925 99.9824 88.7156C99.9824 85.9386 97.708 83.6875 94.9023 83.6875C92.0966 83.6875 89.8221 85.9386 89.8221 88.7156C89.8221 91.4925 92.0966 93.7436 94.9023 93.7436Z" fill="#60489C"/>
<path d="M133.036 94.125C136.593 94.125 139.477 91.2708 139.477 87.75C139.477 84.2292 136.593 81.375 133.036 81.375C129.478 81.375 126.595 84.2292 126.595 87.75C126.595 91.2708 129.478 94.125 133.036 94.125Z" fill="white"/>
<path d="M132.159 94.8257C134.965 94.8257 137.239 92.5745 137.239 89.7976C137.239 87.0207 134.965 84.7695 132.159 84.7695C129.354 84.7695 127.079 87.0207 127.079 89.7976C127.079 92.5745 129.354 94.8257 132.159 94.8257Z" fill="#60489C"/>
</g>
<defs>
<clipPath id="clip0_390_4192">
<rect width="174" height="203" fill="white"/>
</clipPath>
</defs>
</svg>
