<svg width="170" height="164" viewBox="0 0 170 164" fill="none" xmlns="http://www.w3.org/2000/svg">
<path d="M103.779 97.0697C102.796 103.183 106.956 108.935 113.069 109.918C119.182 110.9 124.934 106.741 125.917 100.628C126.899 94.5143 122.74 88.7622 116.627 87.7797C110.514 86.7972 104.761 90.9565 103.779 97.0697Z" fill="#6447A1"/>
<path d="M163.373 94.8147C162.177 90.791 161.312 86.6958 160.879 82.5155C160.76 81.3737 160.695 80.2297 160.617 79.0807C160.443 76.5715 160.481 80.9728 160.621 78.2348C160.714 76.2961 160.757 74.3687 160.962 72.4346C161.165 70.5228 161.45 68.6188 161.818 66.7317C161.897 66.3232 162.728 63.3181 161.958 65.9451C162.224 65.0251 162.454 64.099 162.737 63.1931C163.3 61.3721 163.938 59.5721 164.65 57.8155C165.009 56.9306 165.385 56.0598 165.787 55.1991C165.92 54.9091 167.491 51.7465 166.763 53.1265C166.03 54.5198 167.505 51.8499 167.682 51.5618C168.172 50.7494 168.675 49.9421 169.205 49.1447C170.34 47.4278 171.564 45.7593 172.86 44.1564C173.459 43.4156 174.093 42.7031 174.709 41.9765C176.327 40.0645 173.244 43.3038 175.241 41.4299C176.647 40.1179 178.014 38.7687 179.497 37.5315C180.989 36.2903 182.523 35.1179 184.118 34.0062C185.03 33.3767 186.517 32.4666 184.704 33.5559C185.549 33.0445 186.402 32.5513 187.267 32.0855C191.099 30.0004 195.128 28.353 199.286 27.0422C205.212 25.1773 207.868 16.6479 205.218 11.4142C202.043 5.13395 195.929 3.48644 189.59 5.48206C151.487 17.453 128.619 60.1051 140.003 98.4386C141.757 104.338 146.667 109.696 153.504 108.321C159.083 107.193 165.265 101.168 163.386 94.8197L163.373 94.8147Z" fill="#EE755D"/>
<path d="M99.9509 139.979C99.9542 139.642 99.9744 139.312 99.9913 138.975C100.028 138.216 99.998 138.9 99.9711 139.052C100.072 138.52 100.183 137.994 100.345 137.474C100.439 137.168 100.547 136.868 100.665 136.571C100.608 136.716 100.305 137.286 100.652 136.652C100.958 136.092 101.268 135.56 101.622 135.03C102.137 134.252 101.238 135.297 101.676 134.973C101.871 134.828 102.033 134.569 102.205 134.393C102.393 134.201 103.579 133.197 102.811 133.776C103.229 133.463 103.67 133.173 104.128 132.917C104.31 132.812 104.506 132.725 104.687 132.62C105.344 132.243 104.094 132.765 105.055 132.465C105.57 132.303 106.075 132.141 106.604 132.03C106.837 131.983 107.571 131.905 106.678 131.993C106.955 131.966 107.231 131.943 107.507 131.932C108.07 131.909 108.619 131.956 109.181 131.98C109.821 132.003 108.252 131.767 109.259 132C109.576 132.074 109.892 132.135 110.206 132.222C110.515 132.31 110.815 132.421 111.122 132.519C111.334 132.586 111.732 132.856 111.051 132.482C111.513 132.738 111.988 132.954 112.436 133.237C112.655 133.375 112.86 133.547 113.086 133.679C113.588 133.975 112.453 133.058 113.136 133.743C113.581 134.188 114.009 134.643 114.447 135.088C113.921 134.552 114.272 134.838 114.396 135.027C114.572 135.29 114.75 135.546 114.912 135.819C115.053 136.055 115.707 137.474 115.353 136.568C115.548 137.067 115.717 137.576 115.848 138.095C115.902 138.304 115.939 138.516 115.99 138.729C116.168 139.511 115.966 138.078 116.037 139.14C116.071 139.642 116.077 140.148 116.047 140.65C116.037 140.842 115.848 141.88 116.047 140.903C116.003 141.115 115.97 141.331 115.922 141.543C115.805 142.069 115.633 142.575 115.468 143.087C115.154 144.058 115.872 142.423 115.367 143.303C115.208 143.576 115.077 143.863 114.912 144.136C114.777 144.362 114.629 144.577 114.487 144.796C114.359 144.999 113.884 145.494 114.447 144.864C114.097 145.255 113.756 145.643 113.369 146C113.355 146.01 112.591 146.701 113.056 146.297C113.51 145.899 112.725 146.526 112.702 146.543C112.176 146.897 111.62 147.187 111.054 147.47C111.186 147.406 111.823 147.197 111.125 147.433C110.822 147.537 110.519 147.642 110.209 147.729C110 147.787 109.791 147.841 109.582 147.888C109.562 147.891 108.511 148.083 109.148 147.985C109.784 147.888 108.713 148.012 108.69 148.012C108.41 148.029 108.13 148.033 107.851 148.029C107.571 148.026 107.295 147.999 107.015 147.989C106.085 147.955 107.591 148.157 106.773 147.952C106.143 147.793 105.53 147.632 104.913 147.433C104.007 147.139 105.28 147.736 104.839 147.399C104.563 147.187 104.169 147.058 103.865 146.876C103.687 146.769 103.508 146.657 103.333 146.539C103.158 146.421 102.99 146.3 102.821 146.175C103.212 146.479 103.239 146.489 102.899 146.206C102.531 145.838 102.161 145.467 101.79 145.096C101.079 144.385 102.191 145.761 101.635 144.918C101.46 144.655 101.282 144.399 101.12 144.126C100.958 143.853 100.823 143.569 100.665 143.293C100.257 142.582 100.84 143.93 100.564 143.077C100.362 142.457 100.204 141.847 100.045 141.216C99.9946 141.017 99.9744 140.461 100.038 141.304C100.005 140.859 99.9711 140.417 99.9643 139.969C99.9374 137.886 98.1519 135.887 95.9824 135.984C93.8499 136.079 91.9668 137.737 92.0004 139.969C92.0948 146.782 96.3058 152.665 102.646 155.058C108.683 157.337 116.094 155.368 120.187 150.372C124.479 145.13 125.332 137.7 121.801 131.787C118.277 125.888 111.489 123.07 104.819 124.273C97.3771 125.612 92.1049 132.573 92.0038 139.969C91.9769 142.056 93.8567 144.051 95.9858 143.954C98.1688 143.856 99.9374 142.204 99.9677 139.969L99.9509 139.979Z" fill="#8CDCE4"/>
<path d="M32.0468 149.134L30.8416 150.892C29.2255 152.831 27.9957 153.952 27.1523 154.255C25.2848 154.924 22.6617 153.961 19.283 151.366C17.2015 149.733 15.9338 148.283 15.4801 147.018C15.0263 145.753 15.0699 144.548 15.6108 143.402C16.0915 142.278 16.7552 141.19 17.6019 140.138C18.4486 139.086 19.2759 138.076 20.084 137.106C20.8318 136.158 22.569 134.651 25.2957 132.585C28.0224 130.519 30.8315 128.968 33.7232 127.931C36.5546 126.915 39.5758 126.24 42.787 125.904C45.9595 125.65 49.4254 125.835 53.1846 126.458C56.9052 127.163 60.4541 128.338 63.8316 129.983C67.2306 131.687 70.4564 134.236 73.509 137.628C76.5229 141.103 78.8725 145.19 80.5578 149.889C82.2431 154.587 82.9832 159.115 82.7781 163.472C82.5946 167.89 81.741 171.766 80.2171 175.1C78.6547 178.516 76.6096 181.629 74.082 184.439C69.345 189.81 63.9945 193.565 58.0305 195.704C55.1991 196.719 52.1755 197.294 48.9597 197.427C45.7054 197.642 43.1631 197.568 41.3329 197.205L38.7105 196.718C37.3884 196.444 36.3506 196.204 35.5969 195.999C33.5769 195.295 32.2752 194.13 31.6918 192.504C31.13 190.937 31.1684 189.054 31.8069 186.853C32.9896 182.757 34.5147 180.375 36.3822 179.705C37.4666 179.316 39.2405 179.428 41.7038 180.04C44.9686 181.181 48.7095 180.995 52.9265 179.482C56.8422 178.078 60.2116 175.34 63.0346 171.268C64.3665 169.294 65.2028 166.886 65.5434 164.045C65.884 161.203 65.5033 158.246 64.4014 155.173C63.3211 152.161 61.7463 149.666 59.6772 147.689C57.6081 145.711 55.3913 144.364 53.0269 143.649C48.4014 142.316 44.1006 142.363 40.1246 143.789C38.2571 144.458 36.5965 145.326 35.1428 146.391C33.6289 147.478 32.5969 148.392 32.0468 149.134Z" fill="#3D7B8C"/>
</svg>
