<svg width="182" height="214" viewBox="0 0 182 214" fill="none" xmlns="http://www.w3.org/2000/svg">
<path d="M125.572 163.595C125.047 162.445 122.38 162.53 121.123 162.267C118.104 161.952 115.645 161.16 113.774 163.688C105.418 174.657 103.366 189.842 107.763 202.848C109.926 207.784 104.955 206.868 101.653 206.328C98.3492 205.984 95.118 205.726 93.343 202.796C88.0865 194.918 87.476 184.47 90.0131 175.56C91.5372 170.09 95.2492 165.393 98.7073 161.09C99.5686 159.111 96.192 159.229 94.9467 158.99C86.139 156.162 83.4063 166.338 80.8364 172.71C73.7865 192.559 87.6657 205.298 78.0522 203.394C73.9551 202.717 68.8159 203.214 66.5762 199.081C59.6974 187.23 60.489 172.291 69.0717 161.577C71.3209 158.936 74.7197 155.961 68.9133 155.662C63.2671 154.139 59.9604 156.436 57.7085 161.535C52.6121 170.581 51.0191 181.05 53.293 191.181C53.3484 194.147 58.202 201.3 52.1869 200.057C39.9141 198.179 28.1036 191.495 20.1386 182.209C3.70618 163.955 2.56217 134.708 17.3912 115.16C25.7978 103.18 35.3238 92.023 43.7229 80.0424C45.7202 76.0121 53.9966 70.0708 51.2449 65.7826C48.4847 61.258 44.7839 56.9122 43.3293 51.7765C43.3313 47.6189 47.7811 44.7364 50.2589 41.722C52.2431 39.7462 54.7066 38.3082 54.4318 35.4591C52.6344 28.2017 50.2336 20.854 52.6816 13.3898C55.8988 2.49332 67.7334 4.05158 74.2955 11.1364C79.099 14.4891 80.7394 24.041 86.3883 22.8026C101.092 19.6654 118.555 21.7353 132.075 28.5263C134.748 29.8534 136.733 27.9915 138.438 26.0644C158.129 6.90225 175.534 21.0666 161.819 44.7064C158.863 48.7613 158.207 50.7964 161.637 54.9948C163.635 59.0601 168.952 64.6848 165.123 68.9268C161.111 74.0793 155.117 77.475 151.339 82.7022C146.766 110.023 144.71 137.968 140.414 165.377C122.004 196.914 142.065 209.133 129.496 208.72C116.583 211.125 114.606 194.285 115.39 184.952C115.925 179.191 118.415 173.584 121.723 168.905C122.736 167.165 125.298 165.488 125.584 163.62L125.588 163.59L125.572 163.595ZM135.375 53.0194C141.607 58.6064 147.331 65.5337 150.34 73.3668C150.723 74.2491 151.17 75.4126 151.971 75.8082C153.212 76.3196 154.352 75.0883 155.251 74.3279C157.166 72.5482 159.073 70.7601 160.993 68.875C161.816 68.0594 162.62 67.0823 162.86 65.9513C163.169 64.6317 162.585 63.1629 161.932 61.951C156.932 52.5572 149.133 43.2848 140.415 37.3578C131.833 31.3794 119.516 31.3164 110.466 36.5239C107.919 38.0274 106.378 37.4181 104.419 35.4138C96.5982 28.2024 85.164 25.8064 75.0381 29.4762C64.7451 33.3907 55.6368 40.2223 48.3617 48.4203C46.7343 50.213 46.4306 52.1023 47.6841 54.2236C49.0871 56.667 50.5443 58.9806 52.0809 61.3875C52.7146 62.3314 53.5904 63.7077 54.8057 63.6998C55.5576 63.6948 56.3652 62.8167 56.8713 62.1666C57.5948 61.2325 58.2782 60.2554 59.0382 59.3941C65.2264 52.4264 76.0058 43.2689 85.5429 43.289C89.5455 43.5071 93.9415 46.1717 96.0222 49.7542C98.2245 53.7616 98.7365 58.4232 96.2562 62.492C94.4857 65.8601 91.8279 67.5774 88.5966 69.1474C85.5129 70.751 82.648 72.9129 80.2989 75.5033C78.5754 77.3978 77.1695 79.5443 76.1047 81.8775C74.8456 84.3685 75.2173 86.4406 77.5859 88.0787C82.3838 91.5977 87.3377 94.9009 92.6687 97.6138C96.0303 99.3225 99.2788 101.146 103.176 100.259C109.463 99.1377 115.661 97.209 121.585 94.8592C127.316 92.9026 128.258 91.3736 126.427 85.4778C122.907 73.5369 112.829 72.0079 111.828 62.4371C111.42 57.9781 113.756 53.1175 117.529 50.6134C123.363 46.6742 130.464 48.151 135.32 52.9746L135.375 53.0194ZM85.0299 52.2159C82.0082 52.2263 79.8986 55.8784 81.5549 58.4824C82.9645 60.9342 86.9624 60.9468 88.5569 58.6266C90.5277 56.0877 88.1367 52.1934 85.1056 52.2178L85.0383 52.2094L85.0299 52.2159ZM123.76 57.308C121.543 57.7448 119.774 60.2482 120.652 62.4593C122.113 66.1391 127.61 66.2399 128.711 62.2193C129.438 59.4875 126.536 56.6524 123.83 57.2939L123.76 57.308Z" fill="#6447A1"/>
<path d="M148.85 171.471C149.869 171.354 149.951 172.102 150.515 172.522C154.511 175.498 158.244 178.944 159.864 183.836C163.532 194.884 155.274 201.313 146.154 205.194C145.439 205.5 145.265 206.345 144.207 205.552C143.608 205.105 143.75 204.4 143.534 203.81C139.998 193.958 140.88 183.037 146.588 173.986C146.854 173.563 147.686 172.261 147.935 171.972C148.087 171.794 148.627 171.488 148.843 171.462L148.85 171.471Z" fill="#6447A1"/>
<path d="M123.807 57.2313C124.289 57.1496 126.194 57.4392 126.628 57.6799C127.14 57.9601 128.536 59.8054 128.683 60.3758C129.018 61.6561 128.497 63.1879 127.583 64.0887C125.9 65.7517 124.728 65.2326 122.556 64.8052C121.052 63.4017 119.667 61.4085 121.057 59.3956C121.148 59.2652 122.147 58.1587 122.248 58.0742C122.315 58.0154 123.73 57.2442 123.815 57.2249L123.807 57.2313Z" fill="black"/>
<path d="M102.052 74.5946C105.786 74.9378 109.867 76.4621 112.295 79.4224C113.124 80.6332 111.984 81.736 111.038 82.4353C108.456 84.4353 105.637 86.6273 102.958 88.6687C101.55 89.784 100.659 89.673 99.5981 88.25C97.8793 86.1265 95.2862 82.8476 93.4393 80.5325C92.9025 79.8393 92.1927 79.0711 92.1602 78.1735C92.4284 75.3505 99.6725 74.4814 101.931 74.5947L102.05 74.6097L102.052 74.5946Z" fill="#6447A1"/>
<path d="M90.6684 52.7454L80.1416 51.4336L78.8129 62.0954L89.3398 63.4072L90.6684 52.7454Z" fill="#6447A1"/>
<path d="M127.383 55.6113C122.295 55.632 118.18 60.1819 118.191 65.7713L136.614 65.6918C136.602 60.1023 132.471 55.5907 127.383 55.6113Z" fill="#FAF5EA"/>
<path d="M126.802 56.3943C123.339 56.4789 119.91 59.7091 118.683 62.9786C118.194 64.2836 117.721 65.8865 118.507 67.1303C119.637 68.7204 122.275 68.7305 124.521 68.0618C125.671 67.7195 126.863 67.959 128.054 67.9558C129.633 67.9476 131.362 68.0114 133.023 68.0135C134.312 67.9616 135.573 68.0124 136.317 66.967C137.16 65.744 136.397 63.0993 134.98 61.0787C133.278 58.5445 129.763 56.3763 126.915 56.4008L126.808 56.4027L126.802 56.3943Z" fill="#FAF5EA"/>
<path d="M130.113 68.1744C134.14 64.4723 129.535 57.5925 124.385 59.2272C121.033 60.0692 118.987 64.557 121.112 67.4094C122.533 69.2787 128.209 69.3866 130.006 68.2445L130.105 68.1735L130.113 68.1744Z" fill="#FAF5EA"/>
<path d="M125.291 70.2176C128.458 70.6124 131.346 68.3644 131.741 65.1966C132.136 62.0288 129.888 59.1408 126.72 58.746C123.552 58.3513 120.664 60.5992 120.27 63.767C119.875 66.9348 122.123 69.8228 125.291 70.2176Z" fill="#6447A1"/>
<path d="M83.7537 50.0374C88.718 51.3108 91.6167 56.7347 90.2285 62.1497L72.2548 57.5346C73.643 52.1196 78.7894 48.7641 83.7537 50.0374Z" fill="#FAF5EA"/>
<path d="M84.084 50.8517C87.4197 51.7834 89.9515 55.7565 90.3383 59.2271C90.4919 60.6121 90.5569 62.2821 89.49 63.295C88.0048 64.5593 85.4443 63.9215 83.4316 62.7221C82.4006 62.108 81.1867 62.0478 80.0325 61.7522C78.5038 61.3568 76.8117 60.9942 75.2009 60.5885C73.9645 60.222 72.73 59.9619 72.2646 58.7656C71.7477 57.3733 73.1363 54.9966 75.0061 53.3856C77.2781 51.3467 81.2181 50.1075 83.9729 50.8302L84.0756 50.8582L84.084 50.8517Z" fill="#FAF5EA"/>
<path d="M77.9828 61.4604C74.9876 56.8832 81.1401 51.3439 85.7313 54.1926C88.774 55.8314 89.6562 60.6841 86.8959 62.9278C85.0597 64.3912 79.5306 63.1027 78.0697 61.5547L77.9903 61.4613L77.9828 61.4604Z" fill="white"/>
<path d="M82.1878 64.7113C85.3183 65.1014 88.1799 62.8195 88.5793 59.6144C88.9787 56.4094 86.7647 53.4949 83.6342 53.1048C80.5037 52.7147 77.6421 54.9966 77.2427 58.2017C76.8433 61.4067 79.0573 64.3212 82.1878 64.7113Z" fill="#6447A1"/>
</svg>
