<svg width="834" height="555" viewBox="0 0 834 555" fill="none" xmlns="http://www.w3.org/2000/svg">
<path d="M508.197 178.037C519.967 203.687 531.747 229.337 543.517 254.987C546.127 260.667 554.697 262.367 559.697 259.227C583.597 244.207 607.487 229.187 631.387 214.167C625.997 212.757 620.597 211.337 615.207 209.927C626.977 235.577 638.757 261.227 650.527 286.877C653.137 292.557 661.707 294.257 666.707 291.117C690.607 276.097 714.497 261.077 738.397 246.057C751.247 237.977 739.397 217.507 726.457 225.637C702.557 240.657 678.667 255.677 654.767 270.697C660.157 272.107 665.557 273.527 670.947 274.937C659.177 249.287 647.397 223.637 635.627 197.987C633.017 192.307 624.447 190.607 619.447 193.747C595.547 208.767 571.657 223.787 547.757 238.807C553.147 240.217 558.547 241.637 563.937 243.047C552.167 217.397 540.387 191.747 528.617 166.097C522.277 152.287 501.887 164.287 508.197 178.037Z" fill="#EE755D"/>
<path d="M799.577 -26.6528C821.297 -4.61276 843.017 17.4172 864.737 39.4572C869.437 44.2272 876.677 43.6472 881.457 39.4572C904.747 19.0872 928.027 -1.28276 951.317 -21.6628L934.597 -21.6628C956.317 0.377242 978.037 22.4073 999.757 44.4473C1004.46 49.2173 1011.7 48.6373 1016.48 44.4473C1039.77 24.0773 1063.05 3.70724 1086.34 -16.6728L1069.62 -16.6728C1091.34 5.36724 1113.06 27.3973 1134.78 49.4373C1139.48 54.2073 1146.72 53.6273 1151.5 49.4373C1174.79 29.0673 1198.07 8.69727 1221.36 -11.6827C1232.84 -21.7227 1216.05 -38.3927 1204.64 -28.4027C1181.35 -8.03273 1158.07 12.3373 1134.78 32.7173L1151.5 32.7173C1129.78 10.6773 1108.06 -11.3527 1086.34 -33.3927C1081.64 -38.1627 1074.4 -37.5827 1069.62 -33.3927C1046.33 -13.0227 1023.05 7.34726 999.757 27.7273L1016.48 27.7273C994.757 5.68726 973.037 -16.3428 951.317 -38.3828C946.617 -43.1528 939.377 -42.5728 934.597 -38.3828C911.307 -18.0128 888.027 2.35723 864.737 22.7372L881.457 22.7372C859.737 0.697226 838.017 -21.3328 816.297 -43.3728C805.597 -54.2328 788.877 -37.5028 799.577 -26.6528Z" fill="#1F7E8E"/>
<path d="M656.619 35.4286C666.899 22.9886 677.189 10.5386 687.469 -1.90137C691.299 -6.53138 694.999 -11.3214 698.979 -15.8314C708.379 -26.4614 723.949 -29.1314 734.869 -18.8114C754.259 -0.49138 731.899 19.8086 720.189 34.0986C701.869 56.4786 701.249 88.4786 726.299 106.649C738.539 115.529 755.149 118.099 769.469 113.029C780.459 109.139 787.869 101.719 795.059 93.0186C800.169 86.8286 805.059 80.3387 810.489 74.4287C820.359 63.6987 837.609 62.8186 847.309 74.5386C863.299 93.8686 841.199 112.499 829.669 126.729C810.909 149.889 813.229 184.169 840.259 200.359C854.929 209.149 874.139 209.039 888.799 200.329C896.549 195.719 901.759 189.009 907.379 182.209C919.229 167.869 931.079 153.529 942.929 139.199C952.559 127.549 935.919 110.729 926.209 122.479C915.929 134.919 905.639 147.369 895.359 159.809C891.529 164.439 887.829 169.229 883.849 173.739C874.449 184.369 858.879 187.039 847.959 176.719C828.569 158.399 850.929 138.099 862.639 123.809C880.969 101.429 881.579 69.4286 856.529 51.2586C844.289 42.3786 827.679 39.8086 813.359 44.8786C802.369 48.7686 794.959 56.1886 787.769 64.8886C782.659 71.0786 777.769 77.5686 772.339 83.4786C762.469 94.2086 745.219 95.0886 735.519 83.3686C719.529 64.0386 741.629 45.4086 753.159 31.1786C771.919 8.01865 769.599 -26.2614 742.569 -42.4514C727.899 -51.2414 708.689 -51.1314 694.029 -42.4214C686.279 -37.8114 681.069 -31.1014 675.449 -24.3014C663.599 -9.96137 651.749 4.37864 639.899 18.7086C630.269 30.3586 646.909 47.1786 656.619 35.4286Z" fill="#6447A1"/>
<path d="M586.077 53.4472C576.572 53.4472 568.867 61.1524 568.867 70.6572C568.867 80.162 576.572 87.8672 586.077 87.8672C595.582 87.8672 603.287 80.162 603.287 70.6572C603.287 61.1524 595.582 53.4472 586.077 53.4472Z" fill="#1F7E8E"/>
<path d="M-200.423 -26.6532C-178.703 -4.61322 -156.983 17.4168 -135.263 39.4568C-130.563 44.2268 -123.323 43.6468 -118.543 39.4568C-98.2532 21.7068 -77.9532 3.9468 -57.6632 -13.8032C-38.5232 5.6168 -19.3832 25.0368 -0.253158 44.4568C4.44684 49.2268 11.6868 48.6468 16.4668 44.4568C36.7568 26.7068 57.0568 8.9468 77.3468 -8.80319C96.4868 10.6168 115.627 30.0368 134.757 49.4568C139.457 54.2268 146.697 53.6468 151.477 49.4568C174.767 29.0868 198.047 8.7168 221.337 -11.6632C232.817 -21.7032 216.027 -38.3732 204.617 -28.3832C184.327 -10.6332 164.027 7.12681 143.737 24.8768C124.597 5.45681 105.457 -13.9632 86.3268 -33.3832C81.6268 -38.1532 74.3868 -37.5732 69.6068 -33.3832C49.3168 -15.6332 29.0168 2.12679 8.72682 19.8768C-10.4132 0.456789 -29.5532 -18.9632 -48.6832 -38.3832C-53.3832 -43.1532 -60.6232 -42.5732 -65.4032 -38.3832C-85.6932 -20.6332 -105.993 -2.87322 -126.283 14.8768C-145.423 -4.54322 -164.563 -23.9632 -183.693 -43.3832C-194.393 -54.2432 -211.113 -37.5132 -200.413 -26.6632L-200.423 -26.6532Z" fill="#1F7E8E"/>
<path d="M-55.9933 130.787C-51.3633 135.037 -43.8332 135.567 -39.2732 130.787C-37.7432 129.177 -36.1132 127.697 -34.4132 126.277C-34.0832 126.037 -33.4932 125.597 -33.1632 125.377C-32.0632 124.637 -30.9332 123.947 -29.7732 123.297C-28.7732 122.737 -27.7032 122.287 -26.7032 121.727C-26.6332 121.687 -26.6533 121.697 -26.6033 121.667C-26.2233 121.517 -25.8432 121.367 -25.4632 121.227C-23.3332 120.447 -21.1432 119.827 -18.9332 119.347C-18.3032 119.207 -17.6632 119.097 -17.0332 118.977C-16.9732 118.967 -16.8432 118.947 -16.6932 118.927C-16.5432 118.907 -16.4032 118.897 -16.3432 118.897C-15.7032 118.857 -15.0632 118.787 -14.4132 118.757C-12.1632 118.637 -9.90318 118.667 -7.65318 118.857C-7.28318 118.887 -6.9132 118.927 -6.5532 118.967C-6.5132 118.977 -6.53326 118.967 -6.48326 118.987C-5.38326 119.257 -4.25318 119.407 -3.15318 119.677C-1.15318 120.167 0.796825 120.837 2.72683 121.567C3.15683 121.767 4.1668 122.207 4.5768 122.417C5.6168 122.947 6.62673 123.507 7.62673 124.117C8.48673 124.637 9.31676 125.207 10.1568 125.757C10.4168 125.927 10.4867 125.977 10.6267 126.067C11.0267 126.387 11.4168 126.707 11.7968 127.037C13.6268 128.607 15.3368 130.307 16.9168 132.127C17.4468 132.737 18.7268 134.547 17.5968 132.897C18.3468 133.997 19.1268 135.077 19.8268 136.217C20.4368 137.197 20.9968 138.207 21.5368 139.227C21.6968 139.537 22.1868 140.597 22.4268 141.077C23.1768 142.967 23.8368 144.907 24.3468 146.877C24.6268 147.977 24.8668 149.077 25.0668 150.187C25.1268 150.497 25.1768 150.807 25.2268 151.117C25.2268 151.227 25.2268 151.217 25.2468 151.357C25.4068 153.607 25.5068 155.847 25.4068 158.107C25.3668 159.087 25.2668 160.067 25.1668 161.037C25.0968 161.287 24.8168 162.987 24.6868 163.587C24.1668 165.897 23.4068 168.127 22.5868 170.347C22.3868 170.737 21.7168 172.287 21.4968 172.707C20.9568 173.737 20.3767 174.747 19.7667 175.737C19.4167 176.307 19.0468 176.867 18.6668 177.427C18.6068 177.527 18.2668 178.017 18.0468 178.347C17.9268 178.517 17.8067 178.667 17.7767 178.707C17.1067 179.497 16.4268 180.277 15.7268 181.037C11.5568 185.597 10.8768 193.307 15.7268 197.757C20.2768 201.927 27.9868 202.627 32.4468 197.757C49.8868 178.697 53.8968 151.347 42.4168 128.157C31.4968 106.107 6.15684 92.4073 -18.2532 95.4473C-32.6832 97.2473 -45.8733 103.457 -55.9833 114.057C-60.2533 118.537 -60.7633 126.387 -55.9833 130.777L-55.9933 130.787Z" fill="#FFCE51"/>
<path d="M180.8 366.059C192.94 339.129 205.09 312.189 217.23 285.259C218.97 281.409 220.7 277.549 222.44 273.699C225.06 267.879 224.11 260.979 218.2 257.519C213.14 254.559 204.66 255.909 202.02 261.759C189.88 288.689 177.73 315.629 165.59 342.559C163.85 346.409 162.12 350.269 160.38 354.119C157.76 359.939 158.71 366.839 164.62 370.299C169.68 373.259 178.16 371.909 180.8 366.059Z" fill="#FFCE51"/>
<path d="M222.45 384.837C234.59 357.907 246.74 330.967 258.88 304.037C260.62 300.187 262.35 296.327 264.09 292.477C266.71 286.657 265.76 279.757 259.85 276.297C254.79 273.337 246.31 274.687 243.67 280.537C231.53 307.467 219.38 334.407 207.24 361.337C205.5 365.187 203.77 369.047 202.03 372.897C199.41 378.717 200.36 385.617 206.27 389.077C211.33 392.037 219.81 390.687 222.45 384.837Z" fill="#FFCE51"/>
<path d="M41.6013 312.401C41.6113 311.401 41.6713 310.421 41.7213 309.421C41.8313 307.171 41.7413 309.201 41.6613 309.651C41.9613 308.071 42.2914 306.511 42.7714 304.971C43.0514 304.061 43.3713 303.171 43.7213 302.291C43.5513 302.721 42.6513 304.411 43.6813 302.531C44.5913 300.871 45.5113 299.291 46.5613 297.721C48.0913 295.411 45.4213 298.511 46.7213 297.551C47.3013 297.121 47.7813 296.351 48.2913 295.831C48.8513 295.261 52.3713 292.281 50.0913 294.001C51.3313 293.071 52.6413 292.211 54.0013 291.451C54.5413 291.141 55.1213 290.881 55.6613 290.571C57.6113 289.451 53.9013 291.001 56.7513 290.111C58.2813 289.631 59.7813 289.151 61.3513 288.821C62.0413 288.681 64.2213 288.451 61.5713 288.711C62.3913 288.631 63.2113 288.561 64.0313 288.531C65.7013 288.461 67.3313 288.601 69.0013 288.671C70.9013 288.741 66.2413 288.041 69.2313 288.731C70.1713 288.951 71.1113 289.131 72.0413 289.391C72.9613 289.651 73.8514 289.981 74.7614 290.271C75.3914 290.471 76.5713 291.271 74.5513 290.161C75.9213 290.921 77.3313 291.561 78.6613 292.401C79.3113 292.811 79.9213 293.321 80.5913 293.711C82.0813 294.591 78.7113 291.871 80.7413 293.901C82.0613 295.221 83.3314 296.571 84.6313 297.891C83.0713 296.301 84.1113 297.151 84.4813 297.711C85.0013 298.491 85.5314 299.251 86.0114 300.061C86.4314 300.761 88.3713 304.971 87.3213 302.281C87.9013 303.761 88.4013 305.271 88.7913 306.811C88.9513 307.431 89.0613 308.061 89.2113 308.691C89.7413 311.011 89.1413 306.761 89.3513 309.911C89.4513 311.401 89.4713 312.901 89.3813 314.391C89.3513 314.961 88.7913 318.041 89.3813 315.141C89.2513 315.771 89.1514 316.411 89.0114 317.041C88.6614 318.601 88.1513 320.101 87.6613 321.621C86.7313 324.501 88.8613 319.651 87.3613 322.261C86.8913 323.071 86.5014 323.921 86.0114 324.731C85.6114 325.401 85.1713 326.041 84.7513 326.691C84.3713 327.291 82.9613 328.761 84.6313 326.891C83.5913 328.051 82.5813 329.201 81.4313 330.261C81.3913 330.291 79.1213 332.341 80.5013 331.141C81.8513 329.961 79.5213 331.821 79.4513 331.871C77.8913 332.921 76.2413 333.781 74.5613 334.621C74.9513 334.431 76.8414 333.811 74.7714 334.511C73.8714 334.821 72.9713 335.131 72.0513 335.391C71.4313 335.561 70.8113 335.721 70.1913 335.861C70.1313 335.871 67.0114 336.441 68.9014 336.151C70.7914 335.861 67.6113 336.231 67.5413 336.231C66.7113 336.281 65.8813 336.291 65.0513 336.281C64.2213 336.271 63.4013 336.191 62.5713 336.161C59.8113 336.061 64.2813 336.661 61.8513 336.051C59.9813 335.581 58.1613 335.101 56.3313 334.511C53.6413 333.641 57.4213 335.411 56.1113 334.411C55.2913 333.781 54.1213 333.401 53.2213 332.861C52.6913 332.541 52.1614 332.211 51.6414 331.861C51.1214 331.511 50.6213 331.151 50.1213 330.781C51.2813 331.681 51.3613 331.711 50.3513 330.871C49.2613 329.781 48.1613 328.681 47.0613 327.581C44.9513 325.471 48.2513 329.551 46.6013 327.051C46.0813 326.271 45.5513 325.511 45.0713 324.701C44.5913 323.891 44.1913 323.051 43.7213 322.231C42.5113 320.121 44.2413 324.121 43.4213 321.591C42.8213 319.751 42.3513 317.941 41.8813 316.071C41.7313 315.481 41.6713 313.831 41.8613 316.331C41.7613 315.011 41.6614 313.701 41.6414 312.371C41.5614 306.191 36.2613 300.261 29.8213 300.551C23.4913 300.831 17.9013 305.751 18.0013 312.371C18.2813 332.581 30.7813 350.031 49.6013 357.131C67.5213 363.891 89.5213 358.051 101.671 343.231C114.411 327.681 116.941 305.641 106.461 288.101C96.0013 270.601 75.8513 262.241 56.0513 265.811C33.9613 269.781 18.3114 290.431 18.0113 312.371C17.9313 318.561 23.5113 324.481 29.8313 324.191C36.3113 323.901 41.5614 319.001 41.6514 312.371L41.6013 312.401Z" fill="#EE755D"/>
<path d="M122.837 194.796C131.327 212.756 140.137 230.566 148.797 248.436C155.427 262.136 175.827 250.156 169.217 236.496C161.207 219.936 153.197 203.386 145.187 186.826C141.187 178.556 139.117 169.986 144.937 161.716C152.717 150.676 169.717 149.846 178.247 160.556C184.267 168.106 187.697 178.966 191.867 187.576C198.267 200.806 209.387 211.286 224.267 214.016C242.727 217.396 261.827 209.216 271.347 192.816C279.317 179.086 278.707 163.366 272.077 149.336C263.587 131.376 254.767 113.566 246.117 95.6855C239.487 81.9855 219.087 93.9655 225.697 107.626C233.707 124.186 241.717 140.736 249.727 157.296C253.727 165.566 255.797 174.136 249.977 182.406C242.197 193.446 225.197 194.276 216.667 183.566C210.647 176.016 207.217 165.156 203.047 156.546C196.647 143.316 185.527 132.836 170.647 130.106C152.187 126.726 133.087 134.906 123.567 151.306C115.597 165.036 116.207 180.756 122.837 194.786L122.837 194.796Z" fill="#6447A1"/>
<path d="M310.002 226.856C303.306 242.467 303.143 259.876 311.203 275.057C316.291 284.633 324.29 291.874 333.602 296.511L377.981 318.632C382.998 321.128 388.015 323.635 393.042 326.131C398.914 329.057 406.027 327.863 409.508 321.569C412.571 316.039 411.095 307.109 405.193 304.161C393.805 298.48 382.418 292.81 371.02 287.129C363.958 283.611 356.895 280.092 349.833 276.574C348.083 275.702 346.322 274.831 344.572 273.949C344.185 273.755 343.798 273.561 343.412 273.357C342.119 272.679 340.857 271.937 339.646 271.108C339.158 270.775 337.245 269.312 339.066 270.807C338.374 270.237 337.723 269.624 337.082 268.999C336.573 268.505 336.074 267.988 335.596 267.461C335.352 267.192 333.286 264.685 334.171 265.858C335.087 267.074 333.775 265.266 333.591 264.965C333.123 264.212 332.655 263.458 332.228 262.673C331.77 261.845 329.999 257.315 330.823 259.876C330.274 258.176 329.745 256.476 329.368 254.722C329.216 254.023 329.124 253.302 328.981 252.602C329.572 255.486 329.002 252.258 328.971 251.677C328.88 249.848 328.971 248.051 329.073 246.222C329.043 246.717 328.605 248.783 329.063 246.33C329.236 245.415 329.409 244.512 329.623 243.608C329.847 242.693 330.091 241.8 330.376 240.907C330.549 240.369 331.78 237.357 330.783 239.691C333.469 233.44 332.482 226.006 326.468 222.283C321.308 219.087 312.699 220.561 310.002 226.845L310.002 226.856Z" fill="#AFC901"/>
<path d="M497.862 66.0142C491.073 79.9054 477.476 85.1601 463.879 78.8566C455.008 74.747 446.421 69.9739 437.57 65.8001C401.718 48.8803 360.917 79.5736 368.528 121.579C373.955 151.566 400.346 159.068 422.621 171.076C436.848 178.749 442.773 197.349 432.031 211.24C423.017 222.895 409.817 221.675 398.283 215.949C387.135 210.416 375.072 202.54 362.847 200.153C341.558 196.001 320.38 207.334 310.512 227.497C303.439 241.955 324.17 254.765 331.263 240.275C338.052 226.384 351.649 221.129 365.246 227.433C374.117 231.542 382.704 236.315 391.555 240.489C427.407 257.409 468.208 226.715 460.597 184.71C455.17 154.723 428.779 147.221 406.504 135.213C392.277 127.54 386.352 108.94 397.094 95.0487C406.108 83.3942 419.308 84.6143 430.842 90.3398C441.99 95.8728 454.053 103.749 466.278 106.136C487.567 110.288 508.745 98.9549 518.613 78.7924C525.686 64.334 504.955 51.5236 497.862 66.0142Z" fill="#AFC901"/>
<path d="M422.932 1.90452C434.32 7.53287 445.707 13.1505 457.105 18.7789C464.167 22.2646 471.23 25.7503 478.292 29.2361C480.042 30.0995 481.803 30.963 483.553 31.8371C483.94 32.0289 484.327 32.2208 484.713 32.4234C486.006 33.0949 487.268 33.8304 488.479 34.6512C488.967 34.9817 490.88 36.4314 489.059 34.9497C489.751 35.5147 490.402 36.1223 491.043 36.7405C491.552 37.2309 492.051 37.7425 492.529 38.2649C492.773 38.5314 494.839 41.0151 493.954 39.8532C493.038 38.6486 494.35 40.4395 494.534 40.7379C495.002 41.4841 495.47 42.2303 495.897 43.0085C496.355 43.8293 498.126 48.317 497.302 45.78C497.851 47.4642 498.38 49.1485 498.757 50.886C498.909 51.5789 499.001 52.2931 499.144 52.986C498.553 50.1292 499.123 53.3271 499.154 53.9027C499.245 55.7149 499.154 57.4951 499.052 59.3072C499.083 58.8169 499.52 56.7702 499.062 59.2006C498.889 60.1067 498.716 61.0021 498.502 61.8975C498.279 62.8036 498.034 63.6884 497.749 64.5731C497.576 65.1061 496.345 68.0908 497.342 65.7777C494.656 71.971 495.643 79.3369 501.657 83.0251C506.817 86.1911 515.426 84.7307 518.123 78.5054C524.819 63.0381 524.982 45.7907 516.922 30.7498C511.834 21.2626 503.835 14.0886 494.523 9.49426C479.727 2.19233 464.94 -5.12024 450.144 -12.4222C445.127 -14.8952 440.11 -17.3789 435.083 -19.852C429.211 -22.7515 422.098 -21.5682 418.617 -15.3323C415.554 -9.85318 417.03 -1.00557 422.932 1.91519L422.932 1.90452Z" fill="#AFC901"/>
<path d="M299.167 -1.69625C299.177 -2.69625 299.237 -3.67626 299.287 -4.67626C299.397 -6.92626 299.317 -4.89625 299.227 -4.44625C299.527 -6.02625 299.857 -7.58624 300.337 -9.12624C300.617 -10.0362 300.937 -10.9262 301.287 -11.8062C301.117 -11.3762 300.217 -9.68624 301.247 -11.5662C302.157 -13.2262 303.077 -14.8062 304.127 -16.3762C305.657 -18.6862 302.987 -15.5863 304.287 -16.5463C304.867 -16.9763 305.347 -17.7463 305.857 -18.2663C306.417 -18.8363 309.937 -21.8162 307.657 -20.0962C308.897 -21.0262 310.207 -21.8862 311.567 -22.6462C312.107 -22.9562 312.687 -23.2162 313.227 -23.5262C315.177 -24.6462 311.467 -23.0963 314.317 -23.9863C315.847 -24.4663 317.347 -24.9462 318.917 -25.2762C319.607 -25.4162 321.787 -25.6463 319.137 -25.3863C319.957 -25.4663 320.777 -25.5362 321.597 -25.5662C323.267 -25.6362 324.897 -25.4963 326.567 -25.4263C328.467 -25.3563 323.807 -26.0562 326.797 -25.3662C327.737 -25.1462 328.677 -24.9663 329.607 -24.7063C330.527 -24.4463 331.417 -24.1163 332.327 -23.8263C332.957 -23.6263 334.137 -22.8262 332.117 -23.9362C333.487 -23.1762 334.897 -22.5362 336.227 -21.6962C336.877 -21.2862 337.487 -20.7762 338.157 -20.3862C339.647 -19.5063 336.277 -22.2262 338.307 -20.1962C339.627 -18.8762 340.897 -17.5263 342.197 -16.2063C340.637 -17.7963 341.677 -16.9462 342.047 -16.3862C342.567 -15.6062 343.097 -14.8462 343.577 -14.0362C343.997 -13.3362 345.937 -9.12624 344.887 -11.8162C345.467 -10.3362 345.967 -8.82624 346.357 -7.28624C346.517 -6.66624 346.627 -6.03624 346.777 -5.40624C347.317 -3.08624 346.707 -7.33624 346.917 -4.18624C347.017 -2.69623 347.037 -1.19626 346.947 0.293745C346.917 0.863745 346.357 3.94375 346.947 1.04374C346.817 1.67375 346.717 2.31377 346.577 2.94377C346.227 4.50377 345.717 6.00376 345.227 7.52376C344.297 10.4038 346.427 5.55377 344.927 8.16377C344.457 8.97377 344.067 9.82377 343.577 10.6338C343.177 11.3038 342.737 11.9438 342.317 12.5938C341.937 13.1938 340.527 14.6637 342.197 12.7937C341.157 13.9537 340.147 15.1038 338.997 16.1638C338.957 16.1938 336.687 18.2437 338.067 17.0437C339.417 15.8637 337.087 17.7238 337.017 17.7738C335.457 18.8238 333.807 19.6838 332.127 20.5238C332.517 20.3338 334.407 19.7138 332.337 20.4138C331.437 20.7238 330.537 21.0337 329.617 21.2937C328.997 21.4637 328.377 21.6237 327.757 21.7637C327.697 21.7737 324.577 22.3438 326.467 22.0538C328.357 21.7638 325.177 22.1338 325.107 22.1338C324.277 22.1838 323.447 22.1938 322.617 22.1838C321.787 22.1738 320.967 22.0938 320.137 22.0638C317.377 21.9638 321.847 22.5637 319.417 21.9537C317.547 21.4837 315.727 21.0038 313.897 20.4138C311.207 19.5438 314.987 21.3138 313.677 20.3138C312.857 19.6838 311.687 19.3037 310.787 18.7637C310.257 18.4437 309.727 18.1137 309.207 17.7637C308.687 17.4137 308.187 17.0538 307.687 16.6838C308.847 17.5838 308.927 17.6138 307.917 16.7738C306.827 15.6838 305.727 14.5837 304.627 13.4837C302.517 11.3737 305.817 15.4537 304.167 12.9537C303.647 12.1737 303.117 11.4138 302.637 10.6038C302.157 9.79377 301.757 8.95377 301.287 8.13377C300.077 6.02377 301.807 10.0238 300.987 7.49375C300.387 5.65375 299.917 3.84376 299.447 1.97376C299.297 1.38376 299.237 -0.266257 299.427 2.23374C299.327 0.913743 299.227 -0.396246 299.207 -1.72625C299.127 -7.90625 293.827 -13.8363 287.387 -13.5463C281.057 -13.2663 275.467 -8.34625 275.567 -1.72625C275.847 18.4837 288.347 35.9338 307.167 43.0338C325.087 49.7938 347.087 43.9538 359.237 29.1338C371.977 13.5838 374.507 -8.45623 364.027 -25.9962C353.567 -43.4962 333.417 -51.8562 313.617 -48.2862C291.527 -44.3162 275.877 -23.6663 275.577 -1.72625C275.497 4.46375 281.077 10.3838 287.397 10.0938C293.877 9.80376 299.127 4.90375 299.217 -1.72625L299.167 -1.69625Z" fill="#EE755D"/>
<path d="M728.774 365.147C752.454 376.837 776.144 388.537 799.824 400.227C803.184 401.887 806.534 403.537 809.894 405.197C815.614 408.027 822.694 406.737 826.074 400.957C829.124 395.737 827.584 387.617 821.834 384.777C798.154 373.087 774.464 361.387 750.784 349.697C747.424 348.037 744.074 346.387 740.714 344.727C734.994 341.897 727.914 343.187 724.534 348.967C721.484 354.187 723.024 362.307 728.774 365.147Z" fill="#6447A1"/>
<path d="M310.731 376.991C309.223 386.376 315.608 395.206 324.992 396.714C334.376 398.222 343.207 391.837 344.715 382.453C346.223 373.068 339.838 364.238 330.454 362.73C321.069 361.222 312.239 367.607 310.731 376.991Z" fill="#6447A1"/>
<path d="M-89.4169 473.828C-83.3169 456.478 -77.2169 439.128 -71.1169 421.768C-68.0669 413.098 -63.4469 405.598 -53.4769 403.898C-40.1569 401.628 -27.5969 413.108 -29.1769 426.718C-30.2969 436.318 -35.5769 446.388 -38.7469 455.418C-43.6269 469.288 -43.2169 484.558 -34.6669 497.028C-24.0569 512.508 -4.78693 520.298 13.5531 515.498C28.9131 511.478 39.6331 499.968 44.9131 485.378C51.6731 466.698 58.0931 447.898 64.6831 429.158C69.7331 414.808 46.8531 408.768 41.8231 423.078C35.7231 440.428 29.6231 457.778 23.5231 475.138C20.4731 483.808 15.8531 491.308 5.88307 493.008C-7.43693 495.278 -19.9969 483.798 -18.4169 470.188C-17.2969 460.588 -12.0169 450.518 -8.84691 441.488C-3.96691 427.618 -4.37692 412.348 -12.9269 399.878C-23.5369 384.398 -42.8069 376.608 -61.1469 381.408C-76.5069 385.428 -87.2269 396.938 -92.5069 411.528C-99.2669 430.208 -105.687 449.008 -112.277 467.748C-117.327 482.098 -94.4469 488.138 -89.4169 473.828Z" fill="#8CDCE4"/>
<path d="M707.92 159.966C707.926 159.418 707.958 158.881 707.986 158.334C708.046 157.101 708.002 158.213 707.953 158.46C708.117 157.594 708.298 156.74 708.561 155.896C708.714 155.398 708.889 154.91 709.081 154.428C708.988 154.663 708.495 155.589 709.059 154.559C709.557 153.65 710.066 152.785 710.635 151.924C711.473 150.659 710.011 152.357 710.723 151.831C711.041 151.596 711.303 151.174 711.582 150.889C711.889 150.577 713.816 148.944 712.568 149.887C713.247 149.377 713.964 148.906 714.708 148.49C715.004 148.32 715.321 148.178 715.617 148.008C716.685 147.394 714.654 148.243 716.214 147.756C717.051 147.493 717.872 147.23 718.732 147.049C719.11 146.972 720.303 146.846 718.852 146.989C719.301 146.945 719.75 146.907 720.199 146.89C721.113 146.852 722.006 146.929 722.92 146.967C723.96 147.005 721.409 146.622 723.046 147C723.56 147.12 724.075 147.219 724.584 147.361C725.088 147.504 725.575 147.684 726.073 147.843C726.418 147.953 727.064 148.391 725.958 147.783C726.708 148.199 727.48 148.55 728.208 149.01C728.564 149.235 728.898 149.514 729.265 149.728C730.08 150.21 728.235 148.72 729.347 149.832C730.069 150.555 730.765 151.294 731.476 152.018C730.622 151.147 731.192 151.612 731.394 151.919C731.679 152.346 731.969 152.763 732.232 153.206C732.462 153.59 733.524 155.896 732.949 154.422C733.266 155.233 733.54 156.06 733.754 156.904C733.841 157.244 733.901 157.589 733.983 157.934C734.274 159.205 733.945 156.877 734.06 158.602C734.115 159.418 734.126 160.24 734.076 161.056C734.06 161.368 733.753 163.056 734.076 161.467C734.005 161.812 733.951 162.163 733.874 162.508C733.682 163.362 733.403 164.184 733.135 165.017C732.626 166.595 733.792 163.938 732.971 165.367C732.713 165.811 732.5 166.277 732.232 166.721C732.013 167.088 731.772 167.438 731.542 167.794C731.334 168.123 730.562 168.928 731.476 167.904C730.907 168.539 730.354 169.169 729.724 169.75C729.702 169.766 728.46 170.889 729.215 170.232C729.954 169.585 728.679 170.604 728.64 170.632C727.786 171.207 726.883 171.678 725.964 172.138C726.177 172.034 727.212 171.695 726.078 172.078C725.586 172.248 725.093 172.418 724.589 172.56C724.25 172.653 723.911 172.741 723.571 172.818C723.538 172.823 721.83 173.135 722.865 172.976C723.9 172.818 722.159 173.02 722.121 173.02C721.666 173.048 721.212 173.053 720.757 173.048C720.303 173.042 719.854 172.998 719.4 172.982C717.889 172.927 720.336 173.256 719.006 172.922C717.982 172.664 716.986 172.401 715.984 172.078C714.511 171.601 716.581 172.571 715.863 172.023C715.414 171.678 714.774 171.47 714.281 171.174C713.991 170.999 713.701 170.818 713.416 170.626C713.132 170.435 712.858 170.237 712.584 170.035C713.219 170.528 713.263 170.544 712.71 170.084C712.113 169.487 711.511 168.884 710.909 168.282C709.754 167.126 711.561 169.361 710.657 167.991C710.373 167.564 710.082 167.148 709.82 166.704C709.557 166.26 709.338 165.8 709.081 165.351C708.418 164.195 709.365 166.386 708.916 165C708.588 163.992 708.331 163.001 708.073 161.977C707.991 161.653 707.958 160.75 708.062 162.119C708.008 161.396 707.953 160.678 707.942 159.95C707.898 156.564 704.997 153.316 701.471 153.475C698.006 153.628 694.946 156.323 695.001 159.95C695.154 171.021 701.997 180.58 712.3 184.469C722.11 188.172 734.153 184.973 740.804 176.855C747.779 168.337 749.164 156.263 743.427 146.655C737.7 137.068 726.67 132.489 715.831 134.444C703.738 136.619 695.17 147.931 695.006 159.95C694.957 163.341 698.017 166.584 701.477 166.425C705.024 166.266 707.898 163.582 707.948 159.95L707.92 159.966Z" fill="#FFCE51"/>
<path d="M322.21 77.0018C312.705 77.0018 305 84.7071 305 94.2119C305 103.717 312.705 111.422 322.21 111.422C331.715 111.422 339.42 103.717 339.42 94.2119C339.42 84.7071 331.715 77.0018 322.21 77.0018Z" fill="#8CDCE4"/>
<path d="M659.871 437.945C659.88 437.06 659.933 436.193 659.977 435.308C660.074 433.317 659.995 435.114 659.924 435.512C660.189 434.114 660.481 432.733 660.906 431.37C661.153 430.565 661.436 429.778 661.746 428.999C661.595 429.379 660.799 430.875 661.71 429.211C662.515 427.742 663.329 426.344 664.257 424.955C665.61 422.911 663.249 425.654 664.399 424.804C664.912 424.424 665.336 423.743 665.787 423.282C666.282 422.778 669.395 420.141 667.379 421.663C668.475 420.84 669.634 420.079 670.836 419.407C671.314 419.132 671.827 418.902 672.304 418.628C674.029 417.637 670.748 418.999 673.268 418.221C674.621 417.796 675.948 417.371 677.336 417.079C677.946 416.955 679.874 416.752 677.531 416.982C678.256 416.911 678.981 416.849 679.706 416.823C681.183 416.761 682.624 416.885 684.101 416.946C685.781 417.008 681.66 416.389 684.305 417C685.136 417.194 685.967 417.354 686.79 417.584C687.603 417.814 688.39 418.106 689.195 418.362C689.752 418.539 690.795 419.247 689.009 418.265C690.221 418.938 691.468 419.504 692.644 420.247C693.219 420.61 693.758 421.061 694.35 421.406C695.668 422.185 692.688 419.778 694.483 421.575C695.65 422.743 696.773 423.937 697.923 425.105C696.544 423.698 697.463 424.45 697.79 424.946C698.25 425.636 698.719 426.309 699.143 427.026C699.515 427.645 701.23 431.37 700.302 428.99C700.815 430.3 701.257 431.636 701.602 432.999C701.743 433.547 701.841 434.105 701.973 434.662C702.451 436.715 701.911 432.954 702.097 435.742C702.185 437.06 702.203 438.388 702.124 439.706C702.097 440.211 701.602 442.936 702.124 440.37C702.009 440.927 701.92 441.494 701.796 442.051C701.487 443.432 701.036 444.759 700.603 446.104C699.78 448.653 701.664 444.361 700.337 446.671C699.922 447.387 699.577 448.139 699.143 448.856C698.79 449.449 698.401 450.016 698.029 450.591C697.693 451.122 696.446 452.422 697.923 450.768C697.003 451.794 696.11 452.812 695.093 453.75C695.058 453.776 693.05 455.59 694.271 454.529C695.465 453.484 693.404 455.13 693.342 455.175C691.963 456.104 690.504 456.865 689.018 457.608C689.363 457.44 691.034 456.891 689.204 457.511C688.408 457.785 687.612 458.059 686.798 458.289C686.25 458.44 685.702 458.581 685.154 458.705C685.1 458.714 682.341 459.219 684.013 458.962C685.684 458.705 682.872 459.033 682.81 459.033C682.076 459.077 681.342 459.086 680.608 459.077C679.874 459.068 679.149 458.997 678.415 458.971C675.974 458.882 679.927 459.413 677.778 458.873C676.125 458.458 674.515 458.033 672.897 457.511C670.518 456.741 673.861 458.307 672.702 457.422C671.977 456.865 670.943 456.528 670.147 456.051C669.678 455.767 669.209 455.475 668.75 455.166C668.29 454.856 667.848 454.537 667.405 454.21C668.431 455.006 668.502 455.033 667.609 454.29C666.645 453.325 665.672 452.352 664.699 451.378C662.833 449.511 665.752 453.122 664.293 450.909C663.833 450.219 663.364 449.546 662.94 448.83C662.515 448.113 662.161 447.37 661.746 446.644C660.676 444.777 662.206 448.316 661.48 446.078C660.95 444.449 660.534 442.848 660.119 441.193C659.986 440.671 659.933 439.211 660.101 441.423C660.012 440.255 659.924 439.096 659.906 437.919C659.836 432.45 655.149 427.203 649.454 427.459C643.856 427.707 638.913 432.061 639.001 437.919C639.249 455.803 650.303 471.244 666.945 477.527C682.792 483.509 702.247 478.341 712.992 465.227C724.258 451.467 726.495 431.963 717.228 416.442C707.978 400.956 690.159 393.558 672.649 396.718C653.115 400.231 639.275 418.504 639.01 437.919C638.939 443.396 643.874 448.635 649.463 448.378C655.193 448.122 659.836 443.786 659.915 437.919L659.871 437.945Z" fill="#EE755D"/>
<path d="M398.914 399.964C398.92 399.374 398.955 398.796 398.985 398.206C399.05 396.878 398.997 398.076 398.949 398.341C399.126 397.409 399.321 396.489 399.604 395.58C399.769 395.043 399.958 394.518 400.164 393.999C400.064 394.253 399.533 395.25 400.14 394.141C400.677 393.162 401.219 392.229 401.838 391.303C402.74 389.941 401.166 391.769 401.932 391.203C402.274 390.949 402.557 390.495 402.858 390.188C403.188 389.852 405.263 388.094 403.919 389.109C404.65 388.56 405.423 388.053 406.224 387.604C406.543 387.421 406.885 387.268 407.203 387.085C408.353 386.424 406.165 387.339 407.846 386.814C408.748 386.531 409.632 386.247 410.557 386.053C410.964 385.97 412.249 385.835 410.687 385.988C411.171 385.941 411.654 385.899 412.137 385.882C413.122 385.84 414.083 385.923 415.067 385.964C416.188 386.006 413.44 385.593 415.203 386C415.757 386.13 416.311 386.236 416.86 386.389C417.402 386.543 417.927 386.737 418.463 386.908C418.835 387.026 419.53 387.498 418.339 386.843C419.147 387.292 419.978 387.669 420.762 388.165C421.146 388.407 421.505 388.708 421.9 388.938C422.779 389.457 420.792 387.852 421.989 389.05C422.767 389.828 423.516 390.625 424.282 391.404C423.362 390.466 423.975 390.967 424.194 391.297C424.5 391.758 424.813 392.206 425.096 392.684C425.343 393.097 426.487 395.58 425.868 393.993C426.21 394.867 426.505 395.757 426.735 396.666C426.829 397.032 426.894 397.403 426.982 397.775C427.295 399.144 426.941 396.636 427.065 398.495C427.124 399.374 427.135 400.259 427.082 401.138C427.065 401.474 426.735 403.291 427.082 401.58C427.006 401.952 426.947 402.329 426.864 402.701C426.658 403.621 426.357 404.506 426.068 405.403C425.52 407.102 426.776 404.241 425.892 405.78C425.614 406.258 425.384 406.76 425.096 407.238C424.86 407.633 424.6 408.01 424.353 408.394C424.129 408.748 423.297 409.615 424.282 408.512C423.669 409.196 423.073 409.875 422.395 410.5C422.372 410.518 421.034 411.727 421.847 411.019C422.643 410.323 421.269 411.42 421.228 411.45C420.309 412.069 419.336 412.576 418.345 413.072C418.575 412.96 419.689 412.594 418.469 413.007C417.939 413.19 417.408 413.373 416.866 413.526C416.5 413.627 416.135 413.721 415.769 413.804C415.734 413.809 413.894 414.146 415.009 413.975C416.123 413.804 414.248 414.022 414.207 414.022C413.717 414.051 413.228 414.057 412.739 414.051C412.249 414.045 411.766 413.998 411.277 413.981C409.65 413.922 412.285 414.275 410.852 413.916C409.75 413.638 408.677 413.355 407.598 413.007C406.012 412.494 408.241 413.538 407.468 412.948C406.985 412.576 406.295 412.352 405.765 412.034C405.452 411.845 405.14 411.65 404.833 411.444C404.526 411.237 404.232 411.025 403.937 410.807C404.621 411.338 404.668 411.355 404.073 410.86C403.43 410.217 402.781 409.568 402.133 408.919C400.889 407.674 402.834 410.081 401.862 408.606C401.555 408.146 401.243 407.698 400.96 407.22C400.677 406.742 400.441 406.246 400.164 405.763C399.45 404.518 400.47 406.878 399.987 405.385C399.633 404.3 399.356 403.232 399.079 402.129C398.991 401.781 398.955 400.807 399.067 402.282C399.008 401.503 398.949 400.73 398.938 399.946C398.89 396.3 395.766 392.802 391.969 392.973C388.237 393.138 384.942 396.04 385.001 399.946C385.166 411.869 392.535 422.163 403.63 426.352C414.195 430.339 427.165 426.894 434.328 418.151C441.839 408.978 443.33 395.976 437.152 385.628C430.985 375.304 419.106 370.372 407.433 372.478C394.41 374.82 385.184 387.003 385.007 399.946C384.96 403.598 388.249 407.09 391.975 406.919C395.795 406.748 398.89 403.857 398.943 399.946L398.914 399.964Z" fill="#8CDCE4"/>
<path d="M305.377 449.559C306.854 451.699 307.704 453.29 307.926 454.334C308.452 456.812 306.874 459.328 303.192 461.883C301.299 463.239 299.701 464.056 298.397 464.334C297.158 464.597 296.052 464.525 295.079 464.119C294.158 463.633 293.433 463.105 292.903 462.537C291.987 461.436 288.19 456.075 281.51 446.454L278.519 447.294L266.195 449.914L268.544 460.967C268.863 462.467 269.04 463.622 269.076 464.432C269.164 465.163 269.05 466.073 268.737 467.163C268.198 469.117 265.842 470.538 261.668 471.425C257.104 472.396 254.174 471.758 252.878 469.511C252.251 468.486 251.695 466.832 251.21 464.55L239.67 410.263C239.351 408.763 239.148 407.647 239.061 406.916C239.025 406.106 239.164 405.156 239.478 404.067C240.017 402.113 242.373 400.692 246.546 399.804L267.674 395.313C273.412 394.093 279.431 394.995 285.731 398.018C288.769 399.485 291.503 401.766 293.933 404.862C296.363 407.958 298.029 411.625 298.93 415.863C300.496 423.232 299.34 429.816 295.461 435.616C297.631 438.767 300.936 443.415 305.377 449.559ZM262.514 432.601L275.035 429.939C276.926 429.537 278.664 428.418 280.25 426.582C281.836 424.745 282.325 422.392 281.715 419.523C281.105 416.654 279.702 414.703 277.506 413.67C275.296 412.572 273.18 412.238 271.159 412.668L258.834 415.288L262.514 432.601Z" fill="#EE755D"/>
<path d="M67.5347 117.05C66.03 114.75 65.3634 112.771 65.5348 111.113C65.7131 109.389 67.3719 107.281 70.5114 104.791C72.3338 103.371 74.1733 102.757 76.0301 102.949C77.8869 103.141 80.3017 105.066 83.2745 108.725C84.0863 109.948 85.2994 111.179 86.9139 112.419C88.5351 113.592 90.0752 114.253 91.5341 114.404C97.7012 115.042 101.045 112.841 101.566 107.801C101.724 106.276 100.992 104.927 99.3711 103.754C97.823 102.521 95.813 101.543 93.3411 100.818C90.8692 100.093 88.2258 99.0827 85.4108 97.7863C82.6028 96.4236 80.0108 94.9157 77.6349 93.2626C75.259 91.6094 73.3632 89.2017 71.9477 86.0393C70.6052 82.8175 70.1535 79.0846 70.5923 74.8405C71.1957 69.005 73.8754 64.1549 78.6315 60.2902C83.4607 56.3661 89.622 54.7914 97.1154 55.5663C101.094 55.9777 104.653 56.8819 107.793 58.2789C111.006 59.6164 113.187 60.8808 114.338 62.0721L116.629 64.2192C118.486 66.3548 119.346 68.0858 119.208 69.412C119.071 70.7383 118.087 72.4796 116.255 74.636C113.658 77.7185 111.166 79.1364 108.778 78.8895C107.386 78.7455 105.73 77.9041 103.812 76.3653C103.626 76.2121 103.263 75.8394 102.721 75.2472C102.245 74.6618 101.792 74.1794 101.363 73.7998C100.059 72.7937 98.3132 72.1776 96.1249 71.9513C94.0028 71.7319 92.1575 72.0772 90.5889 72.9874C89.0935 73.8381 88.2498 75.1918 88.0578 77.0486C87.8727 78.8391 88.5507 80.3837 90.092 81.6824C91.6996 82.988 93.7427 83.97 96.2215 84.6285C98.7003 85.2869 101.387 86.2014 104.282 87.3721C107.184 88.4764 109.833 89.7556 112.229 91.2098C114.626 92.664 116.499 94.9689 117.848 98.1244C119.271 101.22 119.759 104.924 119.313 109.234C118.868 113.544 117.611 117.268 115.544 120.406C113.484 123.477 110.969 125.763 107.999 127.266C102.264 130.225 96.346 131.389 90.2452 130.758C87.1285 130.436 84.2153 129.766 81.5056 128.749C78.8027 127.665 76.6475 126.47 75.0399 125.165C71.7447 122.679 69.5037 120.37 68.3168 118.237L67.5347 117.05Z" fill="#AFC901"/>
<path d="M465.116 344.77C466.776 343.03 468.516 341.41 470.386 339.89C468.826 341.16 470.576 339.8 471.236 339.36C472.336 338.62 473.466 337.93 474.626 337.28C475.626 336.72 476.696 336.27 477.696 335.71C478.846 335.05 477.276 335.84 477.116 335.91C477.716 335.66 478.326 335.43 478.936 335.21C481.066 334.43 483.256 333.81 485.466 333.33C486.096 333.19 486.736 333.08 487.366 332.96C487.616 332.91 489.226 332.7 487.706 332.89C486.186 333.08 487.806 332.89 488.056 332.87C488.696 332.83 489.336 332.76 489.986 332.73C492.236 332.61 494.496 332.64 496.746 332.83C497.386 332.88 498.026 332.95 498.666 333.03C498.526 333.01 496.586 332.64 497.916 332.97C499.016 333.24 500.146 333.39 501.246 333.66C503.466 334.21 505.626 334.93 507.756 335.75C505.576 334.9 508.236 336.02 508.976 336.4C510.016 336.93 511.026 337.49 512.026 338.1C512.886 338.62 513.716 339.19 514.556 339.74C516.386 340.94 514.996 340 514.616 339.71C515.156 340.13 515.686 340.57 516.206 341.02C518.036 342.59 519.746 344.29 521.326 346.11C521.856 346.72 523.136 348.53 522.006 346.88C522.756 347.98 523.536 349.06 524.236 350.2C524.846 351.18 525.406 352.19 525.946 353.21C526.236 353.77 527.616 356.81 526.616 354.39C527.486 356.49 528.196 358.66 528.756 360.86C529.036 361.96 529.276 363.06 529.476 364.17C529.566 364.65 529.636 365.12 529.716 365.6C529.646 365.17 529.486 363.09 529.646 365.33C529.806 367.58 529.906 369.82 529.806 372.08C529.746 373.37 529.636 374.65 529.486 375.93C529.806 373.29 529.276 376.67 529.076 377.56C528.506 380.11 527.686 382.57 526.756 385.02C527.636 382.7 526.216 386.04 525.876 386.68C525.336 387.71 524.756 388.72 524.146 389.71C523.796 390.28 523.426 390.84 523.046 391.4C522.916 391.59 521.716 393.34 522.486 392.26C523.246 391.19 522.266 392.54 522.156 392.68C521.486 393.47 520.806 394.25 520.106 395.01C515.936 399.57 515.256 407.28 520.106 411.73C524.656 415.9 532.366 416.6 536.826 411.73C554.266 392.67 558.276 365.32 546.796 342.13C535.876 320.08 510.536 306.38 486.126 309.42C471.696 311.22 458.506 317.43 448.396 328.03C444.126 332.51 443.616 340.36 448.396 344.75C453.026 349 460.556 349.53 465.116 344.75L465.116 344.77Z" fill="#1F7E8E"/>
<path d="M644.722 330.538C645.722 330.007 646.805 329.87 647.972 330.128C649.14 330.386 650.451 330.936 651.906 331.776C653.413 332.646 654.533 333.465 655.266 334.235C655.999 335.005 656.495 335.707 656.753 336.341C657.01 336.974 657.033 337.715 656.821 338.562C656.623 339.626 655.998 341.067 654.948 342.885L641.358 366.424C637.398 373.283 631.668 378.288 624.167 381.44C620.559 382.89 616.638 383.502 612.404 383.274C608.201 382.995 604.098 381.701 600.097 379.391C596.148 377.111 593.017 374.194 590.703 370.641C588.442 367.119 587.078 363.421 586.611 359.549C585.582 351.611 587.078 344.161 591.098 337.198L604.643 313.737C605.363 312.49 605.914 311.596 606.296 311.054C606.76 310.491 607.424 309.939 608.29 309.4C609.156 308.861 610.172 308.72 611.34 308.978C612.507 309.236 613.922 309.846 615.585 310.806C617.247 311.766 618.482 312.686 619.29 313.568C620.097 314.45 620.457 315.386 620.371 316.375C620.305 317.93 619.671 319.747 618.471 321.825L604.971 345.208C603.141 348.378 602.181 351.842 602.09 355.599C602.029 357.504 602.523 359.348 603.572 361.132C604.621 362.915 606.211 364.422 608.341 365.652C612.134 367.842 615.776 368.074 619.267 366.348C622.757 364.622 625.568 361.914 627.698 358.225L641.468 334.375C642.638 332.348 643.722 331.069 644.722 330.538Z" fill="#60489C"/>
<path d="M641.129 151.943C642.93 152.983 644.09 153.96 644.609 154.876C645.2 155.771 645.394 156.715 645.191 157.706C645.035 158.724 644.583 159.88 643.836 161.173C643.09 162.466 642.374 163.439 641.69 164.091C641.006 164.743 640.382 165.183 639.819 165.412C639.255 165.641 638.597 165.661 637.844 165.473C636.945 165.323 635.687 164.782 634.07 163.849L605.249 147.209C604.187 146.595 603.33 145.731 602.68 144.617C601.315 142.289 601.352 139.878 602.792 137.384C603.485 136.183 604.323 135.373 605.303 134.954L643.941 117.632L628.006 108.432C626.897 107.792 626.079 107.289 625.552 106.923C625.097 106.537 624.594 105.969 624.041 105.219C623.075 103.799 623.405 101.681 625.032 98.8631C626.739 95.907 628.402 94.4657 630.023 94.5391C630.929 94.5696 631.649 94.7084 632.184 94.9555C632.792 95.1832 633.65 95.617 634.758 96.257L662.61 112.337C663.672 112.95 664.528 113.814 665.178 114.928C665.828 116.043 666.14 117.208 666.115 118.425C666.136 119.669 665.786 120.915 665.066 122.162C664.346 123.409 663.496 124.242 662.515 124.661L623.878 141.983L641.129 151.943Z" fill="#9FDAE1"/>
<path d="M801.074 287.698C811.714 311.898 822.344 336.098 832.984 360.308C834.484 363.718 835.974 367.118 837.474 370.528C840.044 376.378 848.594 377.728 853.654 374.768C859.684 371.238 860.474 364.458 857.894 358.588C847.254 334.388 836.624 310.188 825.984 285.978C824.484 282.568 822.994 279.168 821.494 275.758C818.924 269.908 810.374 268.558 805.314 271.518C799.284 275.048 798.494 281.828 801.074 287.698Z" fill="#6447A1"/>
<path d="M785.502 421.372C769.661 434.518 766.905 458.106 779.769 474.469C792.782 491.017 816.446 492.654 832.695 480.432C829.442 476.62 826.197 472.812 822.944 469.001C807.103 482.147 804.346 505.735 817.21 522.098C830.223 538.646 853.887 540.283 870.136 528.061C877.83 522.275 868.061 510.852 860.385 516.63C850.47 524.093 836.216 522.292 828.558 512.364C820.753 502.242 823.186 488.321 832.683 480.437C840.146 474.246 830.579 463.255 822.932 469.006C813.017 476.469 798.764 474.668 791.105 464.74C783.3 454.619 785.733 440.697 795.23 432.813C802.637 426.667 792.906 415.22 785.479 421.382L785.502 421.372Z" fill="#AFC901"/>
<path d="M112.391 479.73C114.009 475.857 115.927 472.137 118.235 468.624C118.865 467.665 119.538 466.737 120.203 465.798C121.655 463.743 118.902 467.178 120.741 465.145C122.039 463.701 123.291 462.235 124.672 460.866C126.039 459.514 127.463 458.218 128.941 456.989C129.261 456.723 131.804 454.92 129.547 456.468C130.334 455.923 131.098 455.351 131.891 454.829C133.478 453.774 135.11 452.782 136.772 451.871C137.61 451.413 138.452 450.976 139.307 450.563C139.594 450.422 142.81 448.965 141.374 449.574C139.925 450.19 142.756 449.054 143.075 448.943C143.968 448.623 144.869 448.316 145.783 448.033C147.748 447.421 149.751 446.901 151.769 446.479C152.701 446.284 153.643 446.132 154.58 445.959C157.042 445.501 152.606 446.061 155.338 445.872C157.256 445.744 159.168 445.563 161.1 445.542C163.04 445.524 164.97 445.585 166.908 445.732C168.013 445.821 169.741 446.056 167.648 445.754C168.625 445.892 169.598 446.049 170.563 446.235C174.85 447.042 179.013 448.313 183.063 449.926C188.834 452.228 196.284 447.298 197.54 441.568C199.05 434.695 195.355 429.553 189.182 427.092C152.092 412.277 107.409 430.866 91.9935 467.763C89.6227 473.443 90.0391 480.698 96.2062 483.955C101.241 486.609 109.841 485.849 112.398 479.743L112.391 479.73Z" fill="#6447A1"/>
</svg>
