<svg width="57" height="58" viewBox="0 0 57 58" fill="none" xmlns="http://www.w3.org/2000/svg">
<rect y="0.5" width="57" height="57" rx="28.5" fill="#3D7B8C"/>
<path d="M24.3594 23.1914H19.2422C19.2161 20.6784 20.0755 18.6016 21.8203 16.9609C23.5651 15.3203 25.8633 14.5 28.7148 14.5C30.5508 14.5 32.1133 14.8385 33.4023 15.5156C34.6914 16.1927 35.7201 17.1693 36.4883 18.4453C37.2695 19.7214 37.6602 21.0625 37.6602 22.4688C37.6602 23.237 37.5365 23.9922 37.2891 24.7344C37.0417 25.4766 36.651 26.2383 36.1172 27.0195C35.8047 27.4753 35.056 28.2435 33.8711 29.3242C32.7383 30.3529 32.0286 31.082 31.7422 31.5117C31.4557 31.9284 31.2148 32.4883 31.0195 33.1914C30.8242 33.8945 30.7005 34.8711 30.6484 36.1211H25.3555L25.3359 35.2422C25.3359 33.4974 25.6549 31.9154 26.293 30.4961C26.931 29.0638 27.9661 27.7227 29.3984 26.4727C30.7786 25.2617 31.612 24.4284 31.8984 23.9727C32.1849 23.5169 32.3281 22.9831 32.3281 22.3711C32.3281 21.5378 31.9766 20.8346 31.2734 20.2617C30.5833 19.6758 29.6523 19.3828 28.4805 19.3828C27.2826 19.3828 26.2995 19.7409 25.5312 20.457C24.763 21.1602 24.3724 22.0716 24.3594 23.1914ZM28.0898 38.3477C29.0404 38.3477 29.8477 38.6732 30.5117 39.3242C31.1888 39.9753 31.5273 40.763 31.5273 41.6875C31.5273 42.612 31.1953 43.4062 30.5312 44.0703C29.8672 44.7214 29.0664 45.0469 28.1289 45.0469C27.1914 45.0469 26.3906 44.7214 25.7266 44.0703C25.0755 43.4062 24.75 42.612 24.75 41.6875C24.75 40.763 25.0755 39.9753 25.7266 39.3242C26.3776 38.6732 27.1654 38.3477 28.0898 38.3477Z" fill="white"/>
</svg>
