<svg width="328" height="328" viewBox="0 0 328 328" fill="none" xmlns="http://www.w3.org/2000/svg">
<path d="M191.509 37.4332C194.836 35.503 199.097 36.6189 201.051 39.932L219.291 70.8579C220.42 72.7727 222.392 74.0373 224.603 74.265L260.318 77.9433C264.144 78.3374 266.936 81.7448 266.569 85.5736L263.148 121.314C262.936 123.527 263.788 125.709 265.443 127.193L292.175 151.162C295.039 153.73 295.294 158.127 292.747 161.009L268.971 187.913C267.499 189.578 266.906 191.844 267.372 194.018L274.911 229.122C275.718 232.882 273.34 236.59 269.585 237.424L234.537 245.215C232.367 245.697 230.555 247.181 229.655 249.214L215.12 282.045C213.563 285.562 209.46 287.164 205.931 285.632L172.997 271.333C170.958 270.448 168.62 270.584 166.697 271.699L135.641 289.716C132.314 291.646 128.053 290.531 126.099 287.217L107.859 256.291C106.73 254.377 104.758 253.112 102.547 252.884L66.8317 249.206C63.0055 248.812 60.2141 245.405 60.5807 241.576L64.0023 205.835C64.2142 203.622 63.3623 201.44 61.7072 199.956L34.9751 175.988C32.1114 173.42 31.8558 169.023 34.4029 166.14L58.1789 139.237C59.6511 137.571 60.2444 135.305 59.7777 133.132L52.2394 98.0279C51.4318 94.2672 53.8098 90.5595 57.5646 89.7249L92.6133 81.9347C94.7833 81.4524 96.5953 79.9679 97.4952 77.9352L112.03 45.1048C113.587 41.5877 117.69 39.9858 121.219 41.5176L154.153 55.8163C156.192 56.7016 158.53 56.5657 160.453 55.4502L191.509 37.4332Z" fill="#FFCE51"/>
<path d="M98.859 100.651L102.685 87.1845L105.64 87.8977L110.043 99.2391L109.428 98.9881C109.484 98.5492 109.547 98.1327 109.617 97.7385C109.688 97.3443 109.756 96.9566 109.823 96.5753C109.903 96.1971 109.984 95.8125 110.068 95.4214C110.164 95.0335 110.27 94.6136 110.384 94.1615C110.512 93.7126 110.65 93.2253 110.8 92.6994L111.745 89.3711L114.953 90.1454L111.127 103.612L108.133 102.89L103.507 91.1655L104.46 91.5394C104.35 92.1707 104.253 92.7091 104.168 93.1545C104.099 93.5903 104.031 93.9781 103.962 94.3178C103.906 94.6606 103.846 94.9683 103.783 95.2408C103.719 95.5132 103.649 95.7841 103.573 96.0535C103.513 96.3131 103.437 96.6033 103.346 96.9239L102.067 101.426L98.859 100.651ZM119.017 105.722C117.941 105.463 117.047 105 116.336 104.335C115.638 103.673 115.155 102.885 114.889 101.971C114.635 101.06 114.654 100.092 114.946 99.0657C115.237 98.0396 115.736 97.1869 116.441 96.5074C117.16 95.8311 117.999 95.3622 118.96 95.1007C119.934 94.8423 120.958 94.8429 122.034 95.1026C123.11 95.3622 123.997 95.823 124.695 96.4849C125.407 97.15 125.889 97.938 126.143 98.8489C126.396 99.7599 126.377 100.728 126.086 101.754C125.794 102.78 125.296 103.633 124.59 104.313C123.885 104.992 123.045 105.461 122.072 105.719C121.111 105.981 120.093 105.982 119.017 105.722ZM119.771 103.067C120.238 103.18 120.685 103.165 121.114 103.021C121.542 102.878 121.917 102.633 122.237 102.285C122.557 101.938 122.784 101.506 122.917 100.99C123.075 100.48 123.108 100.001 123.013 99.5532C122.922 99.0928 122.728 98.7033 122.431 98.3849C122.134 98.0664 121.752 97.8509 121.285 97.7382C120.819 97.6256 120.365 97.6394 119.923 97.7795C119.495 97.9228 119.118 98.1746 118.794 98.535C118.474 98.8825 118.247 99.3144 118.115 99.8306C117.956 100.34 117.924 100.819 118.018 101.267C118.113 101.715 118.308 102.098 118.606 102.416C118.916 102.738 119.305 102.955 119.771 103.067ZM127.521 107.569L131.156 94.7756L134.267 95.5264L130.632 108.32L127.521 107.569ZM127.831 99.6059L128.596 96.9125L135.537 98.5877L134.772 101.281L127.831 99.6059ZM150.615 115.404L147.388 107.163L150.294 106.076L153.479 114.245L150.615 115.404ZM147.098 112.5C146.074 112.253 145.184 111.853 144.426 111.3C143.669 110.747 143.063 110.08 142.606 109.298C142.15 108.516 141.867 107.66 141.757 106.729C141.648 105.798 141.737 104.826 142.025 103.813C142.313 102.8 142.752 101.912 143.342 101.15C143.933 100.388 144.635 99.7693 145.449 99.2942C146.262 98.819 147.146 98.5115 148.1 98.3717C149.054 98.2318 150.042 98.2855 151.066 98.5326C152.09 98.7797 152.981 99.1797 153.738 99.7324C154.495 100.285 155.102 100.952 155.558 101.734C156.015 102.516 156.291 103.371 156.388 104.299C156.497 105.23 156.408 106.202 156.12 107.215C155.836 108.215 155.397 109.103 154.803 109.878C154.225 110.643 153.529 111.263 152.716 111.738C151.902 112.213 151.018 112.521 150.065 112.661C149.111 112.801 148.122 112.747 147.098 112.5ZM147.973 109.422C148.504 109.55 149.017 109.571 149.513 109.485C150.021 109.402 150.486 109.227 150.909 108.958C151.348 108.681 151.725 108.326 152.042 107.896C152.358 107.465 152.596 106.967 152.757 106.403C152.917 105.839 152.974 105.297 152.927 104.779C152.881 104.261 152.738 103.788 152.499 103.36C152.277 102.923 151.967 102.553 151.568 102.251C151.182 101.953 150.723 101.739 150.192 101.611C149.66 101.483 149.141 101.46 148.632 101.543C148.137 101.629 147.67 101.811 147.231 102.088C146.795 102.353 146.419 102.701 146.103 103.132C145.8 103.566 145.568 104.065 145.408 104.629C145.247 105.194 145.182 105.74 145.212 106.268C145.259 106.786 145.401 107.259 145.64 107.687C145.879 108.114 146.191 108.478 146.577 108.776C146.976 109.078 147.441 109.293 147.973 109.422ZM159.876 115.604C159.111 115.42 158.502 115.102 158.049 114.649C157.612 114.188 157.332 113.613 157.209 112.926C157.099 112.241 157.166 111.469 157.41 110.61L159.203 104.3L162.333 105.055L160.66 110.942C160.544 111.353 160.508 111.721 160.554 112.047C160.6 112.373 160.729 112.651 160.941 112.88C161.156 113.097 161.445 113.249 161.808 113.337C162.08 113.402 162.339 113.417 162.585 113.38C162.844 113.347 163.073 113.272 163.272 113.155C163.488 113.029 163.671 112.875 163.82 112.691C163.972 112.495 164.085 112.269 164.158 112.012L165.891 105.914L169.021 106.669L166.119 116.885L163.183 116.176L163.643 114.047L164.291 113.956C163.997 114.406 163.614 114.78 163.142 115.077C162.673 115.361 162.154 115.558 161.582 115.667C161.015 115.763 160.446 115.742 159.876 115.604ZM169.066 117.596L171.968 107.381L175.079 108.131L172.177 118.347L169.066 117.596ZM174.098 105.736C173.514 105.595 173.093 105.349 172.832 104.999C172.588 104.638 172.539 104.202 172.685 103.689C172.816 103.227 173.092 102.889 173.513 102.676C173.934 102.462 174.429 102.424 175 102.562C175.583 102.702 175.996 102.953 176.24 103.313C176.488 103.661 176.54 104.085 176.398 104.585C176.264 105.06 175.986 105.404 175.565 105.617C175.157 105.834 174.668 105.874 174.098 105.736ZM175.955 119.259L179.59 106.465L182.7 107.216L179.065 120.01L175.955 119.259ZM176.265 111.296L177.03 108.602L183.971 110.277L183.205 112.971L176.265 111.296ZM187.615 122.279C186.474 122.003 185.547 121.54 184.832 120.887C184.12 120.222 183.643 119.442 183.398 118.547C183.158 117.64 183.181 116.679 183.469 115.666C183.691 114.883 184.025 114.197 184.47 113.605C184.915 113.013 185.438 112.537 186.04 112.175C186.645 111.8 187.301 111.561 188.009 111.458C188.734 111.345 189.479 111.381 190.243 111.565C190.969 111.74 191.594 112.028 192.117 112.429C192.653 112.832 193.076 113.318 193.386 113.886C193.695 114.454 193.877 115.081 193.932 115.765C193.987 116.45 193.896 117.161 193.658 117.899L193.404 118.722L185.18 116.737L185.225 114.897L191.368 116.38L190.934 116.666L191.043 116.281C191.108 115.954 191.085 115.647 190.973 115.359C190.877 115.062 190.707 114.809 190.462 114.599C190.217 114.389 189.913 114.24 189.55 114.153C189.044 114.031 188.581 114.028 188.16 114.146C187.755 114.254 187.407 114.478 187.117 114.819C186.829 115.148 186.608 115.587 186.451 116.139C186.291 116.703 186.267 117.225 186.38 117.705C186.51 118.175 186.768 118.58 187.156 118.92C187.557 119.263 188.076 119.512 188.711 119.665C189.151 119.772 189.558 119.801 189.932 119.754C190.318 119.711 190.756 119.583 191.245 119.372L192.124 121.764C191.624 122.013 191.116 122.192 190.6 122.3C190.085 122.409 189.573 122.457 189.064 122.443C188.564 122.446 188.081 122.391 187.615 122.279ZM196.178 118.898C196.296 118.09 196.422 117.257 196.556 116.399C196.689 115.54 196.839 114.692 197.008 113.856C197.176 113.019 197.368 112.223 197.583 111.466L198.009 109.965L201.295 110.758L200.869 112.259C200.65 113.029 200.39 113.822 200.088 114.64C199.787 115.458 199.465 116.272 199.125 117.08C198.788 117.876 198.454 118.638 198.122 119.367L196.178 118.898ZM195.696 124.25C195.165 124.121 194.792 123.874 194.577 123.507C194.363 123.14 194.334 122.681 194.491 122.129C194.637 121.616 194.911 121.237 195.313 120.991C195.715 120.746 196.169 120.684 196.674 120.806C197.206 120.934 197.57 121.187 197.768 121.563C197.982 121.93 198.011 122.39 197.854 122.941C197.712 123.441 197.44 123.814 197.038 124.06C196.636 124.305 196.188 124.369 195.696 124.25ZM209.655 127.393L212.661 116.812L208.618 115.836L209.438 112.95L220.928 115.723L220.108 118.609L215.967 117.609L212.96 128.19L209.655 127.393ZM219.109 129.675L223.154 115.438L226.206 116.175L224.474 122.273L223.786 122.354C224.06 121.927 224.431 121.571 224.899 121.287C225.385 120.992 225.919 120.793 226.503 120.687C227.087 120.581 227.664 120.597 228.235 120.735C229.012 120.922 229.621 121.241 230.062 121.69C230.506 122.126 230.774 122.691 230.868 123.385C230.965 124.066 230.886 124.856 230.631 125.754L228.849 132.025L225.719 131.27L227.43 125.248C227.547 124.838 227.585 124.484 227.545 124.186C227.505 123.889 227.38 123.646 227.17 123.459C226.977 123.261 226.703 123.127 226.35 123.055C226.078 122.989 225.812 122.973 225.553 123.007C225.298 123.027 225.063 123.101 224.847 123.227C224.635 123.34 224.447 123.487 224.285 123.667C224.136 123.85 224.027 124.064 223.958 124.307L222.22 130.425L220.684 130.055C220.321 129.967 220.01 129.892 219.751 129.829C219.491 129.767 219.278 129.715 219.109 129.675ZM236.314 134.033C235.174 133.757 234.246 133.294 233.531 132.641C232.82 131.976 232.342 131.196 232.098 130.301C231.857 129.393 231.88 128.433 232.168 127.42C232.391 126.637 232.724 125.95 233.169 125.359C233.614 124.767 234.138 124.291 234.739 123.929C235.344 123.554 236.001 123.315 236.709 123.212C237.433 123.099 238.178 123.135 238.943 123.319C239.668 123.494 240.293 123.782 240.816 124.182C241.353 124.586 241.776 125.072 242.085 125.64C242.395 126.208 242.577 126.834 242.631 127.519C242.686 128.204 242.595 128.915 242.358 129.653L242.103 130.475L233.879 128.491L233.924 126.651L240.068 128.134L239.633 128.42L239.743 128.035C239.808 127.708 239.784 127.401 239.672 127.113C239.576 126.816 239.406 126.563 239.161 126.353C238.916 126.143 238.612 125.994 238.249 125.906C237.744 125.784 237.28 125.782 236.859 125.9C236.454 126.008 236.107 126.232 235.816 126.573C235.529 126.901 235.307 127.341 235.15 127.893C234.99 128.457 234.966 128.979 235.079 129.459C235.209 129.928 235.468 130.334 235.856 130.674C236.257 131.017 236.775 131.266 237.41 131.419C237.851 131.525 238.258 131.555 238.631 131.508C239.018 131.464 239.455 131.337 239.945 131.126L240.823 133.517C240.323 133.767 239.815 133.946 239.3 134.054C238.784 134.163 238.272 134.21 237.763 134.197C237.264 134.2 236.781 134.145 236.314 134.033ZM98.1542 126.384C97.1303 126.137 96.2315 125.742 95.4578 125.199C94.7008 124.646 94.0922 123.985 93.632 123.216C93.1754 122.435 92.8924 121.578 92.783 120.647C92.6902 119.707 92.7895 118.723 93.081 117.697C93.3653 116.697 93.8091 115.817 94.4125 115.058C95.0159 114.299 95.7227 113.689 96.5327 113.226C97.3593 112.754 98.256 112.45 99.2228 112.313C100.203 112.18 101.211 112.238 102.248 112.488C102.896 112.645 103.507 112.881 104.082 113.198C104.657 113.515 105.162 113.905 105.599 114.366C106.052 114.818 106.41 115.316 106.671 115.858L103.999 117.66C103.807 117.312 103.584 116.998 103.331 116.718C103.095 116.428 102.812 116.181 102.482 115.978C102.152 115.775 101.779 115.623 101.365 115.523C100.846 115.398 100.326 115.376 99.8051 115.455C99.3004 115.525 98.8239 115.691 98.3756 115.953C97.9439 116.205 97.5616 116.552 97.2287 116.992C96.8958 117.432 96.6437 117.954 96.4724 118.557C96.3048 119.147 96.2489 119.709 96.3049 120.243C96.3645 120.765 96.52 121.241 96.7716 121.672C97.0232 122.102 97.3697 122.467 97.8112 122.765C98.2657 123.067 98.7975 123.291 99.4067 123.438C99.8214 123.538 100.233 123.576 100.642 123.551C101.05 123.527 101.438 123.456 101.803 123.338C102.186 123.211 102.536 123.049 102.856 122.852L103.739 125.738C103.313 126.019 102.788 126.235 102.163 126.386C101.552 126.54 100.892 126.62 100.183 126.627C99.4916 126.625 98.8152 126.544 98.1542 126.384ZM110.001 129.243C108.925 128.984 108.031 128.521 107.32 127.856C106.622 127.194 106.139 126.406 105.873 125.492C105.619 124.581 105.638 123.613 105.93 122.587C106.221 121.561 106.72 120.708 107.425 120.029C108.144 119.352 108.983 118.883 109.944 118.622C110.918 118.363 111.942 118.364 113.018 118.624C114.094 118.883 114.981 119.344 115.679 120.006C116.39 120.671 116.873 121.459 117.127 122.37C117.38 123.281 117.361 124.25 117.07 125.276C116.778 126.302 116.28 127.154 115.574 127.834C114.869 128.513 114.029 128.982 113.055 129.241C112.095 129.502 111.077 129.503 110.001 129.243ZM110.755 126.589C111.222 126.701 111.669 126.686 112.098 126.543C112.526 126.399 112.901 126.154 113.221 125.806C113.541 125.459 113.768 125.027 113.901 124.511C114.059 124.001 114.092 123.522 113.997 123.074C113.906 122.614 113.712 122.225 113.415 121.906C113.118 121.588 112.736 121.372 112.269 121.259C111.803 121.147 111.349 121.161 110.907 121.301C110.479 121.444 110.102 121.696 109.778 122.056C109.458 122.404 109.231 122.836 109.099 123.352C108.94 123.862 108.908 124.34 109.002 124.788C109.097 125.236 109.292 125.619 109.59 125.937C109.9 126.259 110.288 126.476 110.755 126.589ZM117.65 130.884L120.552 120.668L123.507 121.382L122.698 124.743L122.295 123.967C122.607 123.453 123 123.02 123.474 122.669C123.961 122.32 124.481 122.076 125.033 121.935C125.586 121.794 126.134 121.789 126.678 121.921C126.912 121.977 127.12 122.048 127.303 122.133C127.5 122.222 127.675 122.312 127.829 122.404L126.006 125.603C125.889 125.479 125.715 125.361 125.483 125.25C125.268 125.13 125.031 125.038 124.772 124.976C124.486 124.907 124.206 124.894 123.931 124.937C123.659 124.968 123.413 125.052 123.194 125.191C122.974 125.33 122.778 125.509 122.605 125.728C122.445 125.949 122.321 126.214 122.234 126.522L120.78 131.639L117.65 130.884ZM126.497 133.019L129.4 122.804L132.355 123.517L131.545 126.878L131.143 126.102C131.455 125.588 131.848 125.156 132.322 124.804C132.809 124.456 133.328 124.211 133.881 124.07C134.433 123.929 134.981 123.925 135.526 124.056C135.759 124.112 135.968 124.183 136.151 124.269C136.347 124.357 136.523 124.447 136.677 124.539L134.854 127.738C134.737 127.614 134.562 127.497 134.33 127.386C134.115 127.265 133.878 127.174 133.619 127.111C133.334 127.042 133.054 127.03 132.778 127.073C132.506 127.103 132.261 127.188 132.041 127.327C131.822 127.466 131.626 127.644 131.453 127.863C131.293 128.085 131.169 128.35 131.081 128.657L129.627 133.775L126.497 133.019ZM139.772 136.429C138.632 136.154 137.704 135.69 136.989 135.038C136.278 134.373 135.8 133.593 135.556 132.698C135.315 131.79 135.339 130.829 135.626 129.816C135.849 129.034 136.182 128.347 136.627 127.755C137.073 127.164 137.596 126.687 138.197 126.325C138.802 125.95 139.459 125.711 140.167 125.608C140.891 125.495 141.636 125.531 142.401 125.715C143.127 125.891 143.751 126.178 144.274 126.579C144.811 126.982 145.234 127.468 145.543 128.036C145.853 128.604 146.035 129.231 146.09 129.916C146.144 130.6 146.053 131.312 145.816 132.049L145.561 132.872L137.337 130.887L137.382 129.047L143.526 130.53L143.091 130.816L143.201 130.431C143.266 130.104 143.242 129.797 143.13 129.51C143.035 129.212 142.864 128.959 142.619 128.749C142.374 128.539 142.07 128.39 141.707 128.303C141.202 128.181 140.738 128.179 140.317 128.296C139.913 128.404 139.565 128.629 139.274 128.97C138.987 129.298 138.765 129.738 138.608 130.289C138.448 130.853 138.424 131.375 138.537 131.855C138.667 132.325 138.926 132.73 139.314 133.07C139.715 133.414 140.233 133.662 140.868 133.815C141.309 133.922 141.716 133.951 142.089 133.905C142.476 133.861 142.913 133.733 143.403 133.523L144.281 135.914C143.781 136.163 143.273 136.342 142.758 136.451C142.242 136.559 141.73 136.607 141.221 136.594C140.722 136.596 140.239 136.542 139.772 136.429ZM150.775 139.085C149.777 138.844 148.948 138.397 148.289 137.744C147.629 137.092 147.179 136.312 146.939 135.404C146.715 134.486 146.747 133.521 147.034 132.508C147.322 131.495 147.806 130.645 148.486 129.959C149.182 129.264 149.991 128.781 150.913 128.51C151.834 128.239 152.794 128.224 153.792 128.465C154.713 128.687 155.51 129.051 156.183 129.556C156.87 130.064 157.358 130.662 157.648 131.348L155.388 132.941C155.264 132.692 155.105 132.448 154.91 132.209C154.715 131.97 154.483 131.763 154.214 131.589C153.945 131.414 153.648 131.288 153.324 131.209C152.832 131.091 152.365 131.101 151.923 131.241C151.485 131.369 151.106 131.606 150.786 131.954C150.466 132.301 150.233 132.731 150.087 133.244C149.948 133.732 149.926 134.199 150.021 134.647C150.128 135.098 150.337 135.484 150.647 135.806C150.958 136.127 151.352 136.346 151.832 136.462C152.169 136.543 152.491 136.579 152.798 136.571C153.109 136.55 153.404 136.485 153.685 136.374C153.979 136.267 154.264 136.117 154.54 135.923L155.638 138.346C155.041 138.792 154.301 139.079 153.42 139.209C152.551 139.342 151.669 139.3 150.775 139.085ZM157.75 140.562L161.384 127.769L164.495 128.519L160.86 141.313L157.75 140.562ZM158.059 132.599L158.824 129.906L165.765 131.581L165 134.274L158.059 132.599ZM169.468 143.391L178.68 131.223L181.479 131.899L182.999 146.657L179.656 145.849L179.03 138.4C179.003 138.106 178.981 137.792 178.965 137.46C178.948 137.127 178.934 136.787 178.921 136.442C178.912 136.083 178.9 135.738 178.884 135.405C178.884 135.062 178.89 134.748 178.902 134.463L179.49 134.585C179.322 134.887 179.142 135.179 178.95 135.462C178.772 135.748 178.588 136.032 178.396 136.315C178.222 136.588 178.033 136.865 177.828 137.144C177.628 137.411 177.43 137.692 177.236 137.988L172.734 144.179L169.468 143.391ZM172.767 141.432L174.497 139.218L180.757 140.729L181.068 143.436L172.767 141.432ZM184.367 146.987L187.269 136.771L190.225 137.484L189.731 139.585L189.044 139.666C189.317 139.239 189.689 138.883 190.157 138.599C190.642 138.305 191.177 138.105 191.761 137.999C192.345 137.893 192.922 137.909 193.493 138.047C194.27 138.234 194.879 138.553 195.32 139.002C195.764 139.438 196.032 140.003 196.126 140.697C196.223 141.378 196.144 142.168 195.889 143.066L194.107 149.337L190.977 148.582L192.688 142.56C192.805 142.15 192.843 141.796 192.803 141.498C192.763 141.201 192.638 140.958 192.428 140.771C192.235 140.573 191.961 140.439 191.608 140.367C191.335 140.301 191.07 140.285 190.811 140.319C190.556 140.339 190.32 140.413 190.105 140.539C189.892 140.652 189.705 140.799 189.543 140.979C189.394 141.162 189.285 141.376 189.216 141.619L187.478 147.737L185.942 147.367C185.579 147.279 185.268 147.204 185.009 147.141C184.749 147.079 184.535 147.027 184.367 146.987ZM200.133 150.997C199.122 150.753 198.274 150.377 197.587 149.869C196.913 149.364 196.426 148.787 196.126 148.139L198.471 146.978C198.76 147.473 199.129 147.877 199.58 148.191C200.035 148.493 200.489 148.699 200.942 148.808C201.124 148.852 201.291 148.872 201.445 148.868C201.598 148.864 201.73 148.84 201.838 148.798C201.964 148.746 202.065 148.682 202.143 148.604C202.224 148.514 202.283 148.405 202.319 148.277C202.392 148.02 202.332 147.793 202.138 147.596C202.04 147.504 201.868 147.38 201.621 147.224C201.374 147.069 201.053 146.882 200.658 146.663C200.093 146.362 199.613 146.054 199.217 145.74C198.839 145.415 198.547 145.078 198.342 144.727C198.159 144.395 198.042 144.051 197.99 143.696C197.943 143.328 197.977 142.939 198.094 142.529C198.228 142.054 198.461 141.651 198.79 141.32C199.133 140.991 199.532 140.731 199.988 140.54C200.457 140.351 200.958 140.246 201.491 140.224C202.04 140.192 202.58 140.24 203.112 140.368C203.682 140.506 204.208 140.702 204.69 140.955C205.172 141.208 205.601 141.504 205.976 141.841C206.364 142.181 206.687 142.554 206.946 142.959L204.799 144.373C204.628 144.099 204.417 143.842 204.166 143.604C203.932 143.355 203.674 143.142 203.392 142.965C203.11 142.787 202.84 142.667 202.58 142.604C202.386 142.557 202.205 142.534 202.039 142.535C201.889 142.527 201.751 142.548 201.626 142.6C201.504 142.639 201.403 142.704 201.322 142.794C201.244 142.871 201.187 142.974 201.151 143.102C201.114 143.23 201.112 143.36 201.144 143.491C201.189 143.625 201.266 143.747 201.373 143.855C201.481 143.963 201.663 144.103 201.919 144.274C202.179 144.433 202.535 144.642 202.987 144.902C203.549 145.216 204.021 145.529 204.403 145.84C204.786 146.152 205.066 146.48 205.245 146.825C205.391 147.093 205.473 147.387 205.493 147.707C205.517 148.014 205.481 148.334 205.387 148.668C205.201 149.322 204.847 149.86 204.325 150.282C203.82 150.695 203.202 150.971 202.47 151.109C201.742 151.235 200.963 151.198 200.133 150.997ZM208.589 152.833L208.089 141.796L211.375 142.589L211.394 149.686L211.008 149.511L214.612 144.871L216.439 145.312L217.224 151.031L216.766 150.962L220.551 144.804L223.837 145.597L217.416 154.963L215.122 154.409L214.444 148.387L214.666 148.482L210.883 153.386L208.589 152.833ZM227.127 157.513C225.987 157.237 225.059 156.774 224.344 156.121C223.633 155.456 223.155 154.676 222.911 153.781C222.67 152.873 222.694 151.913 222.981 150.9C223.204 150.117 223.537 149.43 223.982 148.839C224.428 148.247 224.951 147.771 225.552 147.409C226.157 147.034 226.814 146.795 227.522 146.692C228.246 146.579 228.991 146.614 229.756 146.799C230.482 146.974 231.106 147.262 231.629 147.662C232.166 148.066 232.589 148.552 232.898 149.12C233.208 149.688 233.39 150.314 233.444 150.999C233.499 151.684 233.408 152.395 233.171 153.133L232.916 153.955L224.692 151.97L224.737 150.131L230.881 151.614L230.446 151.9L230.556 151.515C230.621 151.188 230.597 150.881 230.485 150.593C230.39 150.296 230.219 150.043 229.974 149.833C229.729 149.623 229.425 149.474 229.062 149.386C228.557 149.264 228.093 149.262 227.672 149.38C227.267 149.488 226.92 149.712 226.629 150.053C226.342 150.381 226.12 150.821 225.963 151.373C225.803 151.937 225.779 152.459 225.892 152.939C226.022 153.408 226.281 153.813 226.669 154.154C227.07 154.497 227.588 154.746 228.223 154.899C228.664 155.005 229.071 155.035 229.444 154.988C229.831 154.944 230.268 154.817 230.758 154.606L231.636 156.997C231.136 157.247 230.628 157.426 230.113 157.534C229.597 157.643 229.085 157.69 228.576 157.677C228.077 157.68 227.594 157.625 227.127 157.513ZM233.655 158.882L236.557 148.667L239.512 149.38L238.703 152.741L238.3 151.966C238.612 151.452 239.005 151.019 239.479 150.667C239.966 150.319 240.486 150.074 241.038 149.933C241.59 149.793 242.139 149.788 242.683 149.919C242.917 149.976 243.125 150.046 243.308 150.132C243.505 150.22 243.68 150.311 243.834 150.403L242.011 153.601C241.894 153.477 241.72 153.36 241.488 153.249C241.273 153.128 241.036 153.037 240.776 152.974C240.491 152.906 240.211 152.893 239.936 152.936C239.664 152.966 239.418 153.051 239.199 153.19C238.979 153.329 238.783 153.507 238.61 153.726C238.45 153.948 238.326 154.213 238.239 154.52L236.785 159.638L233.655 158.882ZM248.905 162.563L251.807 152.347L254.918 153.098L252.015 163.314L248.905 162.563ZM253.937 150.703C253.353 150.562 252.931 150.316 252.671 149.966C252.427 149.605 252.378 149.169 252.524 148.656C252.655 148.194 252.931 147.856 253.352 147.642C253.773 147.429 254.268 147.391 254.838 147.528C255.422 147.669 255.835 147.92 256.079 148.28C256.327 148.628 256.379 149.052 256.237 149.552C256.102 150.026 255.825 150.37 255.404 150.584C254.996 150.801 254.507 150.84 253.937 150.703ZM258.364 165.052C257.353 164.808 256.504 164.431 255.817 163.923C255.144 163.418 254.657 162.841 254.356 162.193L256.701 161.032C256.99 161.527 257.36 161.931 257.811 162.246C258.265 162.547 258.719 162.753 259.173 162.862C259.354 162.906 259.522 162.926 259.675 162.922C259.829 162.918 259.96 162.895 260.069 162.852C260.194 162.8 260.296 162.736 260.373 162.659C260.454 162.568 260.513 162.459 260.549 162.331C260.622 162.075 260.562 161.848 260.369 161.65C260.27 161.558 260.098 161.434 259.851 161.279C259.604 161.123 259.284 160.936 258.889 160.717C258.323 160.416 257.843 160.109 257.448 159.794C257.069 159.47 256.777 159.132 256.572 158.781C256.389 158.449 256.272 158.105 256.221 157.75C256.173 157.383 256.207 156.993 256.324 156.583C256.459 156.108 256.691 155.705 257.021 155.374C257.363 155.045 257.763 154.785 258.219 154.594C258.688 154.406 259.188 154.3 259.721 154.278C260.27 154.246 260.811 154.294 261.342 154.423C261.912 154.56 262.438 154.756 262.92 155.009C263.402 155.263 263.831 155.558 264.206 155.895C264.594 156.235 264.918 156.608 265.176 157.013L263.03 158.428C262.858 158.153 262.647 157.897 262.396 157.658C262.162 157.41 261.904 157.197 261.622 157.019C261.34 156.841 261.07 156.721 260.811 156.658C260.616 156.612 260.436 156.589 260.269 156.59C260.119 156.581 259.982 156.602 259.856 156.654C259.734 156.693 259.633 156.758 259.552 156.848C259.474 156.925 259.418 157.028 259.381 157.156C259.345 157.285 259.342 157.414 259.374 157.545C259.419 157.68 259.496 157.801 259.604 157.909C259.711 158.017 259.893 158.157 260.149 158.328C260.409 158.487 260.765 158.696 261.217 158.956C261.779 159.27 262.251 159.583 262.634 159.894C263.016 160.206 263.297 160.534 263.476 160.879C263.621 161.147 263.704 161.441 263.724 161.761C263.747 162.068 263.712 162.388 263.617 162.722C263.431 163.376 263.077 163.914 262.556 164.337C262.051 164.749 261.432 165.025 260.7 165.163C259.972 165.289 259.193 165.252 258.364 165.052Z" fill="white"/>
</svg>
